<?xml version="1.0" standalone="no"?>
<!DOCTYPE svg PUBLIC "-//W3C//DTD SVG 1.1//EN" "http://www.w3.org/Graphics/SVG/1.1/DTD/svg11.dtd" >
<svg xmlns="http://www.w3.org/2000/svg">
<metadata></metadata>
<defs>
<font id="db_headblack" horiz-adv-x="1229" vert-adv-y="2048" >
<font-face units-per-em="2048" ascent="1597" descent="-451" />
<missing-glyph horiz-adv-x="492" />
<glyph horiz-adv-x="2048" vert-adv-y="0" />
<glyph horiz-adv-x="2048" vert-adv-y="0" />
<glyph unicode="&#xd;" horiz-adv-x="2048" vert-adv-y="0" />
<glyph unicode=" " horiz-adv-x="492" vert-adv-y="2458" />
<glyph unicode="!" horiz-adv-x="664" vert-adv-y="2458" d="M103 1493h452l-82 -1010h-287zM128 172q0 82 54 137q60 60 146 60q87 0 145 -60q54 -56 54 -139q0 -84 -54 -140q-58 -60 -145 -60q-88 0 -146 60q-54 56 -54 142z" />
<glyph unicode="&#x22;" horiz-adv-x="955" vert-adv-y="2458" d="M91 1489h339l-43 -575h-253zM524 1489h339l-43 -575h-253z" />
<glyph unicode="#" vert-adv-y="2458" d="M74 362v283h199l33 211h-181v285h227l58 349h237l-58 -349h175l58 349h237l-58 -349h153v-285h-199l-33 -211h181v-283h-227l-58 -362h-239l60 362h-175l-58 -362h-239l60 362h-153zM510 645h175l33 211h-175z" />
<glyph unicode="$" horiz-adv-x="1161" vert-adv-y="2458" d="M47 1048q0 196 108 311q115 123 338 152q83 10 197 11l42 146h199l-50 -176q83 -18 147 -46v-331q-110 52 -230 76l-82 -299q193 -65 271 -130q123 -105 123 -317q0 -188 -104 -303q-159 -175 -546 -173l-64 -232h-199l70 254q-112 21 -214 67v329q154 -75 300 -93 l83 312q-165 58 -241 112q-78 55 -111 130q-37 83 -37 200zM421 1084q0 -52 36 -83q26 -23 79 -45l65 248q-92 -9 -135 -35q-45 -27 -45 -85zM551 291q169 25 169 129q0 48 -35 79q-22 20 -68 41z" />
<glyph unicode="%" horiz-adv-x="1617" vert-adv-y="2458" d="M28 1133q0 188 108 290q100 95 258 95q174 0 275 -112q92 -100 92 -278q0 -192 -108 -295q-100 -95 -259 -95q-172 0 -274 112q-92 100 -92 283zM145 0l1074 1489h253l-1074 -1489h-253zM313 1092q0 -80 13 -113q17 -44 68 -44q55 0 71 51q11 35 11 106v72q0 79 -13 113 q-17 44 -69 44q-54 0 -70 -51q-11 -33 -11 -106v-72zM856 366q0 188 107 290q101 95 259 95q173 0 276 -112q91 -100 91 -278q0 -193 -108 -295q-100 -95 -259 -95q-172 0 -274 112q-92 100 -92 283zM1141 325q0 -79 13 -113q17 -44 68 -44q55 0 71 51q11 33 11 106v72 q0 80 -13 113q-18 44 -68 44q-55 0 -71 -51q-11 -34 -11 -106v-72z" />
<glyph unicode="&#x26;" horiz-adv-x="1643" vert-adv-y="2458" d="M52 431q0 197 124 308q66 58 209 117q-116 152 -116 294q0 159 119 262q131 112 360 112q199 0 326 -82q145 -94 145 -261q0 -149 -115 -254q-63 -57 -186 -115l210 -238l11 24q21 48 66 148l46 102h339l-182 -387q-32 -69 -68 -120q32 -30 61 -42q23 -9 69 -9 q37 0 101 19v-307q-80 -33 -188 -33q-129 0 -219 42q-46 21 -97 66q-193 -108 -437 -108q-578 0 -578 462zM489 469q0 -202 217 -202q86 0 165 27l-297 345q-47 -31 -64 -65q-21 -40 -21 -105zM661 1152q0 -60 39 -114q13 -18 32 -39l25 -26q4 3 9 6q88 59 88 168 q0 122 -95 122q-98 0 -98 -117z" />
<glyph unicode="'" horiz-adv-x="522" vert-adv-y="2458" d="M91 1489h339l-43 -575h-253z" />
<glyph unicode="(" horiz-adv-x="860" vert-adv-y="2458" d="M94 622q0 243 62 425q96 281 339 530h330q-142 -184 -217 -373q-101 -254 -101 -582q0 -327 101 -580q76 -190 217 -374h-330q-157 161 -248 327q-89 160 -126 328q-27 122 -27 299z" />
<glyph unicode=")" horiz-adv-x="860" vert-adv-y="2458" d="M35 -332q142 184 217 374q101 254 101 580q0 327 -101 582q-75 189 -217 373h330q157 -161 248 -327q89 -160 126 -328q27 -122 27 -300q0 -242 -62 -423q-96 -283 -339 -531h-330z" />
<glyph unicode="*" horiz-adv-x="958" vert-adv-y="2458" d="M66 1040l272 65l-272 63l144 247l211 -219l-92 293h300l-91 -293l211 219l143 -247l-273 -63l274 -65l-144 -248l-209 216l89 -293h-300l92 293l-212 -216z" />
<glyph unicode="+" vert-adv-y="2458" d="M121 549v270h339v364h310v-364h338v-270h-338v-364h-310v364h-339z" />
<glyph unicode="," horiz-adv-x="614" vert-adv-y="2458" d="M96 192q0 93 64 148q54 46 134 46q111 0 177 -80q59 -72 59 -193q0 -206 -156 -329q-106 -84 -265 -104v136q157 44 196 199q-209 9 -209 177z" />
<glyph unicode="-" horiz-adv-x="614" vert-adv-y="2458" d="M50 538v293h515v-293h-515z" />
<glyph unicode="." horiz-adv-x="614" vert-adv-y="2458" d="M97 182q0 86 57 143q62 63 152 63q91 0 152 -63q57 -59 57 -146t-57 -146q-60 -63 -151 -63q-92 0 -153 63q-57 59 -57 149z" />
<glyph unicode="/" horiz-adv-x="1015" vert-adv-y="2458" d="M-102 -332l803 1909h327l-803 -1909h-327z" />
<glyph unicode="0" horiz-adv-x="1427" vert-adv-y="2458" d="M64 644v201q0 297 145 469q176 208 504 208q329 0 505 -208q145 -172 145 -469v-201q0 -296 -145 -469q-176 -207 -505 -207q-328 0 -504 207q-145 172 -145 469zM512 593q0 -162 46 -243t155 -81q110 0 156 81t46 243v303q0 153 -41 234q-45 91 -161 91q-114 0 -160 -91 q-41 -81 -41 -234v-303z" />
<glyph unicode="1" horiz-adv-x="993" vert-adv-y="2458" d="M75 966v294l428 235h256v-1266h217v-229h-890v229h243v863z" />
<glyph unicode="2" horiz-adv-x="1109" vert-adv-y="2458" d="M2 0v228q296 252 406 372q118 130 161 235q32 76 32 166q0 206 -208 206q-106 0 -221 -47q-42 -17 -130 -64v314q86 48 154 71q122 41 284 41q312 0 445 -150q105 -119 105 -335q0 -170 -73 -303q-71 -128 -220 -270q-61 -58 -172 -151h484l-34 -313h-1013z" />
<glyph unicode="3" horiz-adv-x="1124" vert-adv-y="2458" d="M-12 -59v298q293 29 425 70q105 33 157 80q56 51 56 139q0 80 -57 111q-41 22 -121 22q-74 0 -229 -27v270q181 29 253 55q56 21 84 51q29 32 29 90q0 59 -36 88q-40 33 -142 33q-145 0 -358 -100v301q85 36 144 54q151 46 324 46q260 0 378 -94q107 -86 107 -250 q0 -152 -104 -236q-56 -44 -175 -94q139 -18 209 -62q66 -42 95 -103q28 -59 28 -157q0 -286 -242 -419q-238 -131 -825 -166z" />
<glyph unicode="4" horiz-adv-x="1386" vert-adv-y="2458" d="M26 265v238l657 986h413l-630 -947h322v337l409 67v-404h164v-277h-164v-265h-409v265h-762z" />
<glyph unicode="5" horiz-adv-x="1119" vert-adv-y="2458" d="M5 -53v303q278 26 411 66q117 36 170 86q46 44 46 118q0 70 -45 103q-61 43 -244 43q-134 0 -265 -31l108 854h845l-30 -310h-529l-32 -253q79 22 169 22q221 0 330 -107q104 -102 104 -292q0 -264 -177 -400q-177 -135 -536 -180q-101 -12 -325 -22z" />
<glyph unicode="6" horiz-adv-x="1363" vert-adv-y="2458" d="M64 675q0 278 95 445q130 229 437 331q164 55 380 71q48 4 158 9v-307q-205 -20 -297 -45q-213 -58 -274 -203q-20 -49 -30 -156q142 128 351 128q231 0 343 -144q83 -108 83 -297q0 -259 -170 -403q-160 -135 -437 -135q-319 0 -488 188q-81 91 -115 206 q-36 122 -36 312zM533 627q0 -127 6 -180q14 -108 55 -152q39 -41 111 -41q91 0 123 61q28 54 28 168q0 116 -40 153q-37 33 -119 33q-60 0 -109 -16q-20 -7 -39 -17q-16 -8 -16 -9z" />
<glyph unicode="7" horiz-adv-x="1175" vert-adv-y="2458" d="M36 1155l25 334h1074v-234l-520 -1255h-461l597 1155h-715z" />
<glyph unicode="8" horiz-adv-x="1362" vert-adv-y="2458" d="M52 370q0 157 125 248q64 46 177 80q-117 61 -170 124q-85 100 -85 262q0 214 167 328q159 110 428 110q246 0 392 -80q177 -98 177 -300q0 -130 -101 -218q-51 -45 -146 -87q134 -60 197 -127q97 -104 97 -276q0 -248 -201 -369q-162 -98 -422 -98q-271 0 -440 91 q-195 105 -195 312zM444 431q0 -184 247 -184q213 0 213 163q0 88 -102 130q-22 9 -238 74q-6 -3 -12 -7q-108 -60 -108 -176zM503 1113q0 -59 40 -93q34 -29 117 -62q116 -44 120 -41t9 7q84 61 84 160q0 93 -67 133q-52 31 -126 31q-81 0 -132 -39q-45 -35 -45 -96z" />
<glyph unicode="9" horiz-adv-x="1363" vert-adv-y="2458" d="M53 984q0 259 170 403q160 135 437 135q333 0 501 -203q79 -95 111 -228q27 -111 27 -273q0 -280 -95 -447q-137 -241 -459 -338q-183 -55 -442 -68q-42 -2 -134 -5v307q209 11 327 38q156 36 231 106q76 70 93 179q5 27 10 81q-143 -128 -352 -128q-230 0 -342 144 q-83 108 -83 297zM507 1008q0 -116 40 -153q37 -33 118 -33q91 0 165 42v30v15q0 156 -27 229q-38 99 -145 99q-91 0 -123 -61q-28 -54 -28 -168z" />
<glyph unicode=":" horiz-adv-x="614" vert-adv-y="2458" d="M116 182q0 86 57 143q62 63 152 63q91 0 152 -63q57 -59 57 -146t-57 -146q-60 -63 -151 -63q-92 0 -153 63q-57 59 -57 149zM116 787q0 86 57 143q62 63 152 63q92 0 152 -63q57 -59 57 -146t-57 -146q-60 -63 -151 -63q-93 0 -153 63q-57 59 -57 149z" />
<glyph unicode=";" horiz-adv-x="614" vert-adv-y="2458" d="M116 192q0 93 64 148q54 46 134 46q111 0 177 -80q59 -72 59 -193q0 -206 -156 -329q-106 -84 -265 -104v136q157 44 196 199q-209 9 -209 177zM117 787q0 86 57 143q62 63 152 63q91 0 152 -63q57 -59 57 -146t-57 -146q-60 -63 -151 -63q-93 0 -153 63q-57 59 -57 149z " />
<glyph unicode="&#x3c;" vert-adv-y="2458" d="M163 554v258l884 349v-299l-531 -178l531 -178v-298z" />
<glyph unicode="=" vert-adv-y="2458" d="M148 351v258h934v-258h-934zM148 759v258h934v-258h-934z" />
<glyph unicode="&#x3e;" vert-adv-y="2458" d="M182 208v298l531 178l-531 178v299l884 -347v-258z" />
<glyph unicode="?" horiz-adv-x="1016" vert-adv-y="2458" d="M63 1134v304q83 35 132 50q122 36 270 36q264 0 391 -129q98 -99 98 -277q0 -167 -78 -261q-60 -71 -211 -166q-77 -48 -103 -70q-42 -35 -42 -73v-61h-310v107q0 87 41 154q33 55 146 137q68 49 91 74q39 42 39 114q0 66 -27 97q-39 43 -143 43q-128 0 -294 -79z M166 172q0 82 54 137q59 60 145 60q88 0 146 -60q54 -56 54 -139q0 -84 -54 -140q-58 -60 -145 -60q-88 0 -146 60q-54 56 -54 142z" />
<glyph unicode="@" horiz-adv-x="1819" vert-adv-y="2458" d="M68 445q0 382 255 636q130 129 306 196q161 61 343 61q258 0 455 -114q155 -90 240 -236q84 -145 84 -333q0 -291 -162 -439q-120 -110 -304 -110q-223 0 -311 159q-107 -146 -265 -146q-103 0 -165 61q-72 72 -72 212q0 168 62 324q82 204 275 204q131 0 246 -109 l68 107h226l-75 -468q-7 -45 -7 -74q0 -86 70 -86q90 0 145 98q60 108 60 268q0 223 -140 361q-162 160 -432 160q-290 0 -484 -194q-203 -204 -203 -537q0 -559 608 -559q287 0 575 126v-178q-247 -115 -556 -115q-402 0 -622 192q-220 193 -220 533zM795 407q0 -65 62 -65 q48 0 90 54l44 284q-35 26 -68 26q-45 0 -69 -31q-24 -30 -44 -149q-15 -88 -15 -119z" />
<glyph unicode="A" horiz-adv-x="1545" vert-adv-y="2458" d="M31 0l578 1489h335l570 -1489h-451l-95 261h-498l-92 -261h-347zM565 531h308l-154 430z" />
<glyph unicode="B" horiz-adv-x="1418" vert-adv-y="2458" d="M131 0v1489h625q525 0 525 -388q0 -149 -87 -230q-52 -49 -159 -87q99 -20 151 -47q177 -89 177 -313q0 -424 -627 -424h-605zM547 308h187q98 0 147 36q57 43 57 144q0 99 -55 134q-46 30 -136 30h-200v-344zM547 903h177q147 0 147 137q0 140 -142 140h-182v-277z" />
<glyph unicode="C" horiz-adv-x="1265" vert-adv-y="2458" d="M66 736q0 224 61 375q95 238 331 342q161 71 374 71q186 0 364 -60v-329q-179 69 -351 69q-170 0 -245 -92q-78 -96 -78 -372q0 -262 79 -358q76 -91 244 -91q161 0 354 62v-304q-166 -80 -385 -80q-197 0 -358 64q-236 95 -329 327q-61 150 -61 376z" />
<glyph unicode="D" horiz-adv-x="1540" vert-adv-y="2458" d="M131 0v1489h612q727 0 727 -738q0 -419 -236 -605q-186 -146 -501 -146h-602zM563 316h158q179 0 248 111q57 92 57 325q0 235 -66 326q-69 95 -239 95h-158v-857z" />
<glyph unicode="E" horiz-adv-x="1332" vert-adv-y="2458" d="M131 0v1489h1087v-331h-655v-248h516v-310h-516v-269h711l-30 -331h-1113z" />
<glyph unicode="F" horiz-adv-x="1298" vert-adv-y="2458" d="M131 0v1489h1071v-331h-639v-308h534v-310h-534v-540h-432z" />
<glyph unicode="G" horiz-adv-x="1524" vert-adv-y="2458" d="M66 734q0 255 76 409q188 381 755 381q222 0 436 -66v-331q-210 77 -417 77q-223 0 -315 -103q-53 -60 -72 -168q-13 -72 -13 -196q0 -184 32 -269q47 -126 170 -167q71 -23 174 -23q72 0 138 14v224h-230v308h626v-754q-269 -101 -547 -101q-453 0 -652 221 q-97 108 -133 266q-28 119 -28 278z" />
<glyph unicode="H" horiz-adv-x="1620" vert-adv-y="2458" d="M131 0v1489h432v-563h494v563h432v-1489h-432v600h-494v-600h-432z" />
<glyph unicode="I" horiz-adv-x="706" vert-adv-y="2458" d="M137 0v1489h432v-1489h-432z" />
<glyph unicode="J" horiz-adv-x="706" vert-adv-y="2458" d="M-65 -114q105 9 151 50q51 45 51 149v1404h432v-1379q0 -248 -122 -379q-105 -112 -319 -146q-74 -11 -193 -15v316z" />
<glyph unicode="K" horiz-adv-x="1535" vert-adv-y="2458" d="M131 0v1489h432v-670l478 670h433l-516 -689l560 -800h-504l-451 665v-665h-432z" />
<glyph unicode="L" horiz-adv-x="1218" vert-adv-y="2458" d="M131 0v1489h432v-1156h612l-30 -333h-1014z" />
<glyph unicode="M" horiz-adv-x="1904" vert-adv-y="2458" d="M117 0l42 1489h476l322 -762l331 762h485v-1489h-432v888l-324 -734h-224l-305 712l-22 -866h-349z" />
<glyph unicode="N" horiz-adv-x="1564" vert-adv-y="2458" d="M131 0v1489h362l587 -756v756h353v-1489h-283l-666 859v-859h-353z" />
<glyph unicode="O" horiz-adv-x="1609" vert-adv-y="2458" d="M66 754q0 346 182 548q200 222 557 222q390 0 590 -263q149 -195 149 -514q0 -353 -182 -556q-201 -222 -557 -222q-390 0 -590 263q-93 121 -127 278q-22 102 -22 244zM518 753q0 -175 23 -265q34 -133 115 -182q58 -34 149 -34q157 0 224 113q63 105 63 362 q0 277 -76 381q-67 93 -211 93q-157 0 -224 -113q-63 -105 -63 -355z" />
<glyph unicode="P" horiz-adv-x="1382" vert-adv-y="2458" d="M131 0v1489h641q208 0 344 -80q210 -124 210 -400q0 -247 -161 -374q-146 -115 -404 -115q-93 0 -198 14v-534h-432zM563 817q64 -12 150 -12q113 0 161 52q40 44 40 144q0 108 -51 145q-46 33 -135 33h-165v-362z" />
<glyph unicode="Q" horiz-adv-x="1609" vert-adv-y="2458" d="M66 750q0 349 182 552q201 222 557 222q389 0 590 -263q149 -195 149 -514q0 -259 -94 -431q-124 -225 -378 -308q14 -46 35 -68q40 -43 163 -59q44 -6 147 -11v-273q-235 6 -333 23q-179 31 -272 100q-90 66 -132 178q-11 29 -27 83q-185 31 -315 129q-142 107 -213 278 q-59 143 -59 362zM518 753q0 -175 23 -265q34 -133 115 -182q58 -34 149 -34q157 0 224 113q63 105 63 362q0 277 -76 381q-67 93 -211 93q-157 0 -224 -113q-63 -105 -63 -355z" />
<glyph unicode="R" horiz-adv-x="1493" vert-adv-y="2458" d="M131 0v1489h594q185 0 301 -36q166 -51 242 -182q55 -93 55 -228q0 -178 -105 -275q-61 -56 -180 -94q94 -43 161 -161l292 -513h-465l-240 433q-43 78 -74 106q-36 33 -100 33h-49v-572h-432zM563 846h156q105 0 151 42q41 37 41 129q0 94 -44 128q-45 34 -146 34h-158 v-333z" />
<glyph unicode="S" horiz-adv-x="1181" vert-adv-y="2458" d="M58 1050q0 221 140 344q147 130 432 130q189 0 388 -68v-331q-199 81 -357 81q-208 0 -208 -113q0 -47 31 -76q28 -26 114 -60q27 -11 179 -64q157 -55 233 -129q109 -107 109 -310q0 -232 -140 -355q-147 -130 -475 -130q-241 0 -441 89v329q211 -100 404 -100 q239 0 239 130q0 64 -71 102q-38 20 -199 76q-136 48 -202 94q-176 121 -176 361z" />
<glyph unicode="T" horiz-adv-x="1366" vert-adv-y="2458" d="M37 1158l29 331h1252v-331h-424v-1158h-432v1158h-425z" />
<glyph unicode="U" horiz-adv-x="1519" vert-adv-y="2458" d="M114 565v924h437v-921q0 -135 41 -195q58 -83 205 -83q146 0 199 91q36 60 36 165v943h374v-923q0 -223 -83 -354q-154 -243 -564 -243q-427 0 -572 248q-73 123 -73 348z" />
<glyph unicode="V" horiz-adv-x="1494" vert-adv-y="2458" d="M26 1489h454l311 -902l321 902h357l-558 -1489h-335z" />
<glyph unicode="W" horiz-adv-x="2239" vert-adv-y="2458" d="M23 1489h431l355 -984l123 332l-256 652h411l95 -300l96 300h334l-227 -618l122 -366l353 984h357l-572 -1489h-345l-188 524l-193 -524h-336z" />
<glyph unicode="X" horiz-adv-x="1560" vert-adv-y="2458" d="M29 0l480 776l-441 713h491l267 -449l242 449h403l-427 -717l488 -772h-496l-309 510l-296 -510h-402z" />
<glyph unicode="Y" horiz-adv-x="1459" vert-adv-y="2458" d="M2 1489h466l308 -577l281 577h383l-482 -936v-553h-432v541z" />
<glyph unicode="Z" horiz-adv-x="1364" vert-adv-y="2458" d="M58 0v292l679 866h-641l24 331h1165v-294l-677 -864h693l-24 -331h-1219z" />
<glyph unicode="[" horiz-adv-x="860" vert-adv-y="2458" d="M143 -332v1909h696v-265h-316v-1379h316v-265h-696z" />
<glyph unicode="\" horiz-adv-x="1015" vert-adv-y="2458" d="M-13 1577h327l803 -1909h-327z" />
<glyph unicode="]" horiz-adv-x="860" vert-adv-y="2458" d="M20 -67h317v1379h-317v265h697v-1909h-697v265z" />
<glyph unicode="^" vert-adv-y="2458" d="M97 857l362 632h311l361 -632h-304l-212 286l-214 -286h-304z" />
<glyph unicode="_" horiz-adv-x="614" vert-adv-y="2458" d="M-98 -205h810v-232h-810v232z" />
<glyph unicode="`" horiz-adv-x="1024" vert-adv-y="2458" d="M214 1560h393l87 -327h-285z" />
<glyph unicode="a" horiz-adv-x="1181" vert-adv-y="2458" d="M49 294q0 142 64 214q91 101 341 127q67 7 239 13v48q0 79 -36 112q-37 34 -132 34q-101 0 -230 -26q-55 -12 -152 -34v297q229 64 423 64q276 0 395 -98q124 -103 124 -347v-698h-332l-46 159q-114 -192 -331 -192q-162 0 -251 97q-76 84 -76 230zM429 337q0 -62 28 -88 q27 -24 82 -24q83 0 154 60v195q-129 -4 -177 -15q-56 -13 -74 -47q-13 -25 -13 -81z" />
<glyph unicode="b" horiz-adv-x="1301" vert-adv-y="2458" d="M100 0v1476q224 7 297 72h94v-596q155 179 349 179q202 0 306 -161q91 -142 91 -419q0 -329 -151 -478q-108 -106 -279 -106q-135 0 -243 61q-56 32 -121 94l-42 -122h-301zM491 280q75 -55 161 -55q103 0 148 81q35 64 35 241q0 168 -44 224q-44 55 -132 55 q-83 0 -168 -56v-490z" />
<glyph unicode="c" horiz-adv-x="1058" vert-adv-y="2458" d="M63 556q0 294 146 439q150 148 448 148q119 0 236 -29q15 -4 85 -23v-308q-72 28 -96 37q-93 32 -184 32q-129 0 -179 -57q-50 -56 -50 -239q0 -125 17 -179q24 -74 98 -101q44 -16 119 -16q89 0 173 24q36 11 105 36v-278q-144 -75 -325 -75q-320 0 -471 174 q-122 141 -122 415z" />
<glyph unicode="d" horiz-adv-x="1303" vert-adv-y="2458" d="M63 546q0 290 112 437q112 148 322 148q176 0 314 -117v462q223 7 295 72h96v-1548h-301l-51 137q-82 -75 -144 -110q-109 -60 -238 -60q-405 0 -405 579zM467 518q0 -193 59 -248q41 -37 116 -37q88 0 169 52v502q-86 47 -162 47q-100 0 -143 -72q-39 -67 -39 -244z" />
<glyph unicode="e" horiz-adv-x="1215" vert-adv-y="2458" d="M63 551q0 311 176 463q150 129 396 129q517 0 517 -579v-97h-681q4 -58 14 -95q22 -78 111 -100q53 -12 133 -12q157 0 355 64v-282q-205 -75 -409 -75q-346 0 -490 161q-122 137 -122 423zM469 669h295q-4 93 -22 138q-27 71 -116 71q-104 0 -137 -96q-15 -40 -20 -113z " />
<glyph unicode="f" horiz-adv-x="809" vert-adv-y="2458" d="M32 836v267h131v17q0 204 108 316q110 114 326 114h201v-280q-36 7 -78 7q-90 0 -129 -31q-37 -30 -37 -102v-41h220v-267h-220v-836h-391v836h-131z" />
<glyph unicode="g" horiz-adv-x="1165" vert-adv-y="2458" d="M-7 -185q0 147 175 220q-109 59 -109 170q0 154 157 267q-137 104 -137 283q0 181 124 284q126 104 363 104q137 0 249 -40h337v-208h-33q-48 0 -91 -11q17 -54 17 -113q0 -202 -145 -302q-126 -86 -334 -86q-107 0 -202 23q-19 -26 -19 -61q0 -88 105 -88h298 q409 0 409 -308q0 -393 -602 -393q-562 0 -562 259zM347 -115q0 -41 34 -60q49 -28 181 -28q136 0 193 24q26 11 37 26q11 17 11 53q0 48 -36 66q-33 16 -114 16h-129q-86 0 -139 8q-38 -50 -38 -105zM446 761q0 -91 20 -126q27 -46 98 -46q70 0 94 46q21 38 21 125 q0 99 -30 130q-27 30 -87 30q-65 0 -92 -39q-24 -35 -24 -120z" />
<glyph unicode="h" horiz-adv-x="1260" vert-adv-y="2458" d="M100 0v1476q224 7 297 72h94v-621q170 204 381 204q165 0 242 -125q55 -88 55 -230v-776h-391v689q0 125 -125 125q-73 0 -162 -48v-766h-391z" />
<glyph unicode="i" horiz-adv-x="593" vert-adv-y="2458" d="M99 1403q0 81 53 135q59 59 144 59q86 0 143 -59q53 -55 53 -138q0 -82 -53 -137q-57 -59 -143 -59q-87 0 -144 59q-53 55 -53 140zM101 0v1065q125 4 192 21q66 16 105 51h94v-1137h-391z" />
<glyph unicode="j" horiz-adv-x="593" vert-adv-y="2458" d="M-42 -153q61 8 93 32q50 37 50 125v1061q125 4 192 21q66 16 105 51h94v-1116q0 -254 -193 -365q-104 -60 -246 -75q-36 -4 -95 -8v274zM99 1403q0 81 53 135q59 59 144 59q86 0 143 -59q53 -55 53 -138q0 -82 -53 -137q-57 -59 -143 -59q-87 0 -144 59q-53 55 -53 140z " />
<glyph unicode="k" horiz-adv-x="1226" vert-adv-y="2458" d="M100 0v1476q224 7 297 72h94v-844l297 399h406l-349 -406l378 -697h-425l-224 415l-83 -106v-309h-391z" />
<glyph unicode="l" horiz-adv-x="605" vert-adv-y="2458" d="M107 0v1476q224 7 293 72h98v-1548h-391z" />
<glyph unicode="m" horiz-adv-x="1872" vert-adv-y="2458" d="M100 0v1065q125 4 192 21q66 16 105 51h94v-206q154 200 352 200q115 0 184 -73q41 -44 73 -132q190 205 382 205q158 0 238 -118q61 -89 61 -237v-776h-393v690q0 124 -102 124q-75 0 -151 -43v-771h-391v689q0 125 -101 125q-75 0 -152 -43v-771h-391z" />
<glyph unicode="n" horiz-adv-x="1260" vert-adv-y="2458" d="M100 0v1065q125 4 192 21q66 16 105 51h94v-210q168 204 381 204q172 0 248 -135q49 -87 49 -220v-776h-391v689q0 125 -125 125q-73 0 -162 -48v-766h-391z" />
<glyph unicode="o" horiz-adv-x="1278" vert-adv-y="2458" d="M63 562q0 289 161 439q152 142 414 142q286 0 440 -167q136 -148 136 -421q0 -296 -161 -446q-153 -142 -415 -142q-285 0 -439 167q-136 148 -136 428zM469 560q0 -179 28 -239q40 -85 145 -85t142 95q24 61 24 224q0 173 -28 234q-40 85 -138 85q-112 0 -149 -95 q-24 -60 -24 -219z" />
<glyph unicode="p" horiz-adv-x="1301" vert-adv-y="2458" d="M100 -414v1479q125 4 192 21q66 16 105 51h94v-185q153 179 350 179q216 0 315 -177q81 -143 81 -400q0 -338 -156 -484q-110 -103 -277 -103q-128 0 -223 53q-41 22 -90 68v-502h-391zM491 280q75 -55 162 -55q97 0 143 76q39 65 39 248q0 158 -41 219q-39 58 -134 58 q-84 0 -169 -56v-490z" />
<glyph unicode="q" horiz-adv-x="1303" vert-adv-y="2458" d="M63 548q0 303 127 451q113 132 305 132q150 0 259 -74q46 -31 106 -96l49 142h293v-1517h-391v526q-155 -145 -345 -145q-228 0 -329 197q-74 143 -74 384zM467 527q0 -184 46 -242q42 -52 131 -52q87 0 167 52v502q-81 46 -164 46q-99 0 -144 -80q-36 -65 -36 -226z" />
<glyph unicode="r" horiz-adv-x="877" vert-adv-y="2458" d="M100 0v1065q125 4 192 21q66 16 105 51h94v-216q79 104 159 151q80 49 192 59v-349q-211 -14 -351 -51v-731h-391z" />
<glyph unicode="s" horiz-adv-x="1001" vert-adv-y="2458" d="M62 771q0 371 473 371q165 0 347 -51v-280q-182 63 -324 63q-86 0 -126 -18q-30 -14 -30 -47q0 -34 33 -51q22 -12 178 -45q142 -30 223 -90q107 -79 107 -267q0 -381 -479 -381q-226 0 -399 63v274q199 -73 366 -73q81 0 120 15q41 16 41 59q0 38 -46 57q-20 9 -158 38 q-180 39 -251 122q-75 86 -75 241z" />
<glyph unicode="t" horiz-adv-x="869" vert-adv-y="2458" d="M34 836v267h18q69 0 110 20q59 29 81 107l34 125h285v-252h251v-267h-251v-430q0 -81 27 -107q30 -29 103 -29q51 0 138 27v-281q-99 -39 -247 -39q-241 0 -334 104q-78 87 -78 274v481h-137z" />
<glyph unicode="u" horiz-adv-x="1242" vert-adv-y="2458" d="M92 329v749l391 35v-666q0 -82 15 -111q26 -49 103 -49q75 0 151 45v746l391 35v-1113h-318l-55 167q-68 -85 -132 -128q-106 -72 -232 -72q-166 0 -249 119q-65 92 -65 243z" />
<glyph unicode="v" horiz-adv-x="1182" vert-adv-y="2458" d="M7 1103h410l211 -580l216 580h331l-434 -1103h-289z" />
<glyph unicode="w" horiz-adv-x="1661" vert-adv-y="2458" d="M14 1103h404l156 -572l189 573h245l179 -573l151 572h310l-332 -1103h-290l-196 582l-197 -582h-281z" />
<glyph unicode="x" horiz-adv-x="1239" vert-adv-y="2458" d="M25 0l363 566l-340 537h437l170 -310l160 310h355l-327 -528l372 -575h-436l-202 349l-197 -349h-355z" />
<glyph unicode="y" horiz-adv-x="1190" vert-adv-y="2458" d="M7 1103h408l215 -558l216 558h337l-627 -1517h-338l226 506z" />
<glyph unicode="z" horiz-adv-x="1070" vert-adv-y="2458" d="M51 0v229l484 610h-437v264h916v-231l-486 -608h492v-264h-969z" />
<glyph unicode="{" horiz-adv-x="860" vert-adv-y="2458" d="M-5 494v273q109 12 157 52q51 42 51 162v161q0 218 127 322q138 113 457 113h46v-265h-54q-117 0 -163 -62q-33 -45 -33 -157v-144q0 -138 -63 -215q-50 -61 -172 -103q121 -42 172 -104q63 -77 63 -215v-160q0 -119 40 -165q47 -54 156 -54h54v-265h-46q-338 0 -474 128 q-110 103 -110 307v177q0 121 -51 163q-48 39 -157 51z" />
<glyph unicode="|" horiz-adv-x="614" vert-adv-y="2458" d="M144 -334v1950h325v-1950h-325z" />
<glyph unicode="}" horiz-adv-x="860" vert-adv-y="2458" d="M27 -67h54q117 0 163 62q33 46 33 157v160q0 138 63 215q50 61 172 104q-122 42 -172 103q-63 78 -63 215v144q0 81 -12 116q-36 103 -184 103h-54v265h46q338 0 474 -128q110 -103 110 -307v-161q0 -120 51 -162q48 -39 157 -52v-273q-109 -12 -157 -51 q-51 -42 -51 -163v-177q0 -219 -127 -322q-139 -113 -457 -113h-46v265z" />
<glyph unicode="~" vert-adv-y="2458" d="M119 668q66 80 125 121q105 73 235 73q66 0 165 -27q92 -25 147 -25q74 0 132 29q21 11 68 41l118 -184q-63 -77 -123 -119q-104 -74 -236 -74q-64 0 -161 27q-91 25 -145 25q-73 0 -134 -28q-20 -9 -72 -42z" />
<glyph unicode="&#xa0;" horiz-adv-x="492" vert-adv-y="2458" />
<glyph unicode="&#xa1;" horiz-adv-x="664" vert-adv-y="2458" d="M108 -236l82 1003h280l82 -1003h-444zM129 1088q0 82 54 137q60 60 146 60q87 0 145 -60q54 -56 54 -140q0 -83 -54 -139q-58 -60 -145 -60q-88 0 -146 60q-54 56 -54 142z" />
<glyph unicode="&#xa2;" horiz-adv-x="1099" vert-adv-y="2458" d="M48 558q0 306 172 452q156 133 446 133q62 0 148 -8l63 169h193l-75 -202v-313q-66 25 -103 35l-210 -563q18 -1 21 -1q130 0 295 60v-278q-147 -75 -329 -75q-40 0 -94 5l-98 -265h-193l111 301q-106 34 -181 98q-87 75 -126 183q-40 109 -40 269zM448 535 q0 -112 26 -171q11 -27 35 -51l200 538q-12 1 -15 1q-123 0 -183 -56q-42 -41 -55 -127q-8 -49 -8 -134z" />
<glyph unicode="&#xa3;" horiz-adv-x="1182" vert-adv-y="2458" d="M66 608v270h128v153q0 211 117 335q147 156 452 156q193 0 331 -56v-308q-131 47 -251 47q-224 0 -224 -206v-121h345v-270h-345v-295h516l-33 -313h-1034v313h126v295h-128z" />
<glyph unicode="&#xa4;" vert-adv-y="2458" d="M33 290l131 132q-82 133 -82 297q0 165 82 298l-131 132l143 145l126 -128q130 93 312 93q178 0 314 -93l126 128l142 -145l-130 -132q81 -132 81 -297q0 -166 -81 -298l130 -132l-142 -145l-126 128q-128 -93 -313 -93q-178 0 -313 93l-126 -128zM404 723 q0 -113 61 -176q56 -57 150 -57t149 57q61 63 61 172q0 111 -62 173q-56 57 -148 57q-94 0 -150 -57q-61 -63 -61 -169z" />
<glyph unicode="&#xa5;" horiz-adv-x="1236" vert-adv-y="2458" d="M-3 1489h466l200 -447l202 447h372l-353 -658h262v-198h-315v-116h315v-198h-315v-319h-432v319h-316v198h316v116h-316v198h267z" />
<glyph unicode="&#xa6;" horiz-adv-x="614" vert-adv-y="2458" d="M120 0v606h367v-606h-367zM120 883v606h367v-606h-367z" />
<glyph unicode="&#xa7;" vert-adv-y="2458" d="M83 526q0 132 81 207q48 44 134 75q-108 101 -108 269q0 222 166 326q127 80 343 80q150 0 329 -55v-287q-165 60 -303 60q-177 0 -177 -86q0 -39 35 -61q34 -22 145 -53q227 -63 303 -117q116 -81 116 -232q0 -133 -81 -213q-47 -46 -143 -80q104 -99 104 -263 q0 -192 -120 -299q-126 -112 -388 -112q-198 0 -369 72v286q190 -80 336 -80q92 0 137 25q34 19 34 64q0 52 -63 82q-33 15 -111 40q-163 51 -197 66q-101 46 -146 102q-57 72 -57 184zM443 614q0 -41 27 -62q27 -20 102 -43l122 -38q91 21 91 84q0 39 -34 62 q-43 28 -121 49l-104 30q-44 -13 -62 -28q-21 -19 -21 -54z" />
<glyph unicode="&#xa8;" horiz-adv-x="1024" vert-adv-y="2458" d="M103 1401q0 77 49 127q54 55 133 55q80 0 134 -55q49 -51 49 -127q0 -77 -49 -128q-53 -55 -136 -55q-78 0 -131 55q-49 51 -49 128zM555 1401q0 78 49 127q54 55 133 55q81 0 134 -55q49 -51 49 -127q0 -77 -49 -128q-53 -55 -136 -55q-78 0 -131 55q-49 51 -49 128z " />
<glyph unicode="&#xa9;" horiz-adv-x="1778" vert-adv-y="2458" d="M111 756q0 192 88 365q97 191 269 295q178 108 421 108q374 0 592 -256q186 -218 186 -521t-186 -522q-217 -256 -589 -256q-378 0 -595 256q-186 219 -186 531zM252 754q0 -265 148 -445q181 -219 491 -219q306 0 487 219q148 180 148 438t-148 437q-182 219 -489 219 t-489 -219q-148 -180 -148 -430zM521 742q0 205 113 315q114 110 314 110q117 0 211 -35v-213q-87 32 -167 32q-95 0 -129 -47q-29 -41 -29 -161q0 -123 40 -162q36 -35 118 -35q76 0 169 32v-203q-78 -45 -221 -45q-218 0 -325 118q-94 102 -94 294z" />
<glyph unicode="&#xaa;" horiz-adv-x="1019" vert-adv-y="2458" d="M57 762q0 132 68 197q75 72 255 92q64 7 197 9v43q0 66 -29 92q-30 27 -116 27q-114 0 -295 -52v258q176 55 344 55q255 0 353 -109q81 -89 81 -268v-374q0 -82 10 -121q8 -29 32 -44v-56h-329l-39 130q-93 -159 -276 -159q-133 0 -200 86q-56 71 -56 194zM384 802 q0 -44 9 -65q13 -30 58 -30q64 0 126 50v154q-120 -2 -152 -18q-41 -21 -41 -91z" />
<glyph unicode="&#xab;" horiz-adv-x="1127" vert-adv-y="2458" d="M77 448v164l256 365h258l-194 -446l194 -446h-258zM544 448v164l256 365h258l-194 -446l194 -446h-258z" />
<glyph unicode="&#xac;" vert-adv-y="2458" d="M195 549v270h804v-627h-310v357h-494z" />
<glyph unicode="&#xad;" horiz-adv-x="614" vert-adv-y="2458" d="M50 538v293h515v-293h-515z" />
<glyph unicode="&#xae;" horiz-adv-x="737" vert-adv-y="2458" d="M42 1201q0 132 89 222q98 100 237 100q142 0 238 -100q89 -92 89 -227q0 -134 -89 -226q-96 -100 -237 -100q-142 0 -238 100q-89 92 -89 231zM117 1200q0 -111 68 -185q74 -79 184 -79q109 0 183 79q68 73 68 181q0 110 -68 182q-76 79 -184 79q-109 0 -183 -79 q-68 -73 -68 -178zM239 1052v302h140q118 0 118 -87q0 -59 -58 -79q17 -7 35 -41l48 -95h-107l-38 82q-12 24 -29 24h-11v-106h-98zM337 1221h32q31 0 31 29q0 30 -31 30h-32v-59z" />
<glyph unicode="&#xaf;" horiz-adv-x="1024" vert-adv-y="2458" d="M201 1265v263h621v-263h-621z" />
<glyph unicode="&#xb0;" horiz-adv-x="819" vert-adv-y="2458" d="M57 1142q0 140 97 237q105 104 256 104q153 0 256 -104q97 -99 97 -241t-97 -241q-102 -104 -255 -104q-155 0 -257 104q-97 99 -97 245zM260 1140q0 -71 41 -116q42 -47 109 -47t109 47q41 45 41 114t-41 114q-42 47 -109 47t-109 -47q-41 -45 -41 -112z" />
<glyph unicode="&#xb1;" vert-adv-y="2458" d="M121 0v270h987v-270h-987zM121 626v270h339v307h309v-307h339v-270h-339v-285h-309v285h-339z" />
<glyph unicode="&#xb2;" horiz-adv-x="778" vert-adv-y="2458" d="M54 716v161l21 14q190 118 256 173q103 84 103 143q0 65 -119 65q-82 0 -238 -45v204q135 48 293 48q191 0 273 -71q69 -59 69 -174q0 -111 -66 -183q-52 -57 -163 -130h239l-25 -205h-643z" />
<glyph unicode="&#xb3;" horiz-adv-x="778" vert-adv-y="2458" d="M39 654v192q178 13 260 32q142 31 142 87q0 51 -96 51q-33 0 -90 -7q-37 -4 -64 -7v152q117 18 150 28q68 22 68 59q0 48 -92 48q-94 0 -246 -56v197q143 49 301 49q151 0 237 -49q74 -43 74 -149q0 -99 -80 -149q55 -18 82 -45q40 -38 40 -112q0 -158 -136 -224 q-122 -59 -351 -83q-55 -5 -199 -14z" />
<glyph unicode="&#xb4;" horiz-adv-x="1024" vert-adv-y="2458" d="M349 1233l86 327h394l-195 -327h-285z" />
<glyph unicode="&#xb5;" vert-adv-y="2458" d="M94 -413v1491l391 35v-666q0 -82 15 -111q26 -49 104 -49q74 0 150 45v746l391 35v-1113h-318l-55 167q-68 -84 -133 -128q-67 -46 -154 -64v-388h-391z" />
<glyph unicode="&#xb6;" vert-adv-y="2458" d="M7 1008q0 235 151 361q146 122 401 122h562v-1706h-316v1455h-201v-714q-44 -3 -83 -3q-270 0 -398 137q-116 124 -116 348z" />
<glyph unicode="&#xb7;" horiz-adv-x="614" vert-adv-y="2458" d="M97 685q0 86 57 144q62 63 153 63t152 -63q57 -59 57 -146q0 -88 -57 -147q-61 -63 -152 -63q-92 0 -153 63q-57 59 -57 149z" />
<glyph unicode="&#xb8;" horiz-adv-x="1024" vert-adv-y="2458" d="M221 -346l165 346h285l-57 -346h-393z" />
<glyph unicode="&#xb9;" horiz-adv-x="778" vert-adv-y="2458" d="M103 1172v194l281 112h179v-600h150v-162h-603v162h164v353z" />
<glyph unicode="&#xba;" horiz-adv-x="1019" vert-adv-y="2458" d="M53 990q0 265 149 393q116 100 307 100q210 0 330 -120q127 -128 127 -380q0 -272 -149 -399q-117 -101 -308 -101q-209 0 -329 120q-127 128 -127 387zM403 986q0 -153 17 -201q23 -66 89 -66q72 0 94 77q13 48 13 187q0 150 -17 198q-22 66 -90 66q-71 0 -93 -77 q-13 -48 -13 -184z" />
<glyph unicode="&#xbb;" horiz-adv-x="1127" vert-adv-y="2458" d="M69 85l194 446l-194 446h258l256 -363v-164l-256 -365h-258zM536 85l194 446l-194 446h258l256 -363v-164l-256 -365h-258z" />
<glyph unicode="&#xbc;" horiz-adv-x="1843" vert-adv-y="2458" d="M129 1172v194l281 112h179v-600h150v-162h-603v162h164v353zM284 0l1034 1446h243l-1034 -1446h-243zM943 127v156l360 518h271l-351 -509h179v159l230 30v-189h75v-165h-75v-127h-230v127h-459z" />
<glyph unicode="&#xbd;" horiz-adv-x="1843" vert-adv-y="2458" d="M132 1172v194l281 112h179v-600h150v-162h-603v162h164v353zM276 0l1033 1446h244l-1034 -1446h-243zM1081 0v162q164 101 224 144q156 112 156 185q0 64 -119 64q-83 0 -238 -45v204q132 48 292 48q192 0 274 -71q69 -59 69 -174q0 -91 -42 -152q-45 -65 -187 -160h239 l-25 -205h-643z" />
<glyph unicode="&#xbe;" horiz-adv-x="1843" vert-adv-y="2458" d="M125 654v192q178 13 260 32q142 31 142 87q0 51 -96 51q-32 0 -90 -7q-26 -3 -64 -7v152q119 19 150 28q68 22 68 59q0 48 -92 48q-94 0 -246 -56v197q143 49 301 49q151 0 237 -49q74 -43 74 -149q0 -99 -80 -149q55 -18 82 -45q40 -38 40 -112q0 -158 -136 -224 q-122 -59 -351 -83q-55 -5 -199 -14zM313 0l1033 1446h244l-1034 -1446h-243zM965 127v156l360 518h271l-351 -509h160v159l229 30v-189h76v-165h-76v-127h-229v127h-440z" />
<glyph unicode="&#xbf;" horiz-adv-x="1016" vert-adv-y="2458" d="M43 136q0 167 78 260q60 72 211 167q77 48 103 69q42 36 42 74v61h310v-107q0 -86 -41 -154q-34 -55 -146 -137q-68 -49 -92 -74q-38 -42 -38 -114q0 -66 27 -97q39 -43 143 -43q128 0 294 79v-305q-85 -35 -132 -49q-122 -36 -270 -36q-264 0 -391 129q-98 99 -98 277z M430 1088q0 82 54 137q59 60 145 60q88 0 146 -60q54 -56 54 -140q0 -82 -54 -139q-58 -60 -145 -60q-88 0 -146 60q-54 56 -54 142z" />
<glyph unicode="&#xc0;" horiz-adv-x="1545" vert-adv-y="2458" d="M31 0l578 1489h335l570 -1489h-451l-95 261h-498l-92 -261h-347zM434 1931h393l86 -325h-285zM565 531h308l-154 430z" />
<glyph unicode="&#xc1;" horiz-adv-x="1545" vert-adv-y="2458" d="M31 0l578 1489h335l570 -1489h-451l-95 261h-498l-92 -261h-347zM565 531h308l-154 430zM646 1606l85 325h394l-194 -325h-285z" />
<glyph unicode="&#xc2;" horiz-adv-x="1545" vert-adv-y="2458" d="M31 0l578 1489h335l570 -1489h-451l-95 261h-498l-92 -261h-347zM397 1606l219 325h312l219 -325h-246l-129 115l-129 -115h-246zM565 531h308l-154 430z" />
<glyph unicode="&#xc3;" horiz-adv-x="1545" vert-adv-y="2458" d="M31 0l578 1489h335l570 -1489h-451l-95 261h-498l-92 -261h-347zM382 1757q46 67 89 102q75 61 174 61q56 0 144 -26q78 -24 124 -24q56 0 97 27q12 7 39 27l115 -157q-111 -164 -264 -164q-55 0 -143 26q-78 24 -123 24q-51 0 -91 -23q-17 -10 -46 -31zM565 531h308 l-154 430z" />
<glyph unicode="&#xc4;" horiz-adv-x="1545" vert-adv-y="2458" d="M31 0l578 1489h335l570 -1489h-451l-95 261h-498l-92 -261h-347zM363 1769q0 78 49 127q54 55 133 55q80 0 134 -55q49 -50 49 -127t-49 -128q-53 -55 -136 -55q-78 0 -131 55q-49 51 -49 128zM565 531h308l-154 430zM815 1768q0 78 49 127q54 55 133 55q81 0 134 -55 q49 -51 49 -127q0 -77 -49 -128q-53 -55 -136 -55q-78 0 -131 55q-49 51 -49 128z" />
<glyph unicode="&#xc5;" horiz-adv-x="1545" vert-adv-y="2458" d="M31 0l578 1489h335l570 -1489h-451l-95 261h-498l-92 -261h-347zM517 1827q0 99 66 164q75 73 190 73q117 0 190 -73q66 -67 66 -167t-66 -167q-72 -73 -189 -73q-118 0 -191 73q-66 67 -66 170zM565 531h308l-154 430zM676 1825q0 -44 21 -70q26 -35 76 -35t77 35 q20 26 20 69q0 44 -20 69q-28 35 -77 35q-50 0 -76 -35q-21 -26 -21 -68z" />
<glyph unicode="&#xc6;" horiz-adv-x="2149" vert-adv-y="2458" d="M-41 0l809 1489h1267v-331h-654v-248h515v-310h-515v-269h710l-30 -331h-1113v261h-460l-132 -261h-397zM626 531h322v633z" />
<glyph unicode="&#xc7;" horiz-adv-x="1265" vert-adv-y="2458" d="M66 735q0 225 61 376q95 238 331 342q161 71 374 71q186 0 364 -60v-329q-177 69 -351 69q-170 0 -245 -92q-78 -96 -78 -372q0 -262 79 -357q76 -91 244 -91q162 0 354 61v-303q-149 -72 -346 -80l-52 -316h-393l164 343q-153 38 -256 114q-145 108 -204 289 q-46 138 -46 335z" />
<glyph unicode="&#xc8;" horiz-adv-x="1332" vert-adv-y="2458" d="M131 0v1489h1087v-331h-655v-248h516v-310h-516v-269h711l-30 -331h-1113zM402 1931h393l86 -325h-285z" />
<glyph unicode="&#xc9;" horiz-adv-x="1332" vert-adv-y="2458" d="M131 0v1489h1087v-331h-655v-248h516v-310h-516v-269h711l-30 -331h-1113zM552 1606l85 325h394l-194 -325h-285z" />
<glyph unicode="&#xca;" horiz-adv-x="1332" vert-adv-y="2458" d="M131 0v1489h1087v-331h-655v-248h516v-310h-516v-269h711l-30 -331h-1113zM303 1606l219 325h312l219 -325h-246l-129 115l-129 -115h-246z" />
<glyph unicode="&#xcb;" horiz-adv-x="1332" vert-adv-y="2458" d="M131 0v1489h1087v-331h-655v-248h516v-310h-516v-269h711l-30 -331h-1113zM270 1769q0 78 49 127q54 55 133 55q80 0 134 -55q49 -50 49 -127t-49 -128q-53 -55 -136 -55q-78 0 -131 55q-49 51 -49 128zM722 1768q0 78 49 127q54 55 133 55q81 0 134 -55q49 -51 49 -127 q0 -77 -49 -128q-53 -55 -136 -55q-78 0 -131 55q-49 51 -49 128z" />
<glyph unicode="&#xcc;" horiz-adv-x="706" vert-adv-y="2458" d="M45 1931h393l86 -325h-285zM136 0v1489h432v-1489h-432z" />
<glyph unicode="&#xcd;" horiz-adv-x="706" vert-adv-y="2458" d="M137 0v1489h432v-1489h-432zM209 1606l85 325h394l-194 -325h-285z" />
<glyph unicode="&#xce;" horiz-adv-x="706" vert-adv-y="2458" d="M-22 1606l219 325h312l219 -325h-246l-129 115l-129 -115h-246zM137 0v1489h432v-1489h-432z" />
<glyph unicode="&#xcf;" horiz-adv-x="706" vert-adv-y="2458" d="M-56 1769q0 78 49 127q54 55 133 55q80 0 134 -55q49 -50 49 -127t-49 -128q-53 -55 -136 -55q-78 0 -131 55q-49 51 -49 128zM137 0v1489h432v-1489h-432zM396 1768q0 78 49 127q54 55 133 55q81 0 134 -55q49 -51 49 -127q0 -77 -49 -128q-53 -55 -136 -55 q-78 0 -131 55q-49 51 -49 128z" />
<glyph unicode="&#xd0;" horiz-adv-x="1578" vert-adv-y="2458" d="M22 600v311h147v578h613q727 0 727 -738q0 -419 -236 -605q-187 -146 -501 -146h-603v600h-147zM602 316h158q179 0 248 111q57 92 57 325q0 142 -21 229q-47 192 -284 192h-158v-262h234v-311h-234v-284z" />
<glyph unicode="&#xd1;" horiz-adv-x="1564" vert-adv-y="2458" d="M131 0v1489h362l587 -756v756h353v-1489h-283l-666 859v-859h-353zM392 1757q46 67 89 102q75 61 174 61q56 0 144 -26q78 -24 124 -24q56 0 97 27q12 7 39 27l115 -157q-111 -164 -264 -164q-55 0 -143 26q-78 24 -123 24q-51 0 -91 -23q-17 -10 -46 -31z" />
<glyph unicode="&#xd2;" horiz-adv-x="1609" vert-adv-y="2458" d="M66 754q0 346 182 548q200 222 557 222q390 0 590 -263q149 -195 149 -514q0 -353 -182 -556q-201 -222 -557 -222q-390 0 -590 263q-93 121 -127 278q-22 102 -22 244zM503 1931h393l86 -325h-285zM518 753q0 -175 23 -265q34 -133 115 -182q58 -34 149 -34 q157 0 224 113q63 105 63 362q0 277 -76 381q-67 93 -211 93q-157 0 -224 -113q-63 -105 -63 -355z" />
<glyph unicode="&#xd3;" horiz-adv-x="1609" vert-adv-y="2458" d="M66 754q0 346 182 548q200 222 557 222q390 0 590 -263q149 -195 149 -514q0 -353 -182 -556q-201 -222 -557 -222q-390 0 -590 263q-93 121 -127 278q-22 102 -22 244zM518 753q0 -175 23 -265q34 -133 115 -182q58 -34 149 -34q157 0 224 113q63 105 63 362 q0 277 -76 381q-67 93 -211 93q-157 0 -224 -113q-63 -105 -63 -355zM671 1606l85 325h394l-194 -325h-285z" />
<glyph unicode="&#xd4;" horiz-adv-x="1609" vert-adv-y="2458" d="M66 754q0 346 182 548q200 222 557 222q390 0 590 -263q149 -195 149 -514q0 -353 -182 -556q-201 -222 -557 -222q-390 0 -590 263q-93 121 -127 278q-22 102 -22 244zM430 1606l219 325h312l219 -325h-246l-129 115l-129 -115h-246zM518 753q0 -175 23 -265 q34 -133 115 -182q58 -34 149 -34q157 0 224 113q63 105 63 362q0 277 -76 381q-67 93 -211 93q-157 0 -224 -113q-63 -105 -63 -355z" />
<glyph unicode="&#xd5;" horiz-adv-x="1609" vert-adv-y="2458" d="M66 754q0 346 182 548q200 222 557 222q390 0 590 -263q149 -195 149 -514q0 -353 -182 -556q-201 -222 -557 -222q-390 0 -590 263q-93 121 -127 278q-22 102 -22 244zM425 1757q46 67 89 102q75 61 174 61q56 0 144 -26q78 -24 124 -24q56 0 97 27q12 7 39 27l115 -157 q-111 -164 -264 -164q-55 0 -143 26q-78 24 -123 24q-51 0 -91 -23q-17 -10 -46 -31zM518 753q0 -175 23 -265q34 -133 115 -182q58 -34 149 -34q157 0 224 113q63 105 63 362q0 277 -76 381q-67 93 -211 93q-157 0 -224 -113q-63 -105 -63 -355z" />
<glyph unicode="&#xd6;" horiz-adv-x="1609" vert-adv-y="2458" d="M66 754q0 346 182 548q200 222 557 222q390 0 590 -263q149 -195 149 -514q0 -353 -182 -556q-201 -222 -557 -222q-390 0 -590 263q-93 121 -127 278q-22 102 -22 244zM396 1769q0 78 49 127q54 55 133 55q80 0 134 -55q49 -50 49 -127t-49 -128q-53 -55 -136 -55 q-78 0 -131 55q-49 51 -49 128zM518 753q0 -175 23 -265q34 -133 115 -182q58 -34 149 -34q157 0 224 113q63 105 63 362q0 277 -76 381q-67 93 -211 93q-157 0 -224 -113q-63 -105 -63 -355zM848 1768q0 78 49 127q54 55 133 55q81 0 134 -55q49 -51 49 -127 q0 -77 -49 -128q-53 -55 -136 -55q-78 0 -131 55q-49 51 -49 128z" />
<glyph unicode="&#xd7;" vert-adv-y="2458" d="M131 404l285 285l-285 287l191 191l285 -287l287 287l204 -204l-287 -287l287 -285l-191 -191l-287 285l-284 -285z" />
<glyph unicode="&#xd8;" horiz-adv-x="1609" vert-adv-y="2458" d="M34 -92l219 279q-60 66 -97 136q-90 172 -90 424q0 352 182 555q201 222 556 222q237 0 413 -104l107 136h250l-206 -262q51 -60 85 -123q91 -171 91 -425q0 -352 -183 -555q-200 -222 -556 -222q-224 0 -399 96l-123 -157h-249zM503 746q0 -130 16 -219l488 624 q-72 71 -203 71q-165 0 -235 -113q-66 -105 -66 -363zM614 331q74 -59 193 -59q163 0 234 112q66 106 66 338q0 128 -13 222z" />
<glyph unicode="&#xd9;" horiz-adv-x="1519" vert-adv-y="2458" d="M114 565v924h437v-921q0 -135 41 -195q58 -83 205 -83q146 0 199 91q36 60 36 165v943h374v-923q0 -223 -83 -354q-154 -243 -564 -243q-427 0 -572 248q-73 123 -73 348zM475 1931h393l86 -325h-285z" />
<glyph unicode="&#xda;" horiz-adv-x="1519" vert-adv-y="2458" d="M114 565v924h437v-921q0 -135 41 -195q58 -83 205 -83q146 0 199 91q36 60 36 165v943h374v-923q0 -223 -83 -354q-154 -243 -564 -243q-427 0 -572 248q-73 123 -73 348zM653 1606l85 325h394l-194 -325h-285z" />
<glyph unicode="&#xdb;" horiz-adv-x="1519" vert-adv-y="2458" d="M114 565v924h437v-921q0 -135 41 -195q58 -83 205 -83q146 0 199 91q36 60 36 165v943h374v-923q0 -223 -83 -354q-154 -243 -564 -243q-427 0 -572 248q-73 123 -73 348zM415 1606l219 325h312l219 -325h-246l-129 115l-129 -115h-246z" />
<glyph unicode="&#xdc;" horiz-adv-x="1519" vert-adv-y="2458" d="M114 565v924h437v-921q0 -135 41 -195q58 -83 205 -83q146 0 199 91q36 60 36 165v943h374v-923q0 -223 -83 -354q-154 -243 -564 -243q-427 0 -572 248q-73 123 -73 348zM381 1769q0 78 49 127q54 55 133 55q80 0 134 -55q49 -50 49 -127t-49 -128q-53 -55 -136 -55 q-78 0 -131 55q-49 51 -49 128zM833 1768q0 78 49 127q54 55 133 55q81 0 134 -55q49 -51 49 -127q0 -77 -49 -128q-53 -55 -136 -55q-78 0 -131 55q-49 51 -49 128z" />
<glyph unicode="&#xdd;" horiz-adv-x="1459" vert-adv-y="2458" d="M2 1489h466l308 -577l281 577h383l-482 -936v-553h-432v541zM619 1606l85 325h394l-194 -325h-285z" />
<glyph unicode="&#xde;" horiz-adv-x="1382" vert-adv-y="2458" d="M131 0v1489h432v-233h211q205 0 341 -80q211 -124 211 -400q0 -237 -148 -364q-147 -126 -415 -126q-93 0 -200 14v-300h-432zM563 584q67 -13 152 -13q111 0 159 52q40 43 40 143q0 105 -48 143q-45 36 -138 36h-165v-361z" />
<glyph unicode="&#xdf;" horiz-adv-x="1316" vert-adv-y="2458" d="M100 0v972q0 155 30 246q108 330 550 330q211 0 342 -75q75 -43 117 -114q37 -62 37 -138q0 -89 -56 -165q-31 -43 -107 -114q-50 -47 -64 -65q-20 -27 -20 -50q0 -35 49 -74q21 -15 101 -69q92 -62 131 -117q60 -87 60 -218q0 -171 -107 -267q-110 -99 -330 -99 q-149 0 -236 30v259q88 -27 172 -27q128 0 128 87q0 41 -27 69q-22 22 -84 61q-111 72 -150 127q-47 66 -47 151q0 80 42 152q22 39 97 133q37 46 51 70q21 36 21 75q0 52 -37 82q-35 29 -98 29q-174 0 -174 -245v-1036h-391z" />
<glyph unicode="&#xe0;" horiz-adv-x="1181" vert-adv-y="2458" d="M49 294q0 142 64 214q91 101 341 127q67 7 239 13v48q0 79 -36 112q-37 34 -132 34q-101 0 -230 -26q-55 -12 -152 -34v297q229 64 423 64q276 0 395 -98q124 -103 124 -347v-698h-332l-46 159q-114 -192 -331 -192q-162 0 -251 97q-76 84 -76 230zM292 1560h393l87 -327 h-285zM429 337q0 -62 28 -88q27 -24 82 -24q83 0 154 60v195q-129 -4 -177 -15q-56 -13 -74 -47q-13 -25 -13 -81z" />
<glyph unicode="&#xe1;" horiz-adv-x="1181" vert-adv-y="2458" d="M49 294q0 142 64 214q91 101 341 127q67 7 239 13v48q0 79 -36 112q-37 34 -132 34q-101 0 -230 -26q-55 -12 -152 -34v297q229 64 423 64q276 0 395 -98q124 -103 124 -347v-698h-332l-46 159q-114 -192 -331 -192q-162 0 -251 97q-76 84 -76 230zM421 1233l86 327h394 l-195 -327h-285zM429 337q0 -62 28 -88q27 -24 82 -24q83 0 154 60v195q-129 -4 -177 -15q-56 -13 -74 -47q-13 -25 -13 -81z" />
<glyph unicode="&#xe2;" horiz-adv-x="1181" vert-adv-y="2458" d="M49 294q0 142 64 214q91 101 341 127q67 7 239 13v48q0 79 -36 112q-37 34 -132 34q-101 0 -230 -26q-55 -12 -152 -34v297q229 64 423 64q276 0 395 -98q124 -103 124 -347v-698h-332l-46 159q-114 -192 -331 -192q-162 0 -251 97q-76 84 -76 230zM215 1233l220 326h311 l220 -326h-246l-130 116l-129 -116h-246zM429 337q0 -62 28 -88q27 -24 82 -24q83 0 154 60v195q-129 -4 -177 -15q-56 -13 -74 -47q-13 -25 -13 -81z" />
<glyph unicode="&#xe3;" horiz-adv-x="1181" vert-adv-y="2458" d="M49 294q0 142 64 214q91 101 341 127q67 7 239 13v48q0 79 -36 112q-37 34 -132 34q-101 0 -230 -26q-55 -12 -152 -34v297q229 64 423 64q276 0 395 -98q124 -103 124 -347v-698h-332l-46 159q-114 -192 -331 -192q-162 0 -251 97q-76 84 -76 230zM200 1385 q46 67 89 103q75 61 174 61q55 0 144 -27q78 -24 125 -24q54 0 96 27q14 9 39 28l115 -157q-110 -165 -264 -165q-56 0 -143 27q-78 24 -123 24q-51 0 -91 -23q-17 -10 -46 -31zM429 337q0 -62 28 -88q27 -24 82 -24q83 0 154 60v195q-129 -4 -177 -15q-56 -13 -74 -47 q-13 -25 -13 -81z" />
<glyph unicode="&#xe4;" horiz-adv-x="1181" vert-adv-y="2458" d="M49 294q0 142 64 214q91 101 341 127q67 7 239 13v48q0 79 -36 112q-37 34 -132 34q-101 0 -230 -26q-55 -12 -152 -34v297q229 64 423 64q276 0 395 -98q124 -103 124 -347v-698h-332l-46 159q-114 -192 -331 -192q-162 0 -251 97q-76 84 -76 230zM187 1401q0 77 49 127 q54 55 133 55q80 0 134 -55q49 -51 49 -127q0 -77 -49 -128q-53 -55 -136 -55q-78 0 -131 55q-49 51 -49 128zM429 337q0 -62 28 -88q27 -24 82 -24q83 0 154 60v195q-129 -4 -177 -15q-56 -13 -74 -47q-13 -25 -13 -81zM639 1401q0 78 49 127q54 55 133 55q81 0 134 -55 q49 -51 49 -127q0 -77 -49 -128q-53 -55 -136 -55q-78 0 -131 55q-49 51 -49 128z" />
<glyph unicode="&#xe5;" horiz-adv-x="1181" vert-adv-y="2458" d="M49 294q0 142 64 214q91 101 341 127q67 7 239 13v48q0 79 -36 112q-37 34 -132 34q-101 0 -230 -26q-55 -12 -152 -34v297q229 64 423 64q276 0 395 -98q124 -103 124 -347v-698h-332l-46 159q-114 -192 -331 -192q-162 0 -251 97q-76 84 -76 230zM334 1461q0 98 66 163 q75 73 190 73q117 0 190 -73q66 -66 66 -167q0 -99 -66 -166q-72 -73 -189 -73q-119 0 -191 73q-66 67 -66 170zM429 337q0 -62 28 -88q27 -24 82 -24q83 0 154 60v195q-129 -4 -177 -15q-56 -13 -74 -47q-13 -25 -13 -81zM493 1459q0 -44 21 -71q26 -34 76 -34t77 34 q20 27 20 70t-20 69q-28 34 -77 34q-50 0 -76 -34q-21 -27 -21 -68z" />
<glyph unicode="&#xe6;" horiz-adv-x="1833" vert-adv-y="2458" d="M55 303q0 161 99 239q103 81 342 98q68 5 202 6v50q0 79 -35 112q-37 34 -137 34t-227 -27q-55 -11 -150 -33v297q231 64 427 64q161 0 255 -44q56 -26 105 -80q119 124 320 124q514 0 514 -580v-97h-677q8 -119 54 -160q51 -46 197 -46q158 0 358 64v-282 q-209 -75 -408 -75q-224 0 -362 73q-75 40 -137 118q-83 -89 -154 -129q-111 -62 -251 -62q-154 0 -242 81q-53 48 -75 114q-18 55 -18 141zM435 348q0 -74 28 -99q27 -24 84 -24q78 0 151 56v199q-133 -4 -182 -18q-45 -12 -64 -40q-17 -24 -17 -74zM1091 668h291 q-5 112 -30 156q-30 53 -107 53q-95 0 -130 -78q-18 -42 -24 -131z" />
<glyph unicode="&#xe7;" horiz-adv-x="1058" vert-adv-y="2458" d="M63 556q0 294 146 439q150 148 448 148q119 0 236 -29q15 -4 85 -23v-308q-74 29 -96 37q-92 32 -184 32q-129 0 -179 -57q-50 -56 -50 -238q0 -125 17 -179q24 -74 98 -101q44 -16 119 -16q89 0 173 24q39 11 105 35v-278q-116 -59 -251 -71l-52 -317h-393l162 337 q-169 43 -262 151q-122 140 -122 414z" />
<glyph unicode="&#xe8;" horiz-adv-x="1215" vert-adv-y="2458" d="M63 551q0 311 176 463q150 129 396 129q517 0 517 -579v-97h-681q4 -58 14 -95q22 -78 111 -100q53 -12 133 -12q157 0 355 64v-282q-205 -75 -409 -75q-346 0 -490 161q-122 137 -122 423zM310 1560h393l87 -327h-285zM469 669h295q-4 93 -22 138q-27 71 -116 71 q-104 0 -137 -96q-15 -40 -20 -113z" />
<glyph unicode="&#xe9;" horiz-adv-x="1215" vert-adv-y="2458" d="M63 551q0 311 176 463q150 129 396 129q517 0 517 -579v-97h-681q4 -58 14 -95q22 -78 111 -100q53 -12 133 -12q157 0 355 64v-282q-205 -75 -409 -75q-346 0 -490 161q-122 137 -122 423zM469 669h295q-4 93 -22 138q-27 71 -116 71q-104 0 -137 -96q-15 -40 -20 -113z M475 1233l86 327h394l-195 -327h-285z" />
<glyph unicode="&#xea;" horiz-adv-x="1215" vert-adv-y="2458" d="M63 551q0 311 176 463q150 129 396 129q517 0 517 -579v-97h-681q4 -58 14 -95q22 -78 111 -100q53 -12 133 -12q157 0 355 64v-282q-205 -75 -409 -75q-346 0 -490 161q-122 137 -122 423zM256 1233l220 326h311l220 -326h-246l-130 116l-129 -116h-246zM469 669h295 q-4 93 -22 138q-27 71 -116 71q-104 0 -137 -96q-15 -40 -20 -113z" />
<glyph unicode="&#xeb;" horiz-adv-x="1215" vert-adv-y="2458" d="M63 551q0 311 176 463q150 129 396 129q517 0 517 -579v-97h-681q4 -58 14 -95q22 -78 111 -100q53 -12 133 -12q157 0 355 64v-282q-205 -75 -409 -75q-346 0 -490 161q-122 137 -122 423zM228 1401q0 77 49 127q54 55 133 55q80 0 134 -55q49 -51 49 -127 q0 -77 -49 -128q-53 -55 -136 -55q-78 0 -131 55q-49 51 -49 128zM469 669h295q-4 93 -22 138q-27 71 -116 71q-104 0 -137 -96q-15 -40 -20 -113zM680 1401q0 78 49 127q54 55 133 55q81 0 134 -55q49 -51 49 -127q0 -77 -49 -128q-53 -55 -136 -55q-78 0 -131 55 q-49 51 -49 128z" />
<glyph unicode="&#xec;" horiz-adv-x="593" vert-adv-y="2458" d="M-23 1560h393l87 -327h-285zM101 0v1065q125 4 192 21q66 16 105 51h94v-1137h-391z" />
<glyph unicode="&#xed;" horiz-adv-x="593" vert-adv-y="2458" d="M100 0v1065q125 4 192 21q66 16 105 51h94v-1137h-391zM160 1233l86 327h394l-195 -327h-285z" />
<glyph unicode="&#xee;" horiz-adv-x="593" vert-adv-y="2458" d="M-79 1233l220 326h311l220 -326h-246l-130 116l-129 -116h-246zM101 0v1065q125 4 192 21q66 16 105 51h94v-1137h-391z" />
<glyph unicode="&#xef;" horiz-adv-x="593" vert-adv-y="2458" d="M-113 1401q0 77 49 127q54 55 133 55q80 0 134 -55q49 -51 49 -127q0 -77 -49 -128q-53 -55 -136 -55q-78 0 -131 55q-49 51 -49 128zM101 0v1065q125 4 192 21q66 16 105 51h94v-1137h-391zM339 1401q0 78 49 127q54 55 133 55q81 0 134 -55q49 -51 49 -127 q0 -77 -49 -128q-53 -55 -136 -55q-78 0 -131 55q-49 51 -49 128z" />
<glyph unicode="&#xf0;" horiz-adv-x="1278" vert-adv-y="2458" d="M63 555q0 279 141 421q128 130 336 130q103 0 176 -52q-45 82 -111 181l-319 -78v176l205 50q-93 102 -170 165h391q63 -47 107 -85l307 75v-176l-167 -40q110 -139 169 -269q86 -194 86 -450q0 -290 -113 -430q-87 -108 -223 -162q-111 -44 -243 -44q-282 0 -438 176 q-134 151 -134 412zM469 539q0 -150 29 -213q39 -88 139 -88q103 0 141 91q30 70 30 236q0 150 -28 212q-38 85 -134 85q-120 0 -155 -108q-22 -69 -22 -215z" />
<glyph unicode="&#xf1;" horiz-adv-x="1260" vert-adv-y="2458" d="M100 0v1065q125 4 192 21q66 16 105 51h94v-210q168 204 381 204q172 0 248 -135q49 -87 49 -220v-776h-391v689q0 125 -125 125q-73 0 -162 -48v-766h-391zM239 1385q46 67 89 103q75 61 174 61q55 0 144 -27q78 -24 125 -24q54 0 96 27q14 9 39 28l115 -157 q-110 -165 -264 -165q-56 0 -143 27q-78 24 -123 24q-51 0 -91 -23q-17 -10 -46 -31z" />
<glyph unicode="&#xf2;" horiz-adv-x="1278" vert-adv-y="2458" d="M63 562q0 289 161 439q152 142 414 142q286 0 440 -167q136 -148 136 -421q0 -296 -161 -446q-153 -142 -415 -142q-285 0 -439 167q-136 148 -136 428zM330 1560h393l87 -327h-285zM469 560q0 -179 28 -239q40 -85 145 -85t142 95q24 61 24 224q0 173 -28 234 q-40 85 -138 85q-112 0 -149 -95q-24 -60 -24 -219z" />
<glyph unicode="&#xf3;" horiz-adv-x="1278" vert-adv-y="2458" d="M63 562q0 289 161 439q152 142 414 142q286 0 440 -167q136 -148 136 -421q0 -296 -161 -446q-153 -142 -415 -142q-285 0 -439 167q-136 148 -136 428zM469 560q0 -179 28 -239q40 -85 145 -85t142 95q24 61 24 224q0 173 -28 234q-40 85 -138 85q-112 0 -149 -95 q-24 -60 -24 -219zM488 1233l86 327h394l-195 -327h-285z" />
<glyph unicode="&#xf4;" horiz-adv-x="1278" vert-adv-y="2458" d="M63 562q0 289 161 439q152 142 414 142q286 0 440 -167q136 -148 136 -421q0 -296 -161 -446q-153 -142 -415 -142q-285 0 -439 167q-136 148 -136 428zM263 1233l220 326h311l220 -326h-246l-130 116l-129 -116h-246zM469 560q0 -179 28 -239q40 -85 145 -85t142 95 q24 61 24 224q0 173 -28 234q-40 85 -138 85q-112 0 -149 -95q-24 -60 -24 -219z" />
<glyph unicode="&#xf5;" horiz-adv-x="1278" vert-adv-y="2458" d="M63 562q0 289 161 439q152 142 414 142q286 0 440 -167q136 -148 136 -421q0 -296 -161 -446q-153 -142 -415 -142q-285 0 -439 167q-136 148 -136 428zM253 1385q46 67 89 103q75 61 174 61q55 0 144 -27q78 -24 125 -24q54 0 96 27q14 9 39 28l115 -157 q-110 -165 -264 -165q-56 0 -143 27q-78 24 -123 24q-51 0 -91 -23q-17 -10 -46 -31zM469 560q0 -179 28 -239q40 -85 145 -85t142 95q24 61 24 224q0 173 -28 234q-40 85 -138 85q-112 0 -149 -95q-24 -60 -24 -219z" />
<glyph unicode="&#xf6;" horiz-adv-x="1278" vert-adv-y="2458" d="M63 562q0 289 161 439q152 142 414 142q286 0 440 -167q136 -148 136 -421q0 -296 -161 -446q-153 -142 -415 -142q-285 0 -439 167q-136 148 -136 428zM229 1401q0 77 49 127q54 55 133 55q80 0 134 -55q49 -51 49 -127q0 -77 -49 -128q-53 -55 -136 -55q-78 0 -131 55 q-49 51 -49 128zM469 560q0 -179 28 -239q40 -85 145 -85t142 95q24 61 24 224q0 173 -28 234q-40 85 -138 85q-112 0 -149 -95q-24 -60 -24 -219zM681 1401q0 78 49 127q54 55 133 55q81 0 134 -55q49 -51 49 -127q0 -77 -49 -128q-53 -55 -136 -55q-78 0 -131 55 q-49 51 -49 128z" />
<glyph unicode="&#xf7;" vert-adv-y="2458" d="M121 549v270h987v-270h-987zM420 264q0 80 52 133q58 58 142 58t141 -58q52 -54 52 -136q0 -81 -52 -135q-57 -58 -141 -58q-86 0 -142 58q-52 55 -52 138zM420 1111q0 80 52 133q58 58 142 58t141 -58q52 -54 52 -135q0 -82 -52 -136q-56 -58 -141 -58q-86 0 -142 58 q-52 55 -52 138z" />
<glyph unicode="&#xf8;" horiz-adv-x="1278" vert-adv-y="2458" d="M12 -92l187 227q-135 152 -135 420q0 295 161 445q152 142 412 142q195 0 328 -76l90 109h211l-175 -213q124 -153 124 -408q0 -295 -161 -445q-152 -142 -413 -142q-181 0 -313 69l-105 -128h-211zM454 562q0 -58 4 -113l310 378q-44 46 -132 46q-116 0 -156 -95 q-26 -60 -26 -216zM522 271q42 -35 120 -35q116 0 157 95q26 60 26 216q0 47 -3 89z" />
<glyph unicode="&#xf9;" horiz-adv-x="1242" vert-adv-y="2458" d="M92 329v749l391 35v-666q0 -82 15 -111q26 -49 103 -49q75 0 151 45v746l391 35v-1113h-318l-55 167q-68 -85 -132 -128q-106 -72 -232 -72q-166 0 -249 119q-65 92 -65 243zM322 1560h393l87 -327h-285z" />
<glyph unicode="&#xfa;" horiz-adv-x="1242" vert-adv-y="2458" d="M92 329v749l391 35v-666q0 -82 15 -111q26 -49 103 -49q75 0 151 45v746l391 35v-1113h-318l-55 167q-68 -85 -132 -128q-106 -72 -232 -72q-166 0 -249 119q-65 92 -65 243zM493 1233l86 327h394l-195 -327h-285z" />
<glyph unicode="&#xfb;" horiz-adv-x="1242" vert-adv-y="2458" d="M92 329v749l391 35v-666q0 -82 15 -111q26 -49 103 -49q75 0 151 45v746l391 35v-1113h-318l-55 167q-68 -85 -132 -128q-106 -72 -232 -72q-166 0 -249 119q-65 92 -65 243zM245 1233l220 326h311l220 -326h-246l-130 116l-129 -116h-246z" />
<glyph unicode="&#xfc;" horiz-adv-x="1242" vert-adv-y="2458" d="M92 329v749l391 35v-666q0 -82 15 -111q26 -49 103 -49q75 0 151 45v746l391 35v-1113h-318l-55 167q-68 -85 -132 -128q-106 -72 -232 -72q-166 0 -249 119q-65 92 -65 243zM211 1401q0 77 49 127q54 55 133 55q80 0 134 -55q49 -51 49 -127q0 -77 -49 -128 q-53 -55 -136 -55q-78 0 -131 55q-49 51 -49 128zM663 1401q0 78 49 127q54 55 133 55q81 0 134 -55q49 -51 49 -127q0 -77 -49 -128q-53 -55 -136 -55q-78 0 -131 55q-49 51 -49 128z" />
<glyph unicode="&#xfd;" horiz-adv-x="1190" vert-adv-y="2458" d="M7 1103h408l215 -558l216 558h337l-627 -1517h-338l226 506zM480 1233l86 327h394l-195 -327h-285z" />
<glyph unicode="&#xfe;" horiz-adv-x="1301" vert-adv-y="2458" d="M100 -414v1890q224 7 297 72h94v-596q154 179 350 179q216 0 315 -177q81 -143 81 -400q0 -338 -156 -484q-110 -103 -277 -103q-128 0 -223 53q-41 22 -90 68v-502h-391zM491 280q75 -55 162 -55q97 0 143 76q39 65 39 248q0 158 -41 219q-39 58 -134 58q-84 0 -169 -56 v-490z" />
<glyph unicode="&#xff;" horiz-adv-x="1190" vert-adv-y="2458" d="M7 1103h408l215 -558l216 558h337l-627 -1517h-338l226 506zM208 1401q0 77 49 127q54 55 133 55q80 0 134 -55q49 -51 49 -127q0 -77 -49 -128q-53 -55 -136 -55q-78 0 -131 55q-49 51 -49 128zM660 1401q0 78 49 127q54 55 133 55q81 0 134 -55q49 -51 49 -127 q0 -77 -49 -128q-53 -55 -136 -55q-78 0 -131 55q-49 51 -49 128z" />
<glyph unicode="&#x152;" horiz-adv-x="2293" vert-adv-y="2458" d="M66 739q0 375 205 585q196 200 527 200q140 0 252 -47v12h1129v-331h-655v-248h516v-310h-516v-269h711l-30 -331h-1178v13q-107 -44 -242 -44q-328 0 -520 196q-199 204 -199 574zM516 756q0 -302 81 -403q66 -82 206 -82q155 0 224 110q65 104 65 372q0 189 -30 281 q-41 126 -127 163q-56 25 -135 25q-156 0 -223 -120q-61 -108 -61 -346z" />
<glyph unicode="&#x153;" horiz-adv-x="1956" vert-adv-y="2458" d="M60 554q0 297 169 452q149 137 393 137q160 0 272 -67q59 -35 114 -103q58 73 126 111q108 59 262 59q498 0 498 -579v-97h-681q8 -120 56 -162q53 -45 200 -45q156 0 357 64v-282q-208 -75 -408 -75t-321 66q-53 29 -105 95q-48 -54 -90 -83q-116 -78 -290 -78 q-272 0 -421 173q-131 152 -131 414zM466 551q0 -164 29 -226q40 -87 144 -87q106 0 144 105q23 64 23 231q0 155 -28 215q-40 85 -142 85q-106 0 -145 -96q-25 -64 -25 -227zM1211 669h295q-5 113 -30 156q-30 53 -107 53q-96 0 -132 -79q-19 -42 -26 -130z" />
<glyph unicode="&#x178;" horiz-adv-x="1459" vert-adv-y="2458" d="M2 1489h466l308 -577l281 577h383l-482 -936v-553h-432v541zM361 1769q0 78 49 127q54 55 133 55q80 0 134 -55q49 -50 49 -127t-49 -128q-53 -55 -136 -55q-78 0 -131 55q-49 51 -49 128zM813 1768q0 78 49 127q54 55 133 55q81 0 134 -55q49 -51 49 -127 q0 -77 -49 -128q-53 -55 -136 -55q-78 0 -131 55q-49 51 -49 128z" />
<glyph unicode="&#x2c6;" horiz-adv-x="1024" vert-adv-y="2458" d="M137 1233l220 326h311l220 -326h-246l-130 116l-129 -116h-246z" />
<glyph unicode="&#x2dc;" horiz-adv-x="1024" vert-adv-y="2458" d="M121 1385q46 67 89 103q75 61 174 61q55 0 144 -27q78 -24 125 -24q54 0 96 27q14 9 39 28l115 -157q-110 -165 -264 -165q-56 0 -143 27q-78 24 -123 24q-51 0 -91 -23q-17 -10 -46 -31z" />
<glyph unicode="&#x2000;" horiz-adv-x="1032" vert-adv-y="0" />
<glyph unicode="&#x2001;" horiz-adv-x="2064" vert-adv-y="0" />
<glyph unicode="&#x2002;" horiz-adv-x="1032" vert-adv-y="0" />
<glyph unicode="&#x2003;" horiz-adv-x="2064" vert-adv-y="0" />
<glyph unicode="&#x2004;" horiz-adv-x="688" vert-adv-y="0" />
<glyph unicode="&#x2005;" horiz-adv-x="516" vert-adv-y="0" />
<glyph unicode="&#x2006;" horiz-adv-x="344" vert-adv-y="0" />
<glyph unicode="&#x2007;" horiz-adv-x="344" vert-adv-y="0" />
<glyph unicode="&#x2008;" horiz-adv-x="258" vert-adv-y="0" />
<glyph unicode="&#x2009;" horiz-adv-x="412" vert-adv-y="0" />
<glyph unicode="&#x200a;" horiz-adv-x="114" vert-adv-y="0" />
<glyph unicode="&#x2010;" horiz-adv-x="614" vert-adv-y="2458" d="M50 538v293h515v-293h-515z" />
<glyph unicode="&#x2011;" horiz-adv-x="614" vert-adv-y="2458" d="M50 538v293h515v-293h-515z" />
<glyph unicode="&#x2012;" horiz-adv-x="614" vert-adv-y="2458" d="M50 538v293h515v-293h-515z" />
<glyph unicode="&#x2013;" vert-adv-y="2458" d="M121 549v270h987v-270h-987z" />
<glyph unicode="&#x2014;" vert-adv-y="2458" d="M-137 549v270h1503v-270h-1503z" />
<glyph unicode="&#x2018;" horiz-adv-x="532" vert-adv-y="2458" d="M63 1148q0 168 116 280q98 96 279 126v-128q-150 -49 -181 -188q194 -8 194 -165q0 -77 -55 -125q-51 -45 -132 -45q-109 0 -170 78q-51 64 -51 167z" />
<glyph unicode="&#x2019;" horiz-adv-x="530" vert-adv-y="2458" d="M61 1378q0 77 55 125q51 45 132 45q109 0 170 -78q51 -64 51 -167q0 -168 -116 -280q-98 -95 -279 -126v128q150 48 181 188q-194 7 -194 165z" />
<glyph unicode="&#x201a;" horiz-adv-x="530" vert-adv-y="2458" d="M61 220q0 77 55 125q51 45 132 45q109 0 170 -78q51 -64 51 -167q0 -168 -116 -281q-98 -95 -279 -126v128q150 48 181 188q-194 7 -194 166z" />
<glyph unicode="&#x201c;" horiz-adv-x="1036" vert-adv-y="2458" d="M63 1148q0 168 116 280q98 96 279 126v-128q-150 -49 -181 -188q194 -8 194 -165q0 -77 -55 -125q-51 -45 -132 -45q-109 0 -170 78q-51 64 -51 167zM567 1148q0 168 116 280q98 95 279 126v-128q-149 -49 -181 -188q194 -8 194 -164q0 -78 -55 -126q-51 -45 -132 -45 q-109 0 -170 78q-51 64 -51 167z" />
<glyph unicode="&#x201d;" horiz-adv-x="1036" vert-adv-y="2458" d="M61 1378q0 77 55 125q51 45 132 45q109 0 170 -78q51 -64 51 -167q0 -168 -116 -280q-98 -95 -279 -126v128q150 48 181 188q-194 7 -194 165zM567 1378q0 77 55 125q51 45 132 45q109 0 170 -78q51 -64 51 -167q0 -168 -116 -280q-98 -95 -279 -126v128q150 48 181 188 q-194 7 -194 165z" />
<glyph unicode="&#x201e;" horiz-adv-x="1036" vert-adv-y="2458" d="M61 220q0 77 55 125q51 45 132 45q109 0 170 -78q51 -64 51 -167q0 -168 -116 -281q-98 -95 -279 -126v128q150 48 181 188q-194 7 -194 166zM567 219q0 78 55 126q51 45 132 45q109 0 170 -78q51 -64 51 -167q0 -168 -116 -281q-98 -95 -279 -126v128q150 48 181 188 q-194 7 -194 165z" />
<glyph unicode="&#x2022;" vert-adv-y="2458" d="M307 710q0 125 84 210q92 93 223 93q133 0 223 -93q84 -87 84 -214q0 -126 -84 -214q-90 -93 -222 -93q-134 0 -224 93q-84 88 -84 218z" />
<glyph unicode="&#x2026;" horiz-adv-x="1843" vert-adv-y="2458" d="M138 182q0 86 57 143q62 63 152 63q91 0 152 -63q57 -59 57 -146t-57 -146q-60 -63 -151 -63q-92 0 -153 63q-57 59 -57 149zM711 182q0 86 57 143q62 63 152 63q91 0 152 -63q57 -58 57 -146q0 -87 -57 -146q-60 -63 -151 -63q-93 0 -153 63q-57 59 -57 149zM1285 182 q0 86 57 143q62 63 152 63q91 0 152 -63q57 -58 57 -146q0 -87 -57 -146q-60 -63 -151 -63q-92 0 -153 63q-57 59 -57 149z" />
<glyph unicode="&#x202f;" horiz-adv-x="412" vert-adv-y="0" />
<glyph unicode="&#x2039;" horiz-adv-x="660" vert-adv-y="2458" d="M77 448v164l256 365h258l-194 -446l194 -446h-258z" />
<glyph unicode="&#x203a;" horiz-adv-x="660" vert-adv-y="2458" d="M69 85l194 446l-194 446h258l256 -363v-164l-256 -365h-258z" />
<glyph unicode="&#x205f;" horiz-adv-x="516" vert-adv-y="0" />
<glyph unicode="&#x20ac;" horiz-adv-x="1277" vert-adv-y="2458" d="M48 505v198h113v119h-113v198h121q23 194 129 318q177 205 553 205q196 0 359 -53v-319q-164 60 -317 60q-159 0 -215 -71q-42 -52 -50 -140h354v-198h-360v-119h360v-198h-356q10 -83 45 -135q57 -86 225 -86q137 0 324 58v-294q-54 -26 -120 -43q-141 -38 -274 -38 q-245 0 -415 101q-210 125 -246 437h-117z" />
<glyph unicode="&#x2122;" horiz-adv-x="1103" vert-adv-y="2458" d="M23 1373l10 116h399v-116h-127v-331h-153v331h-129zM493 1042l12 447h183l77 -208l84 208h189v-447h-155v258l-89 -219h-81l-85 212l-6 -251h-129z" />
<glyph unicode="&#x25fc;" horiz-adv-x="1105" vert-adv-y="2210" d="M0 0v1105h1105v-1105h-1105z" />
<glyph unicode="&#xfb01;" horiz-adv-x="1336" vert-adv-y="2458" d="M32 836v267h131v17q0 204 98 316q100 114 297 114h159v-277q-22 4 -40 4q-73 0 -100 -40q-21 -31 -21 -93v-41h270q249 0 328 34h93v-1137h-391v836h-302v-836h-391v836h-131zM853 1403q0 81 53 135q59 59 144 59q86 0 143 -59q53 -55 53 -138q0 -82 -53 -137 q-57 -59 -143 -59q-87 0 -144 59q-53 55 -53 140z" />
<glyph unicode="&#xfb02;" horiz-adv-x="1350" vert-adv-y="2458" d="M32 836v267h131v18q0 184 80 277q131 153 513 153q221 0 491 -65v-1486h-391v1271q-57 6 -104 6q-102 0 -150 -29q-27 -17 -40 -50q-13 -35 -10 -52q1 -6 1 -7v-36h178v-267h-177v-836h-391v836h-131z" />
<glyph unicode="&#xfb03;" horiz-adv-x="2028" vert-adv-y="2458" d="M32 836v267h131v17q0 194 97 300q99 108 294 108h161v-279q-30 6 -53 6q-108 0 -108 -111v-41h301v17q0 205 98 316q99 114 298 114h158v-277q-22 4 -40 4q-72 0 -99 -40q-21 -31 -21 -93v-41h269q249 0 328 34h93v-1137h-391v836h-302v-836h-391v836h-301v-836h-391v836 h-131zM1546 1403q0 81 53 135q59 59 144 59q86 0 143 -59q53 -55 53 -138q0 -82 -53 -137q-57 -59 -143 -59q-87 0 -144 59q-53 55 -53 140z" />
<glyph unicode="&#xfb04;" horiz-adv-x="2042" vert-adv-y="2458" d="M32 836v267h131v17q0 194 97 300q99 108 294 108h161v-279q-30 6 -53 6q-108 0 -108 -111v-41h301v18q0 184 79 277q132 153 514 153q224 0 491 -64v-1487h-391v1271q-58 6 -104 6q-102 0 -150 -29q-27 -17 -40 -50q-14 -36 -10 -52q1 -6 1 -7v-36h178v-267h-177v-836 h-391v836h-301v-836h-391v836h-131z" />
</font>
</defs>
</svg>
