<?xml version="1.0" standalone="no"?>
<!DOCTYPE svg PUBLIC "-//W3C//DTD SVG 1.1//EN" "http://www.w3.org/Graphics/SVG/1.1/DTD/svg11.dtd" >
<svg xmlns="http://www.w3.org/2000/svg">
<metadata></metadata>
<defs>
<font id="db_sansblack_italic" horiz-adv-x="1228" >
<font-face units-per-em="2048" ascent="1638" descent="-410" />
<missing-glyph horiz-adv-x="614" />
<glyph unicode="&#xfb01;" horiz-adv-x="1366" d="M-6 -412l231 1248h-133l53 268h131l9 45q43 215 156.5 308t334.5 93h142l-56 -282q-36 8 -59 8q-54 0 -84 -31t-45 -102l-6 -39h325q137 0 191 6.5t88 26.5l92 -21l-217 -1116h-391l162 836h-302l-231 -1248h-391zM1034 1395q0 83 58 139.5t143 56.5q81 0 133.5 -52 t52.5 -130q0 -86 -57 -143.5t-143 -57.5q-82 0 -134.5 52t-52.5 135z" />
<glyph unicode="&#xfb02;" horiz-adv-x="1372" d="M-6 -412l231 1248h-133l53 268h134l4 31q31 157 105.5 249.5t207 134.5t344.5 42q256 0 500 -54l-293 -1507h-391l248 1278q-49 8 -105 8q-109 0 -158.5 -30t-64.5 -105l-8 -47h153l-51 -268h-154l-231 -1248h-391z" />
<glyph unicode="&#xfb03;" horiz-adv-x="2058" d="M-6 -412l231 1248h-133l53 268h134l6 33q41 214 154 306.5t333 92.5h131l-53 -281q-30 9 -55 9q-52 0 -80.5 -31.5t-42.5 -102.5l-4 -26h301l8 47q41 214 155.5 306.5t335.5 92.5h142l-56 -280q-34 6 -59 6q-56 0 -85 -29.5t-44 -101.5l-6 -41h326q137 0 190.5 6.5 t87.5 28.5l92 -23l-217 -1116h-391l164 836h-301l-234 -1248h-391l232 1248h-302l-231 -1248h-391zM1726 1395q0 83 58 139.5t143 56.5q81 0 134 -52t53 -130q0 -86 -57.5 -143.5t-143.5 -57.5q-82 0 -134.5 52t-52.5 135z" />
<glyph unicode="&#xfb04;" horiz-adv-x="2066" d="M-6 -412l231 1248h-133l53 268h134l6 33q41 215 154 307t333 92h131l-53 -281q-30 9 -55 9q-52 0 -80.5 -31.5t-42.5 -102.5l-4 -26h303l6 31q44 233 192.5 329.5t464.5 96.5q265 0 498 -56l-293 -1505h-391l250 1280q-52 8 -107 8q-107 0 -157.5 -31t-65.5 -106l-8 -47 h153l-51 -268h-151l-234 -1248h-391l232 1248h-302l-231 -1248h-391z" />
<glyph horiz-adv-x="2048" />
<glyph horiz-adv-x="2048" />
<glyph unicode="&#xd;" horiz-adv-x="2048" />
<glyph unicode=" "  horiz-adv-x="614" />
<glyph unicode="&#x09;" horiz-adv-x="614" />
<glyph unicode="&#xa0;" horiz-adv-x="614" />
<glyph unicode="!" horiz-adv-x="663" d="M55 156q0 87 59 145.5t146 58.5q85 0 140 -54.5t55 -137.5q0 -89 -58.5 -148t-146.5 -59q-86 0 -140.5 55t-54.5 140zM176 475l115 1004h442l-274 -1004h-283z" />
<glyph unicode="&#x22;" horiz-adv-x="954" d="M195 913l63 576h352l-153 -576h-262zM645 913l64 576h350l-152 -576h-262z" />
<glyph unicode="#" d="M117 348l10 273h188l37 202h-170l8 273h216l69 350h230l-70 -350h168l67 350h230l-70 -350h150l-11 -273h-192l-37 -202h174l-8 -273h-219l-68 -348h-229l67 348h-168l-65 -348h-229l65 348h-143zM543 621h168l39 202h-168z" />
<glyph unicode="$" d="M16 80l62 295q140 -74 260 -94l149 321q-159 73 -221.5 155.5t-62.5 217.5q0 241 151 371.5t430 130.5q26 0 115 -7l78 168h192l-92 -194q42 -10 133 -47l-59 -301q-98 49 -205 71l-141 -301q169 -75 236 -159.5t67 -221.5q0 -239 -159 -375.5t-439 -136.5q-32 0 -125 7 l-127 -273h-192l141 297q-107 24 -191 76zM524 270q91 11 133.5 48.5t42.5 107.5q0 29 -12 51.5t-43 50.5zM590 1040q0 -32 12.5 -54t44.5 -48l113 242q-89 -6 -129.5 -40t-40.5 -100z" />
<glyph unicode="%" horiz-adv-x="1619" d="M100 0l1231 1446h252l-1231 -1446h-252zM133 1020q0 91 30 181t79 147q106 125 297 125q148 0 232.5 -79.5t84.5 -217.5q0 -209 -114.5 -335t-303.5 -126q-136 0 -220.5 84.5t-84.5 220.5zM401 975q0 -70 64 -70q39 0 58 19t32 73q35 136 35 211q0 74 -64 74 q-36 0 -55 -20t-31 -70q-39 -144 -39 -217zM840 283q0 91 29.5 180.5t78.5 146.5q106 125 297 125q148 0 233 -79.5t85 -217.5q0 -207 -114.5 -334t-303.5 -127q-136 0 -220.5 84.5t-84.5 221.5zM1108 238q0 -70 66 -70q37 0 56 19.5t32 72.5q34 132 34 211q0 74 -63 74 q-36 0 -55 -20t-31 -70q-39 -144 -39 -217z" />
<glyph unicode="&#x26;" horiz-adv-x="1642" d="M33 373q0 110 43 204t125 160q88 71 258 127q-74 131 -74 248q0 186 142 298t378 112q198 0 312 -86.5t114 -237.5q0 -125 -88 -218.5t-282 -172.5l159 -236l178 275h342l-239 -363q-58 -87 -107 -145l13 -10q40 -37 110 -37q47 0 107 18l-60 -307q-82 -33 -178 -33 q-84 0 -151.5 26t-135.5 85q-106 -59 -205.5 -85t-218.5 -26q-217 0 -366 82q-176 101 -176 322zM461 426q0 -160 201 -160q77 0 163 29l-231 350q-71 -37 -102 -88.5t-31 -130.5zM766 1137q0 -71 65 -168q70 43 100 88.5t30 109.5q0 47 -23 74t-64 27q-49 0 -78.5 -36 t-29.5 -95z" />
<glyph unicode="'" horiz-adv-x="522" d="M203 913l63 576h352l-153 -576h-262z" />
<glyph unicode="(" horiz-adv-x="860" d="M92 428q0 443 260 819q69 99 135.5 168.5t178.5 161.5h356q-279 -312 -398.5 -588.5t-119.5 -611.5q0 -185 35 -354.5t110 -354.5h-297q-260 335 -260 760z" />
<glyph unicode=")" horiz-adv-x="860" d="M-135 -332q126 139 200 241t138 222q182 342 182 735q0 186 -35.5 355.5t-113.5 355.5h299q260 -339 260 -760q0 -217 -66.5 -426.5t-193.5 -392.5q-69 -99 -135.5 -168.5t-178.5 -161.5h-356z" />
<glyph unicode="*" horiz-adv-x="958" d="M164 1061l278 49l-260 78l174 235l183 -225l-27 291h297l-152 -299l238 207l109 -254l-281 -47l264 -78l-178 -234l-180 222l28 -291h-299l154 297l-240 -201z" />
<glyph unicode="+" d="M121 549l53 270h338l72 365h309l-72 -365h340l-53 -270h-338l-72 -365h-309l70 365h-338z" />
<glyph unicode="," horiz-adv-x="614" d="M-84 -326l27 133q199 55 252 203q-175 12 -175 164q0 88 58.5 143.5t150.5 55.5q98 0 154.5 -61t56.5 -165q0 -193 -145 -323q-70 -64 -153.5 -97t-225.5 -53z" />
<glyph unicode="-" horiz-adv-x="614" d="M47 539l57 292h514l-55 -292h-516z" />
<glyph unicode="." horiz-adv-x="614" d="M25 172q0 91 63 153t154 62q88 0 145 -56.5t57 -144.5q0 -92 -62.5 -154.5t-154.5 -62.5q-89 0 -145.5 57t-56.5 146z" />
<glyph unicode="/" horiz-adv-x="1015" d="M-285 -332l1190 1909h326l-1190 -1909h-326z" />
<glyph unicode="0" d="M76 479q0 85 24.5 227t61.5 271q44 153 104.5 248t153.5 159q137 95 315 95q221 0 352.5 -132.5t131.5 -353.5q0 -174 -59 -411.5t-128 -348.5q-170 -262 -473 -262q-227 0 -355 135t-128 373zM467 414q0 -158 102 -158q57 0 93 52t71 184q36 144 65 315.5t29 245.5 q0 145 -102 145q-56 0 -90.5 -45.5t-65.5 -159.5q-33 -119 -67.5 -314t-34.5 -265z" />
<glyph unicode="1" d="M43 0l45 231h301l162 824l-301 -123l55 295l488 229h251l-239 -1225h280l-45 -231h-997z" />
<glyph unicode="2" d="M-33 0l45 229q249 167 319.5 218t225.5 178q107 88 166 192t59 205q0 139 -172 139q-94 0 -186 -25t-215 -83l61 319q225 111 463 111q229 0 351 -101t122 -290q0 -275 -227 -494q-74 -73 -157.5 -135.5t-223.5 -151.5h489l-94 -311h-1026z" />
<glyph unicode="3" d="M-51 -106l61 301q186 17 289 37.5t201 60.5q109 44 161 101t52 132q0 49 -34.5 72t-109.5 23q-86 0 -168 -13l-73 -10l53 270l123 17q140 20 194 62t54 132q0 103 -131 103q-144 0 -383 -80l55 289q124 49 223.5 69.5t212.5 20.5q198 0 309 -85t111 -237q0 -93 -36 -173 t-99 -126q-32 -25 -63.5 -39t-102.5 -37q64 -9 96 -18.5t66 -30.5q112 -69 112 -215q0 -150 -91 -273.5t-251 -191.5q-156 -67 -327.5 -100t-503.5 -61z" />
<glyph unicode="4" d="M-18 260l45 229l761 1045h375l-729 -1008h246l57 293l393 60l-69 -353h121l-52 -266h-120l-49 -260h-383l49 260h-645z" />
<glyph unicode="5" d="M-31 -94l58 293q187 21 276 38t176 52q209 77 209 231q0 61 -52 86t-181 25q-149 0 -277 -29l219 844h824l-86 -303h-504l-68 -256q80 18 162 18q180 0 275.5 -83t95.5 -240q0 -118 -46 -228.5t-126 -185.5q-191 -179 -625 -238q-83 -11 -330 -24z" />
<glyph unicode="6" d="M96 467q0 178 52.5 366.5t134.5 307.5q189 269 528 356q83 22 166 33t235 20l-59 -305q-263 -25 -391.5 -115.5t-181.5 -287.5q132 104 276 104q137 0 215 -92t78 -254q0 -127 -44 -254t-116 -209q-71 -80 -179 -123t-237 -43q-218 0 -347.5 135t-129.5 361zM504 395 q0 -145 84 -145q44 0 70.5 32t48.5 111q28 107 28 172q0 107 -90 107q-55 0 -106 -31q-1 -8 -7 -25q-28 -140 -28 -221z" />
<glyph unicode="7" d="M66 -100l823 1212h-717l94 334h1043l-45 -234l-758 -1312h-440z" />
<glyph unicode="8" d="M51 336q0 175 129 282q36 31 67 47.5t95 36.5q-72 60 -102.5 124.5t-30.5 160.5q0 230 142.5 363t389.5 133q209 0 328 -89.5t119 -246.5q0 -127 -57.5 -214.5t-176.5 -141.5q94 -65 130 -131t36 -173q0 -247 -146.5 -381.5t-416.5 -134.5q-238 0 -372 96.5t-134 268.5z M410 395q0 -70 44 -110.5t121 -40.5q75 0 120.5 47t45.5 125q0 58 -38.5 92t-180.5 102l-8 -4q-49 -36 -76.5 -92.5t-27.5 -118.5zM586 1057q0 -53 30.5 -85.5t133.5 -90.5q1 2 3.5 4.5t2.5 3.5q84 93 84 196q0 58 -31.5 91.5t-87.5 33.5q-58 0 -96.5 -43.5t-38.5 -109.5z " />
<glyph unicode="9" d="M51 -98l60 307q192 16 311.5 60t189.5 125.5t103 215.5q-131 -102 -266 -102q-138 0 -217.5 94.5t-79.5 257.5q0 113 33.5 226.5t90.5 189.5q148 207 447 207q221 0 349 -136.5t128 -371.5q0 -109 -31.5 -263t-76.5 -266q-148 -361 -590 -483q-94 -26 -180 -37.5 t-271 -23.5zM563 887q0 -105 90 -105q50 0 105 31q35 172 35 246q0 143 -86 143q-71 0 -105 -104q-39 -133 -39 -211z" />
<glyph unicode=":" horiz-adv-x="614" d="M47 172q0 91 63 153t154 62q88 0 145.5 -56.5t57.5 -144.5q0 -92 -62.5 -154.5t-154.5 -62.5q-89 0 -146 57t-57 146zM164 778q0 89 63.5 151t155.5 62q88 0 145.5 -56t57.5 -142q0 -92 -62.5 -155t-154.5 -63q-91 0 -148 57t-57 146z" />
<glyph unicode=";" horiz-adv-x="614" d="M-59 -326l26 133q199 55 252 203q-174 12 -174 164q0 88 58.5 143.5t150.5 55.5q98 0 154.5 -61t56.5 -165q0 -193 -146 -323q-70 -64 -153 -97t-225 -53zM164 778q0 89 63 151t154 62q88 0 145.5 -56t57.5 -142q0 -92 -62.5 -155t-154.5 -63q-89 0 -146 57t-57 146z" />
<glyph unicode="&#x3c;" d="M164 553l51 260l950 348l-59 -313l-567 -178l497 -181l-55 -282z" />
<glyph unicode="=" d="M109 350l51 258h932l-50 -258h-933zM188 760l50 258h933l-49 -258h-934z" />
<glyph unicode="&#x3e;" d="M115 207l61 313l565 178l-495 181l53 282l817 -346l-49 -260z" />
<glyph unicode="?" horiz-adv-x="1015" d="M78 164q0 87 59 146t146 59q85 0 139.5 -54.5t54.5 -138.5q0 -88 -58.5 -147.5t-146.5 -59.5q-85 0 -139.5 55t-54.5 140zM166 1149l57 303q193 70 385 70q225 0 339 -88.5t114 -262.5q0 -173 -100 -288q-60 -74 -254 -178q-110 -58 -149.5 -92t-49.5 -83l-10 -45h-310 l21 113q26 107 76 168t174 135q102 64 135 105t33 106q0 55 -33 77.5t-113 22.5q-140 0 -315 -63z" />
<glyph unicode="@" horiz-adv-x="1818" d="M92 397q0 195 72 369.5t194.5 300t293 199t360.5 73.5q319 0 516.5 -178t197.5 -465q0 -260 -140 -425t-361 -165q-112 0 -180.5 38t-100.5 116q-118 -141 -262 -141q-94 0 -146.5 64t-52.5 179q0 97 33 219t76 189q104 150 282 150q68 0 119.5 -22t98.5 -73l65 93h219 l-125 -467q-16 -63 -16 -91q0 -69 57 -69q97 0 164.5 117.5t67.5 287.5q0 223 -139.5 352.5t-380.5 129.5q-200 0 -361 -100.5t-251.5 -278.5t-90.5 -400q0 -260 136.5 -387t416.5 -127q278 0 559 127l-35 -180q-120 -60 -241 -86.5t-277 -26.5q-364 0 -566 178.5 t-202 499.5zM788 403q0 -61 54 -61q48 0 94 57l72 279q-17 17 -29.5 23t-32.5 6q-39 0 -62.5 -21t-43.5 -74q-21 -55 -36.5 -117.5t-15.5 -91.5z" />
<glyph unicode="A" horiz-adv-x="1564" d="M-68 0l867 1489h342l276 -1489h-432l-43 260h-504l-139 -260h-367zM586 530h311l-72 437z" />
<glyph unicode="B" horiz-adv-x="1425" d="M33 0l289 1489h575q238 0 360.5 -85t122.5 -249q0 -165 -94 -262q-41 -43 -87 -66t-130 -43q142 -26 206 -99t64 -210q0 -239 -168 -357t-509 -118h-629zM504 307h182q123 0 181.5 51.5t58.5 157.5q0 69 -40.5 102t-125.5 33h-191zM618 901h166q85 0 128.5 43.5 t43.5 126.5q0 107 -131 107h-153z" />
<glyph unicode="C" horiz-adv-x="1273" d="M92 547q0 164 53.5 356t130.5 305q113 160 280 236t411 76q229 0 395 -72l-62 -313q-169 69 -339 69q-129 0 -209 -54.5t-127 -174.5q-35 -86 -61.5 -222.5t-26.5 -228.5q0 -237 264 -237q140 0 354 67l-59 -303q-165 -80 -379 -80q-296 0 -460.5 151t-164.5 425z" />
<glyph unicode="D" horiz-adv-x="1558" d="M33 0l289 1489h577q309 0 473 -137.5t164 -397.5q0 -109 -27.5 -247.5t-70.5 -245.5q-181 -461 -776 -461h-629zM526 313h156q216 0 305 160q40 72 72.5 213.5t32.5 245.5q0 237 -254 237h-146z" />
<glyph unicode="E" horiz-adv-x="1337" d="M33 0l289 1489h1075l-66 -334h-645l-47 -244h506l-62 -311h-503l-52 -268h699l-92 -332h-1102z" />
<glyph unicode="F" horiz-adv-x="1302" d="M33 0l289 1489h1056l-67 -334h-621l-61 -307h518l-60 -307h-518l-104 -541h-432z" />
<glyph unicode="G" horiz-adv-x="1531" d="M94 528q0 191 59.5 388.5t151.5 312.5q118 149 301.5 221t442.5 72q243 0 426 -64l-64 -332q-188 76 -379 76q-154 0 -249 -51t-148 -160q-35 -73 -65.5 -221t-30.5 -242q0 -128 75.5 -190t231.5 -62q66 0 127 13l45 225h-230l60 309h625l-146 -753q-247 -99 -528 -99 q-340 0 -522.5 144.5t-182.5 412.5z" />
<glyph unicode="H" horiz-adv-x="1617" d="M33 0l289 1489h432l-109 -563h471l109 563h432l-289 -1489h-432l117 598h-471l-117 -598h-432z" />
<glyph unicode="I" horiz-adv-x="897" d="M-39 0l45 229h164l199 1028h-164l45 232h762l-47 -232h-164l-199 -1028h162l-43 -229h-760z" />
<glyph unicode="J" horiz-adv-x="724" d="M-242 -430l62 315q117 9 170 55.5t73 157.5l271 1391h432l-274 -1413q-37 -180 -123 -288.5t-233.5 -161t-377.5 -56.5z" />
<glyph unicode="K" horiz-adv-x="1521" d="M33 0l289 1489h432l-129 -660l567 660h457l-645 -727l385 -762h-451l-340 686l-133 -686h-432z" />
<glyph unicode="L" horiz-adv-x="1210" d="M33 0l289 1489h432l-226 -1157h600l-94 -332h-1001z" />
<glyph unicode="M" horiz-adv-x="1914" d="M10 0l346 1489h461l158 -764l479 764h500l-289 -1489h-432l174 893l-465 -739h-225l-154 716l-201 -870h-352z" />
<glyph unicode="N" horiz-adv-x="1562" d="M33 0l289 1489h362l416 -774l149 774h353l-289 -1489h-283l-475 877l-170 -877h-352z" />
<glyph unicode="O" horiz-adv-x="1611" d="M100 586q0 182 62.5 362.5t167.5 300.5q115 133 274.5 202t351.5 69q295 0 464 -159.5t169 -438.5q0 -104 -27.5 -239t-70.5 -241q-92 -227 -288 -349t-466 -122q-290 0 -463.5 167.5t-173.5 447.5zM539 530q0 -132 55.5 -196t169.5 -64q97 0 168.5 52.5t111.5 150.5 q42 104 72.5 251t30.5 247q0 248 -229 248q-95 0 -167 -53t-110 -150q-40 -102 -71 -249.5t-31 -236.5z" />
<glyph unicode="P" horiz-adv-x="1400" d="M33 0l289 1489h593q245 0 380 -107.5t135 -302.5q0 -139 -59.5 -261t-160.5 -193q-153 -105 -413 -105q-124 0 -226 21l-106 -541h-432zM621 817q85 -14 157 -14q117 0 177.5 63t60.5 185q0 60 -44 93.5t-122 33.5h-160z" />
<glyph unicode="Q" horiz-adv-x="1611" d="M100 586q0 183 63 364t167 301q238 269 626 269q295 0 464 -159t169 -437q0 -169 -55 -354.5t-139 -299.5q-155 -208 -416 -272q12 -67 79.5 -94t241.5 -35l-53 -272q-354 2 -508.5 90t-177.5 303q-218 51 -339.5 207.5t-121.5 388.5zM539 530q0 -132 55.5 -196 t169.5 -64q97 0 168.5 52.5t111.5 150.5q42 104 72.5 251t30.5 247q0 248 -229 248q-95 0 -167 -53t-110 -150q-40 -102 -71 -249.5t-31 -236.5z" />
<glyph unicode="R" horiz-adv-x="1462" d="M33 0l289 1489h608q235 0 363 -99t128 -282q0 -214 -133 -328q-46 -39 -98 -64t-135 -48q95 -41 151 -187l183 -481h-437l-157 432q-29 80 -62.5 109.5t-93.5 29.5h-64l-110 -571h-432zM629 844h155q118 0 173 50t55 157q0 62 -42.5 94.5t-121.5 32.5h-156z" />
<glyph unicode="S" horiz-adv-x="1196" d="M-20 82l61 315q124 -60 217 -84t199 -24q111 0 173 36.5t62 102.5q0 46 -31.5 76t-123.5 71q-128 59 -173.5 86t-84.5 66q-109 109 -109 285q0 246 156 378t448 132q227 0 443 -82l-64 -326q-101 50 -185.5 71t-179.5 21q-113 0 -165 -30.5t-52 -96.5q0 -56 52 -88 q28 -20 50 -31t128 -57q170 -72 239.5 -163t69.5 -240q0 -252 -162.5 -389.5t-460.5 -137.5q-153 0 -272.5 26t-234.5 83z" />
<glyph unicode="T" horiz-adv-x="1366" d="M164 1155l94 334h1229l-66 -334h-411l-226 -1155h-430l226 1155h-416z" />
<glyph unicode="U" horiz-adv-x="1552" d="M125 451q0 67 18 167l170 871h437l-181 -926q-12 -59 -12 -100q0 -197 236 -197q122 0 184.5 64t91.5 219l182 940h351l-189 -977q-23 -116 -52.5 -190.5t-76.5 -135.5q-85 -109 -212 -161t-310 -52q-310 0 -473.5 123t-163.5 355z" />
<glyph unicode="V" horiz-adv-x="1495" d="M215 1489h432l131 -928l490 928h374l-829 -1489h-342z" />
<glyph unicode="W" horiz-adv-x="2078" d="M229 1489h437l-15 -905l424 905h338l39 -905l393 905h367l-696 -1489h-392l-37 877l-419 -877h-385z" />
<glyph unicode="X" horiz-adv-x="1536" d="M-76 0l623 776l-293 713h465l174 -451l321 451h416l-561 -717l330 -772h-471l-203 512l-387 -512h-414z" />
<glyph unicode="Y" horiz-adv-x="1488" d="M217 1489h440l201 -594l389 594h387l-657 -957l-105 -532h-432l113 573z" />
<glyph unicode="Z" horiz-adv-x="1361" d="M-35 0l58 295l817 860h-613l90 334h1143l-59 -297l-817 -860h665l-86 -332h-1198z" />
<glyph unicode="[" horiz-adv-x="860" d="M-25 -332l371 1909h682l-51 -264h-303l-268 -1381h303l-52 -264h-682z" />
<glyph unicode="\" horiz-adv-x="1015" d="M182 1577h307l449 -1909h-305z" />
<glyph unicode="]" horiz-adv-x="860" d="M-141 -332l51 266h301l270 1379h-303l51 266h682l-370 -1911h-682z" />
<glyph unicode="^" d="M158 858l479 631h307l246 -631h-295l-156 285l-268 -285h-313z" />
<glyph unicode="_" horiz-adv-x="614" d="M-291 -436l45 231h809l-45 -231h-809z" />
<glyph unicode="`" horiz-adv-x="1024" d="M379 1561h377l78 -328h-283z" />
<glyph unicode="a" horiz-adv-x="1288" d="M51 340q0 151 42 309t106 250q78 114 189.5 174t246.5 60q186 0 303 -123l74 94h252l-148 -764q-6 -27 -6 -41q0 -45 47 -45q13 0 43 6l-45 -246q-83 -34 -190 -34q-117 0 -175 41.5t-77 138.5q-91 -103 -175 -148t-184 -45q-146 0 -224.5 96.5t-78.5 276.5zM453 373 q0 -140 100 -140q40 0 77 18.5t89 65.5l102 519q-49 24 -106 24q-66 0 -117.5 -35.5t-77.5 -101.5q-27 -65 -47 -170t-20 -180z" />
<glyph unicode="b" horiz-adv-x="1290" d="M4 0l287 1473q228 6 309 75h96l-121 -622q95 107 185 155.5t192 48.5q137 0 212 -93t75 -263q0 -199 -61 -385.5t-158 -284.5q-134 -137 -340 -137q-104 0 -180.5 35t-147.5 115l-88 -117h-260zM442 244q56 -23 117 -23q147 0 203 131q26 61 49 175t23 180 q0 116 -105 116q-45 0 -85.5 -18.5t-104.5 -69.5z" />
<glyph unicode="c" horiz-adv-x="1034" d="M63 420q0 174 56 324t155 243q172 156 463 156q96 0 164.5 -14t151.5 -50l-56 -282q-75 32 -123 43.5t-108 11.5q-180 0 -242 -131q-26 -52 -43.5 -134t-17.5 -147q0 -180 190 -180q62 0 111 10.5t162 48.5l-54 -278q-161 -74 -335 -74q-226 0 -350 118t-124 335z" />
<glyph unicode="d" horiz-adv-x="1290" d="M47 319q0 142 43 311t103 263q73 115 187 176t257 61q137 0 248 -79l84 422q224 6 309 75h96l-301 -1548h-258l-70 193q-108 -131 -187 -178.5t-191 -47.5q-158 0 -239 89.5t-81 262.5zM455 381q0 -129 106 -129q42 0 84 20t100 66l97 483q-70 37 -142 37q-73 0 -117 -38 t-73 -126q-20 -63 -37.5 -162.5t-17.5 -150.5z" />
<glyph unicode="e" horiz-adv-x="1167" d="M57 389q0 168 51 317t142 244q181 193 477 193q195 0 306.5 -87.5t111.5 -242.5q0 -126 -75 -213t-216 -127q-86 -22 -169.5 -32t-227.5 -13v-12q0 -92 43 -124t166 -32q79 0 140 12t195 52l-55 -283q-123 -42 -208 -58t-185 -16q-242 0 -369 108.5t-127 313.5zM485 635 q173 10 234 37t61 92q0 110 -104 110q-80 0 -122.5 -52.5t-68.5 -186.5z" />
<glyph unicode="f" horiz-adv-x="827" d="M-6 -412l231 1248h-133l53 268h131l9 45q41 209 159 305t332 96h221l-55 -282q-49 8 -82 8q-88 0 -129.5 -30t-56.5 -103l-6 -39h217l-54 -268h-215l-231 -1248h-391z" />
<glyph unicode="g" horiz-adv-x="1290" d="M-4 -369l57 297l49 -14q113 -37 173 -49t133 -12q138 0 200.5 48t85.5 171l33 164q-88 -106 -170.5 -152.5t-183.5 -46.5q-151 0 -234.5 89t-83.5 249q0 137 46 298.5t110 252.5q148 207 430 207q190 0 317 -107l54 78h274l-203 -1053q-51 -258 -206 -373.5t-451 -115.5 q-219 0 -430 69zM461 428q0 -109 98 -109q45 0 89 18t112 64l80 416q-65 43 -140 43q-131 0 -180 -119q-22 -51 -40.5 -151t-18.5 -162z" />
<glyph unicode="h" horiz-adv-x="1261" d="M4 0l287 1473q230 6 311 75h96l-127 -639q114 115 216 168t208 53q107 0 164.5 -57t57.5 -166q0 -39 -15 -131l-149 -776h-394l129 672q7 35 7 61q0 82 -80 82q-41 0 -80.5 -17t-95.5 -59l-144 -739h-391z" />
<glyph unicode="i" horiz-adv-x="690" d="M72 0l159 817h-125l54 268h94q121 0 191 12.5t114 43.5l119 -25l-217 -1116h-389zM356 1395q0 83 58.5 139.5t144.5 56.5q80 0 133 -52t53 -130q0 -86 -57 -143.5t-143 -57.5q-83 0 -136 52t-53 135z" />
<glyph unicode="j" horiz-adv-x="696" d="M-145 -424l53 272q76 4 117.5 41.5t56.5 114.5l158 813h-123l51 268h94q122 0 191.5 12.5t113.5 43.5l119 -25l-221 -1147q-40 -203 -186 -297.5t-424 -95.5zM367 1395q0 83 57.5 139.5t142.5 56.5q81 0 134 -52t53 -130q0 -86 -57.5 -143.5t-143.5 -57.5q-82 0 -134 52 t-52 135z" />
<glyph unicode="k" horiz-adv-x="1200" d="M4 0l287 1473q231 6 309 75h98l-168 -846l349 402h389l-391 -455l208 -649h-397l-127 416l-106 -105l-60 -311h-391z" />
<glyph unicode="l" horiz-adv-x="669" d="M53 0l238 1221h-125l51 268h96q228 0 310 59h118l-301 -1548h-387z" />
<glyph unicode="m" horiz-adv-x="1863" d="M2 0l205 1063q232 6 309 74l94 -21l-41 -211q197 225 400 225q94 0 140.5 -50.5t61.5 -168.5q213 219 422 219q108 0 166 -61t58 -176q0 -35 -17 -137l-145 -756h-391l129 659q10 56 10 74q0 38 -22 60t-60 22q-71 0 -152 -70l-145 -745h-391l131 672q8 36 8 61 q0 82 -82 82q-76 0 -151 -70l-146 -745h-391z" />
<glyph unicode="n" horiz-adv-x="1259" d="M2 0l205 1063q232 6 309 74l96 -21l-41 -205q112 114 214 166.5t208 52.5q108 0 164.5 -57.5t56.5 -167.5q0 -49 -14 -131l-149 -774h-394l127 668q11 54 11 65q0 82 -80 82q-76 0 -176 -76l-146 -739h-391z" />
<glyph unicode="o" horiz-adv-x="1259" d="M59 412q0 149 53 301t136 243q175 187 471 187q222 0 351.5 -116t129.5 -314q0 -125 -36 -261.5t-93 -222.5q-172 -262 -534 -262q-223 0 -350.5 119t-127.5 326zM455 381q0 -73 28 -107t90 -34q71 0 112.5 39t66.5 129q20 71 36.5 173.5t16.5 159.5q0 67 -28.5 99 t-88.5 32q-74 0 -112.5 -39.5t-67.5 -146.5q-22 -77 -37.5 -168t-15.5 -137z" />
<glyph unicode="p" horiz-adv-x="1292" d="M-78 -412l287 1475q231 6 311 74l92 -21l-37 -190q94 106 185 155t192 49q138 0 212.5 -93t74.5 -265q0 -140 -38 -299.5t-95 -255.5q-148 -250 -428 -250q-166 0 -270 94l-93 -473h-393zM444 246q68 -23 131 -23q133 0 189 137q26 61 48 171.5t22 175.5q0 116 -105 116 q-44 0 -86.5 -19.5t-105.5 -68.5z" />
<glyph unicode="q" horiz-adv-x="1292" d="M47 319q0 144 43 312t103 264q154 238 454 238q207 0 320 -119l67 90h256l-295 -1516h-393l109 564q-93 -105 -167.5 -145t-176.5 -40q-158 0 -239 89.5t-81 262.5zM455 381q0 -129 104 -129q46 0 88.5 19.5t100.5 68.5l94 481q-64 39 -140 39q-75 0 -119 -37.5 t-73 -126.5q-20 -63 -37.5 -162.5t-17.5 -152.5z" />
<glyph unicode="r" horiz-adv-x="960" d="M-53 0l47 240h125l112 577h-125l52 268h96q125 0 193.5 12.5t111.5 41.5l121 -23l-45 -231q93 121 186 181t201 67l-72 -353q-208 -13 -346 -53l-94 -487h176l-47 -240h-692z" />
<glyph unicode="s" horiz-adv-x="1009" d="M-8 72l53 272q125 -63 201 -85.5t166 -22.5q135 0 135 75q0 34 -24.5 54t-100.5 49q-98 37 -142 59.5t-77 52.5q-86 77 -86 230q0 186 122.5 286.5t350.5 100.5q111 0 195.5 -19.5t183.5 -68.5l-51 -271q-96 50 -169 70t-159 20q-127 0 -127 -69q0 -27 23.5 -45t93.5 -45 q190 -73 252.5 -138.5t62.5 -191.5q0 -204 -119.5 -310t-349.5 -106q-132 0 -226 22.5t-208 80.5z" />
<glyph unicode="t" horiz-adv-x="858" d="M96 836l51 268h15q79 0 130.5 30t82.5 95l59 125h285l-49 -250h231l-51 -268h-234l-84 -435q-6 -27 -6 -59q0 -72 111 -72q54 0 123 27l-55 -281q-101 -39 -236 -39q-183 0 -266.5 60.5t-83.5 191.5q0 59 14 125l94 482h-131z" />
<glyph unicode="u" horiz-adv-x="1247" d="M51 240q0 61 17 147l135 690l397 33l-129 -674q-8 -39 -8 -71q0 -43 21 -66t59 -23q62 0 155 66l144 735l401 33l-217 -1110h-268l-56 184q-110 -114 -204 -164.5t-195 -50.5q-121 0 -186.5 70t-65.5 201z" />
<glyph unicode="v" horiz-adv-x="1175" d="M123 1104h385l86 -592l324 592h350l-650 -1104h-288z" />
<glyph unicode="w" horiz-adv-x="1638" d="M141 1104h391l25 -580l274 580h244l64 -580l254 580h329l-544 -1104h-285l-59 592l-310 -592h-280z" />
<glyph unicode="x" horiz-adv-x="1210" d="M-84 0l465 565l-227 539h417l103 -311l209 311h374l-421 -529l249 -575h-415l-127 350l-254 -350h-373z" />
<glyph unicode="y" horiz-adv-x="1187" d="M8 -412l336 523l-217 993h391l92 -551l318 551h352l-920 -1516h-352z" />
<glyph unicode="z" horiz-adv-x="1048" d="M-47 0l45 229l567 611h-403l51 264h874l-45 -234l-571 -608h457l-49 -262h-926z" />
<glyph unicode="{" horiz-adv-x="860" d="M16 510l54 276q106 1 157.5 46.5t73.5 154.5l33 172q31 158 99.5 247.5t190.5 130t322 40.5h82l-51 -264h-39q-100 0 -156 -47.5t-75 -147.5l-35 -174q-28 -138 -99.5 -211t-214.5 -110q106 -34 151.5 -88t45.5 -146q0 -40 -8 -86l-37 -199q-10 -51 -10 -69 q0 -56 40.5 -79.5t135.5 -23.5h33l-52 -264h-49q-491 0 -491 314q0 52 10 110l41 211q8 36 8 74q0 60 -33 87t-127 46z" />
<glyph unicode="|" horiz-adv-x="614" d="M180 -334v1950h326v-1950h-326z" />
<glyph unicode="}" horiz-adv-x="860" d="M-141 -332l51 264h39q100 0 156.5 47.5t76.5 147.5l33 174q29 140 100 213t213 111q-106 32 -151 86.5t-45 148.5q0 46 8 82l41 209q6 37 6 59q0 56 -40 79.5t-136 23.5h-33l51 264h50q491 0 491 -315q0 -57 -10 -109l-41 -209q-8 -47 -8 -72q0 -63 32.5 -90.5 t126.5 -46.5l-53 -274q-106 -3 -157.5 -48.5t-73.5 -152.5l-33 -174q-31 -158 -99.5 -247.5t-190.5 -130t-322 -40.5h-82z" />
<glyph unicode="~" d="M141 668q107 104 199.5 149t198.5 45q74 0 159 -28q87 -25 142 -25q53 0 90 13t114 57l93 -183q-103 -103 -197 -148.5t-201 -45.5q-61 0 -155 26q-92 27 -140 27q-54 0 -94 -13.5t-114 -56.5z" />
<glyph unicode="&#xa1;" horiz-adv-x="663" d="M-43 -236l274 1004h283l-115 -1004h-442zM236 1081q0 87 59 146t145 59q85 0 140 -54.5t55 -137.5q0 -89 -58.5 -148t-146.5 -59q-86 0 -140 54.5t-54 139.5z" />
<glyph unicode="&#xa2;" d="M123 432q0 162 54.5 309t148.5 236q175 166 473 166q87 0 176 -17l96 179h199l-125 -228l-47 -280q-50 20 -88 30l-310 -567h27q127 0 301 59l-55 -278q-158 -74 -332 -74q-37 0 -96 6l-146 -266h-198l172 313q-250 119 -250 412zM520 444q0 -66 25 -106l280 514 q-90 -6 -140.5 -29t-88.5 -75q-29 -41 -52.5 -134.5t-23.5 -169.5z" />
<glyph unicode="&#xa3;" d="M27 0l61 315h123l51 271h-123l54 268h120l35 172q43 224 200 340.5t415 116.5q196 0 333 -60l-57 -311q-112 53 -244 53q-112 0 -169.5 -45.5t-77.5 -148.5l-23 -117h336l-51 -268h-336l-53 -271h503l-94 -315h-1003z" />
<glyph unicode="&#xa4;" d="M57 291l131 131q-44 72 -63 140.5t-19 156.5q0 89 19 157t63 142l-131 131l144 143l125 -127q130 95 311 95q96 0 169.5 -22t145.5 -73l125 127l144 -143l-131 -131q81 -131 81 -297q0 -168 -81 -299l131 -131l-144 -146l-125 127q-136 -92 -313 -92q-96 0 -168.5 21.5 t-144.5 70.5l-125 -127zM428 723q0 -112 55.5 -173t155.5 -61q99 0 155 61t56 169q0 109 -55.5 170t-155.5 61q-98 0 -154.5 -60.5t-56.5 -166.5z" />
<glyph unicode="&#xa5;" d="M51 313l35 191h311l23 112h-309l36 191h261l-224 639h424l109 -434l284 434h392l-475 -639h266l-37 -191h-309l-23 -112h307l-37 -191h-307l-59 -313h-420l61 313h-309z" />
<glyph unicode="&#xa6;" horiz-adv-x="614" d="M16 0l119 606h367l-119 -606h-367zM188 883l117 606h369l-119 -606h-367z" />
<glyph unicode="&#xa7;" d="M2 -276l55 292q165 -100 318 -100q164 0 164 104q0 46 -34.5 71.5t-172.5 84.5q-129 56 -188.5 128.5t-59.5 176.5q0 127 72 211q35 40 80.5 65t125.5 48q-63 92 -63 217q0 218 141 337.5t398 119.5q100 0 166 -15t180 -63l-58 -289q-86 44 -148 61t-136 17 q-170 0 -170 -105q0 -40 29 -63.5t124 -58.5q189 -72 258.5 -140t69.5 -180q0 -132 -70.5 -214.5t-220.5 -125.5q36 -46 51 -92.5t15 -110.5q0 -230 -138.5 -349.5t-406.5 -119.5q-116 0 -202.5 21t-178.5 72zM467 578q0 -35 25.5 -65.5t68.5 -47.5l94 -37q59 15 85 38.5 t26 61.5q0 34 -33 67t-84 52l-88 31q-52 -13 -73 -36.5t-21 -63.5z" />
<glyph unicode="&#xa8;" horiz-adv-x="1024" d="M266 1391q0 83 54.5 136.5t138.5 53.5q75 0 124.5 -49t49.5 -123q0 -82 -54.5 -136t-136.5 -54q-77 0 -126.5 48.5t-49.5 123.5zM719 1393q0 79 55 133.5t135 54.5q77 0 126.5 -48.5t49.5 -123.5q0 -82 -54 -136t-136 -54q-78 0 -127 48.5t-49 125.5z" />
<glyph unicode="&#xa9;" horiz-adv-x="1777" d="M147 756q0 139 49.5 274t137.5 238q218 256 592 256q376 0 592 -256q90 -104 138 -238.5t48 -281.5q0 -148 -47.5 -283t-138.5 -240q-215 -256 -590 -256q-376 0 -594 256q-187 217 -187 531zM287 754q0 -295 178.5 -480.5t462.5 -185.5q183 0 328.5 84t227 235t81.5 341 q0 189 -81.5 339t-227.5 234t-330 84q-183 0 -329 -83.5t-228 -232.5t-82 -335zM557 741q0 203 110.5 313.5t313.5 110.5q115 0 211 -35v-206q-85 32 -168 32q-95 0 -129.5 -44.5t-34.5 -168.5q0 -115 35 -158.5t129 -43.5q72 0 172 32v-196q-85 -45 -221 -45 q-205 0 -311.5 104t-106.5 305z" />
<glyph unicode="&#xaa;" horiz-adv-x="1017" d="M78 834q0 141 40.5 286.5t102.5 227.5q133 174 357 174q82 0 140.5 -25t121.5 -86l65 86h217l-133 -702q-8 -39 -8 -78q0 -74 39 -113l-10 -55h-308l-40 143q-78 -89 -154 -130.5t-162 -41.5q-126 0 -197 83t-71 231zM426 866q0 -55 21 -84.5t59 -29.5q67 0 149 65 l88 451q-41 18 -90 18q-126 0 -172 -112q-22 -53 -38.5 -148t-16.5 -160z" />
<glyph unicode="&#xab;" horiz-adv-x="1126" d="M61 465l33 164l307 348h269l-279 -449l109 -442h-246zM526 465l33 164l309 348h267l-277 -449l107 -442h-244z" />
<glyph unicode="&#xac;" d="M195 549l53 270h803l-121 -626h-309l69 356h-495z" />
<glyph unicode="&#xad;" horiz-adv-x="614" d="M47 539l57 292h514l-55 -292h-516z" />
<glyph unicode="&#xae;" horiz-adv-x="1245" d="M160 987q0 239 155.5 396t391.5 157q238 0 391 -157.5t153 -401.5t-153 -401.5t-391 -157.5q-243 0 -395 157t-152 408zM283 987q0 -204 116.5 -328t307.5 -124q187 0 304 124t117 322t-117 322t-304 124t-305.5 -123t-118.5 -317zM489 739v502h234q197 0 197 -145 q0 -100 -99 -129q30 -16 60 -72l82 -156h-177l-67 142q-10 21 -20.5 29t-28.5 8h-17v-179h-164zM645 1014h62q33 0 47 13.5t14 45.5q0 29 -14 42t-45 13h-64v-114z" />
<glyph unicode="&#xaf;" horiz-adv-x="1024" d="M340 1257l51 263h619l-52 -263h-618z" />
<glyph unicode="&#xb0;" horiz-adv-x="819" d="M170 1143q0 143 102.5 241.5t251.5 98.5q150 0 251.5 -99.5t101.5 -246.5q0 -146 -102 -245t-251 -99q-152 0 -253 99.5t-101 250.5zM373 1141q0 -73 41.5 -118.5t109.5 -45.5q65 0 107.5 45.5t42.5 114.5q0 71 -42.5 116t-109.5 45q-64 0 -106.5 -44.5t-42.5 -112.5z " />
<glyph unicode="&#xb1;" d="M12 0l54 270h987l-54 -270h-987zM133 625l53 270h338l62 307h309l-59 -307h338l-54 -270h-338l-55 -285h-309l55 285h-340z" />
<glyph unicode="&#xb2;" horiz-adv-x="778" d="M72 715l30 159q208 109 308 173q155 103 155 172q0 65 -112 65q-111 0 -258 -55l41 207q137 57 299 57q155 0 236 -54.5t81 -160.5q0 -108 -65.5 -191.5t-215.5 -168.5h234l-68 -203h-665z" />
<glyph unicode="&#xb3;" horiz-adv-x="778" d="M63 664l41 196q223 14 327 43t104 78q0 23 -24 36t-67 13q-44 0 -106 -6l-53 -6l37 164l79 8q78 8 111 22.5t33 42.5q0 48 -88 48t-242 -41l35 184q151 45 280 45q138 0 210.5 -46t72.5 -134q0 -121 -113 -178q63 -22 88 -52t25 -84q0 -114 -85 -183t-273 -107 q-128 -25 -392 -43z" />
<glyph unicode="&#xb4;" horiz-adv-x="1024" d="M477 1233l141 328h381l-233 -328h-289z" />
<glyph unicode="&#xb5;" d="M-94 -412l289 1489l399 37l-129 -663q-12 -67 -12 -86q0 -78 98 -78q74 0 160 45l143 745l399 37l-217 -1114h-317l-25 168q-162 -165 -321 -191l-76 -389h-391z" />
<glyph unicode="&#xb6;" d="M80 907q0 108 30.5 211t82.5 172q156 199 528 199h575l-331 -1706h-316l283 1454h-201l-139 -717h-47q-184 0 -293 62q-84 49 -128 132.5t-44 192.5z" />
<glyph unicode="&#xb7;" horiz-adv-x="614" d="M121 674q0 91 63 153t154 62q88 0 145.5 -56.5t57.5 -144.5q0 -92 -62.5 -154.5t-154.5 -62.5q-89 0 -146 57t-57 146z" />
<glyph unicode="&#xb8;" horiz-adv-x="1024" d="M111 -346l184 346h278l-102 -346h-360z" />
<glyph unicode="&#xb9;" horiz-adv-x="778" d="M141 715l31 164h172l70 352l-189 -62l35 195l311 115h168l-116 -600h153l-31 -164h-604z" />
<glyph unicode="&#xba;" horiz-adv-x="1017" d="M115 889q0 100 27.5 214t68.5 183q67 115 184.5 175.5t274.5 60.5q194 0 303.5 -98.5t109.5 -272.5q0 -166 -54.5 -306t-149.5 -216q-133 -109 -349 -109q-192 0 -303.5 99.5t-111.5 269.5zM451 872q-6 -116 102 -116q57 0 90.5 32t56.5 109q19 66 34.5 150.5t15.5 126.5 q0 114 -103 114q-52 0 -85 -26.5t-52 -83.5q-20 -63 -38 -158t-21 -148z" />
<glyph unicode="&#xbb;" horiz-adv-x="1126" d="M-16 86l278 449l-108 442h245l195 -379l-35 -164l-307 -348h-268zM451 86l276 449l-106 442h243l193 -379l-33 -164l-307 -348h-266z" />
<glyph unicode="&#xbc;" horiz-adv-x="1843" d="M166 715l31 164h172l69 352l-188 -62l35 195l311 115h168l-117 -600h154l-31 -164h-604zM231 0l1192 1446h254l-1192 -1446h-254zM885 127l30 156l461 518h277l-434 -494h147l27 144l231 30l-35 -174h76l-35 -180h-76l-24 -127h-223l24 127h-446z" />
<glyph unicode="&#xbd;" horiz-adv-x="1843" d="M154 715l30 164h172l70 352l-188 -62l34 195l312 115h168l-117 -600h153l-30 -164h-604zM213 0l1192 1446h254l-1192 -1446h-254zM954 0l31 160q215 114 305 172q156 104 156 172q0 63 -115 63q-106 0 -254 -53l39 207q144 55 299 55t236.5 -54.5t81.5 -158.5 q0 -109 -64 -191.5t-215 -168.5h234l-68 -203h-666z" />
<glyph unicode="&#xbe;" horiz-adv-x="1843" d="M119 664l41 196q223 14 326.5 43t103.5 78t-90 49q-46 0 -107 -6l-53 -6l37 164l80 8q78 7 110.5 22t32.5 43q0 48 -88 48t-242 -41l35 184q151 45 281 45q138 0 210 -46t72 -134q0 -122 -112 -178q63 -22 87.5 -52t24.5 -84q0 -114 -85 -183t-273 -107 q-129 -25 -391 -43zM256 0l1192 1446h254l-1192 -1446h-254zM901 127l31 156l461 518h276l-434 -494h147l27 144l231 30l-34 -174h75l-34 -180h-76l-25 -127h-225l25 127h-445z" />
<glyph unicode="&#xbf;" horiz-adv-x="1015" d="M-57 82q0 179 108 299q35 38 87 73.5t159 94.5q114 61 151.5 93t47.5 81l10 45h309l-20 -113q-25 -105 -77 -168t-173 -135q-103 -63 -135.5 -104.5t-32.5 -108.5q0 -54 33 -76t112 -22q138 0 316 63l-58 -303q-102 -38 -189 -53.5t-194 -15.5q-454 0 -454 350zM526 1081 q0 87 59 146t146 59q85 0 140 -54.5t55 -137.5q0 -89 -58.5 -148t-146.5 -59q-86 0 -140.5 54.5t-54.5 139.5z" />
<glyph unicode="&#xc0;" horiz-adv-x="1564" d="M-68 0l867 1489h342l276 -1489h-432l-43 260h-504l-139 -260h-367zM586 530h311l-72 437zM653 1931h377l78 -325h-283z" />
<glyph unicode="&#xc1;" horiz-adv-x="1564" d="M-68 0l867 1489h342l276 -1489h-432l-43 260h-504l-139 -260h-367zM586 530h311l-72 437zM838 1606l139 325h383l-234 -325h-288z" />
<glyph unicode="&#xc2;" horiz-adv-x="1564" d="M-68 0l867 1489h342l276 -1489h-432l-43 260h-504l-139 -260h-367zM586 530h311l-72 437zM590 1606l272 325h309l166 -325h-239l-107 116l-153 -116h-248z" />
<glyph unicode="&#xc3;" horiz-adv-x="1564" d="M-68 0l867 1489h342l276 -1489h-432l-43 260h-504l-139 -260h-367zM586 530h311l-72 437zM600 1757q66 89 128 126.5t144 37.5q50 0 142 -27q79 -24 123 -24q38 0 61.5 9.5t75.5 43.5l104 -158q-60 -85 -124 -123t-146 -38q-53 0 -139 26q-82 25 -121 25q-37 0 -64 -10.5 t-79 -45.5z" />
<glyph unicode="&#xc4;" horiz-adv-x="1564" d="M-68 0l867 1489h342l276 -1489h-432l-43 260h-504l-139 -260h-367zM573 1759q0 83 55 138t138 55q75 0 124.5 -49.5t49.5 -124.5q0 -82 -54 -136.5t-136 -54.5q-76 0 -126.5 49t-50.5 123zM586 530h311l-72 437zM1026 1763q0 79 55.5 134t135.5 55q76 0 126 -49.5 t50 -124.5q0 -82 -54.5 -136.5t-136.5 -54.5q-78 0 -127 49t-49 127z" />
<glyph unicode="&#xc5;" horiz-adv-x="1564" d="M-68 0l867 1489h342l276 -1489h-432l-43 260h-504l-139 -260h-367zM586 530h311l-72 437zM741 1819q0 107 75.5 177t189.5 70q109 0 178 -64t69 -165q0 -109 -74 -179.5t-188 -70.5q-112 0 -181 64.5t-69 167.5zM899 1817q0 -44 23.5 -68.5t66.5 -24.5q50 0 78.5 30.5 t28.5 82.5q0 44 -23.5 68t-66.5 24q-50 0 -78.5 -30t-28.5 -82z" />
<glyph unicode="&#xc6;" horiz-adv-x="2134" d="M-143 0l1097 1489h1237l-63 -334h-637l-47 -244h495l-59 -311h-496l-51 -268h690l-94 -332h-1091l49 260h-441l-184 -260h-405zM637 530h303l115 592z" />
<glyph unicode="&#xc7;" horiz-adv-x="1273" d="M92 547q0 164 53.5 356t130.5 305q113 160 280 236t411 76q229 0 395 -72l-62 -313q-169 69 -339 69q-129 0 -209 -54.5t-127 -174.5q-35 -86 -61.5 -222.5t-26.5 -228.5q0 -237 264 -237q144 0 354 67l-59 -303q-121 -62 -275 -74l-96 -323h-360l176 334 q-218 43 -333.5 186.5t-115.5 372.5z" />
<glyph unicode="&#xc8;" horiz-adv-x="1337" d="M33 0l289 1489h1075l-66 -334h-645l-47 -244h506l-62 -311h-503l-52 -268h699l-92 -332h-1102zM610 1931h377l78 -325h-283z" />
<glyph unicode="&#xc9;" horiz-adv-x="1337" d="M33 0l289 1489h1075l-66 -334h-645l-47 -244h506l-62 -311h-503l-52 -268h699l-92 -332h-1102zM707 1606l139 325h383l-234 -325h-288z" />
<glyph unicode="&#xca;" horiz-adv-x="1337" d="M33 0l289 1489h1075l-66 -334h-645l-47 -244h506l-62 -311h-503l-52 -268h699l-92 -332h-1102zM483 1606l273 325h309l166 -325h-240l-106 116l-154 -116h-248z" />
<glyph unicode="&#xcb;" horiz-adv-x="1337" d="M33 0l289 1489h1075l-66 -334h-645l-47 -244h506l-62 -311h-503l-52 -268h699l-92 -332h-1102zM479 1759q0 83 55 138t138 55q75 0 124.5 -49.5t49.5 -124.5q0 -82 -54.5 -136.5t-136.5 -54.5q-76 0 -126 49t-50 123zM932 1763q0 79 55 134t135 55q76 0 126 -49.5 t50 -124.5q0 -82 -54 -136.5t-136 -54.5q-78 0 -127 49t-49 127z" />
<glyph unicode="&#xcc;" horiz-adv-x="897" d="M-39 0l45 229h164l199 1028h-164l45 232h762l-47 -232h-164l-199 -1028h162l-43 -229h-760zM348 1931h377l78 -325h-283z" />
<glyph unicode="&#xcd;" horiz-adv-x="897" d="M-39 0l45 229h164l199 1028h-164l45 232h762l-47 -232h-164l-199 -1028h162l-43 -229h-760zM487 1606l140 325h383l-234 -325h-289z" />
<glyph unicode="&#xce;" horiz-adv-x="897" d="M-39 0l45 229h164l199 1028h-164l45 232h762l-47 -232h-164l-199 -1028h162l-43 -229h-760zM272 1606l273 325h309l166 -325h-240l-106 116l-154 -116h-248z" />
<glyph unicode="&#xcf;" horiz-adv-x="897" d="M-39 0l45 229h164l199 1028h-164l45 232h762l-47 -232h-164l-199 -1028h162l-43 -229h-760zM264 1759q0 83 55 138t138 55q75 0 124.5 -49.5t49.5 -124.5q0 -82 -54.5 -136.5t-136.5 -54.5q-76 0 -126 49t-50 123zM717 1763q0 79 55 134t135 55q76 0 126 -49.5t50 -124.5 q0 -82 -54 -136.5t-136 -54.5q-78 0 -127 49t-49 127z" />
<glyph unicode="&#xd0;" horiz-adv-x="1558" d="M33 0l117 600h-109l59 311h109l113 578h577q309 0 473 -137.5t164 -395.5q0 -108 -27 -247.5t-69 -247.5q-181 -461 -778 -461h-629zM526 313h156q216 0 305 160q40 72 72.5 213.5t32.5 245.5q0 237 -254 237h-146l-49 -258h231l-59 -311h-233z" />
<glyph unicode="&#xd1;" horiz-adv-x="1562" d="M33 0l289 1489h362l416 -774l149 774h353l-289 -1489h-283l-475 877l-170 -877h-352zM606 1757q66 89 128.5 126.5t144.5 37.5q49 0 141 -27q79 -24 123 -24q38 0 61.5 9.5t75.5 43.5l104 -158q-60 -85 -124 -123t-146 -38q-53 0 -139 26q-82 25 -121 25q-37 0 -64 -10.5 t-79 -45.5z" />
<glyph unicode="&#xd2;" horiz-adv-x="1611" d="M100 586q0 182 62.5 362.5t167.5 300.5q115 133 274.5 202t351.5 69q295 0 464 -159.5t169 -438.5q0 -104 -27.5 -239t-70.5 -241q-92 -227 -288 -349t-466 -122q-290 0 -463.5 167.5t-173.5 447.5zM539 530q0 -132 55.5 -196t169.5 -64q97 0 168.5 52.5t111.5 150.5 q42 104 72.5 251t30.5 247q0 248 -229 248q-95 0 -167 -53t-110 -150q-40 -102 -71 -249.5t-31 -236.5zM748 1931h376l78 -325h-282z" />
<glyph unicode="&#xd3;" horiz-adv-x="1611" d="M100 586q0 182 62.5 362.5t167.5 300.5q115 133 274.5 202t351.5 69q295 0 464 -159.5t169 -438.5q0 -104 -27.5 -239t-70.5 -241q-92 -227 -288 -349t-466 -122q-290 0 -463.5 167.5t-173.5 447.5zM539 530q0 -132 55.5 -196t169.5 -64q97 0 168.5 52.5t111.5 150.5 q42 104 72.5 251t30.5 247q0 248 -229 248q-95 0 -167 -53t-110 -150q-40 -102 -71 -249.5t-31 -236.5zM846 1606l139 325h383l-233 -325h-289z" />
<glyph unicode="&#xd4;" horiz-adv-x="1611" d="M100 586q0 182 62.5 362.5t167.5 300.5q115 133 274.5 202t351.5 69q295 0 464 -159.5t169 -438.5q0 -104 -27.5 -239t-70.5 -241q-92 -227 -288 -349t-466 -122q-290 0 -463.5 167.5t-173.5 447.5zM539 530q0 -132 55.5 -196t169.5 -64q97 0 168.5 52.5t111.5 150.5 q42 104 72.5 251t30.5 247q0 248 -229 248q-95 0 -167 -53t-110 -150q-40 -102 -71 -249.5t-31 -236.5zM637 1606l272 325h310l165 -325h-239l-107 116l-153 -116h-248z" />
<glyph unicode="&#xd5;" horiz-adv-x="1611" d="M100 586q0 182 62.5 362.5t167.5 300.5q115 133 274.5 202t351.5 69q295 0 464 -159.5t169 -438.5q0 -104 -27.5 -239t-70.5 -241q-92 -227 -288 -349t-466 -122q-290 0 -463.5 167.5t-173.5 447.5zM539 530q0 -132 55.5 -196t169.5 -64q97 0 168.5 52.5t111.5 150.5 q42 104 72.5 251t30.5 247q0 248 -229 248q-95 0 -167 -53t-110 -150q-40 -102 -71 -249.5t-31 -236.5zM631 1757q66 89 128 126.5t144 37.5q49 0 141 -27q79 -24 123 -24q38 0 62 9.5t76 43.5l104 -158q-60 -85 -124 -123t-146 -38q-54 0 -140 26q-82 25 -120 25t-65 -11 t-79 -45z" />
<glyph unicode="&#xd6;" horiz-adv-x="1611" d="M100 586q0 182 62.5 362.5t167.5 300.5q115 133 274.5 202t351.5 69q295 0 464 -159.5t169 -438.5q0 -104 -27.5 -239t-70.5 -241q-92 -227 -288 -349t-466 -122q-290 0 -463.5 167.5t-173.5 447.5zM539 530q0 -132 55.5 -196t169.5 -64q97 0 168.5 52.5t111.5 150.5 q42 104 72.5 251t30.5 247q0 248 -229 248q-95 0 -167 -53t-110 -150q-40 -102 -71 -249.5t-31 -236.5zM606 1759q0 83 55 138t138 55q75 0 124.5 -49.5t49.5 -124.5q0 -82 -54.5 -136.5t-136.5 -54.5q-76 0 -126 49t-50 123zM1059 1763q0 79 55 134t135 55q76 0 126 -49.5 t50 -124.5q0 -82 -54 -136.5t-136 -54.5q-78 0 -127 49t-49 127z" />
<glyph unicode="&#xd7;" d="M156 403l284 287l-284 287l190 190l285 -286l289 286l202 -204l-286 -287l286 -285l-190 -190l-287 284l-285 -284z" />
<glyph unicode="&#xd8;" horiz-adv-x="1611" d="M-51 -92l268 295q-117 170 -117 383q0 181 63 362t167 301q116 132 275.5 201.5t350.5 69.5q223 0 375 -93l117 129h258l-231 -256q114 -153 114 -376q0 -104 -27.5 -240t-70.5 -240q-92 -226 -287.5 -349.5t-460.5 -123.5q-230 0 -387 101l-149 -164h-258zM526 543 l566 622q-63 54 -174 54q-127 0 -203 -77t-127 -259q-56 -200 -62 -340zM590 330q66 -60 174 -60q129 0 206 77t128 257q52 180 61 350z" />
<glyph unicode="&#xd9;" horiz-adv-x="1552" d="M125 451q0 67 18 167l170 871h437l-181 -926q-12 -59 -12 -100q0 -197 236 -197q122 0 184.5 64t91.5 219l182 940h351l-189 -977q-23 -116 -52.5 -190.5t-76.5 -135.5q-85 -109 -212 -161t-310 -52q-310 0 -473.5 123t-163.5 355zM717 1931h377l77 -325h-282z" />
<glyph unicode="&#xda;" horiz-adv-x="1552" d="M125 451q0 67 18 167l170 871h437l-181 -926q-12 -59 -12 -100q0 -197 236 -197q122 0 184.5 64t91.5 219l182 940h351l-189 -977q-23 -116 -52.5 -190.5t-76.5 -135.5q-85 -109 -212 -161t-310 -52q-310 0 -473.5 123t-163.5 355zM872 1606l140 325h383l-234 -325h-289z " />
<glyph unicode="&#xdb;" horiz-adv-x="1552" d="M125 451q0 67 18 167l170 871h437l-181 -926q-12 -59 -12 -100q0 -197 236 -197q122 0 184.5 64t91.5 219l182 940h351l-189 -977q-23 -116 -52.5 -190.5t-76.5 -135.5q-85 -109 -212 -161t-310 -52q-310 0 -473.5 123t-163.5 355zM610 1606l273 325h309l166 -325h-240 l-106 116l-154 -116h-248z" />
<glyph unicode="&#xdc;" horiz-adv-x="1552" d="M125 451q0 67 18 167l170 871h437l-181 -926q-12 -59 -12 -100q0 -197 236 -197q122 0 184.5 64t91.5 219l182 940h351l-189 -977q-23 -116 -52.5 -190.5t-76.5 -135.5q-85 -109 -212 -161t-310 -52q-310 0 -473.5 123t-163.5 355zM618 1759q0 83 55 138t138 55 q75 0 124.5 -49.5t49.5 -124.5q0 -82 -54 -136.5t-136 -54.5q-76 0 -126.5 49t-50.5 123zM1071 1763q0 79 55.5 134t135.5 55q76 0 126 -49.5t50 -124.5q0 -82 -54.5 -136.5t-136.5 -54.5q-78 0 -127 49t-49 127z" />
<glyph unicode="&#xdd;" horiz-adv-x="1488" d="M217 1489h440l201 -594l389 594h387l-657 -957l-105 -532h-432l113 573zM817 1606l139 325h383l-233 -325h-289z" />
<glyph unicode="&#xde;" horiz-adv-x="1400" d="M33 0l289 1489h432l-45 -234h161q241 0 377.5 -108t136.5 -297q0 -143 -58 -266t-159 -193q-153 -106 -415 -106q-135 0 -228 22l-59 -307h-432zM578 584q87 -17 151 -17q118 0 174 56q31 29 49.5 81.5t18.5 110.5q0 61 -44 95t-124 34h-156z" />
<glyph unicode="&#xdf;" horiz-adv-x="1337" d="M-63 -412l276 1475q46 245 203 365t432 120q215 0 337 -82.5t122 -228.5q0 -89 -42.5 -155.5t-160.5 -161.5q-67 -55 -86 -77t-19 -48q0 -23 17 -44.5t82 -78.5q84 -73 117.5 -137t33.5 -150q0 -181 -128 -291t-339 -110q-160 0 -268 57l49 250q60 -26 95 -35.5t75 -9.5 q65 0 100 25.5t35 72.5q0 32 -12 50t-65 63q-83 72 -116.5 130.5t-33.5 129.5q0 78 32.5 136.5t131.5 160.5q73 75 94 108t21 74t-30.5 63.5t-84.5 22.5q-88 0 -133.5 -49.5t-67.5 -167.5l-276 -1477h-391z" />
<glyph unicode="&#xe0;" horiz-adv-x="1288" d="M51 340q0 151 42 309t106 250q78 114 189.5 174t246.5 60q186 0 303 -123l74 94h252l-148 -764q-6 -27 -6 -41q0 -45 47 -45q13 0 43 6l-45 -246q-83 -34 -190 -34q-117 0 -175 41.5t-77 138.5q-91 -103 -175 -148t-184 -45q-146 0 -224.5 96.5t-78.5 276.5zM453 373 q0 -140 100 -140q40 0 77 18.5t89 65.5l102 519q-49 24 -106 24q-66 0 -117.5 -35.5t-77.5 -101.5q-27 -65 -47 -170t-20 -180zM512 1561h377l78 -328h-283z" />
<glyph unicode="&#xe1;" horiz-adv-x="1288" d="M51 340q0 151 42 309t106 250q78 114 189.5 174t246.5 60q186 0 303 -123l74 94h252l-148 -764q-6 -27 -6 -41q0 -45 47 -45q13 0 43 6l-45 -246q-83 -34 -190 -34q-117 0 -175 41.5t-77 138.5q-91 -103 -175 -148t-184 -45q-146 0 -224.5 96.5t-78.5 276.5zM453 373 q0 -140 100 -140q40 0 77 18.5t89 65.5l102 519q-49 24 -106 24q-66 0 -117.5 -35.5t-77.5 -101.5q-27 -65 -47 -170t-20 -180zM610 1233l142 328h381l-234 -328h-289z" />
<glyph unicode="&#xe2;" horiz-adv-x="1288" d="M51 340q0 151 42 309t106 250q78 114 189.5 174t246.5 60q186 0 303 -123l74 94h252l-148 -764q-6 -27 -6 -41q0 -45 47 -45q13 0 43 6l-45 -246q-83 -34 -190 -34q-117 0 -175 41.5t-77 138.5q-91 -103 -175 -148t-184 -45q-146 0 -224.5 96.5t-78.5 276.5zM403 1233 l275 326h307l166 -326h-240l-106 117l-154 -117h-248zM453 373q0 -140 100 -140q40 0 77 18.5t89 65.5l102 519q-49 24 -106 24q-66 0 -117.5 -35.5t-77.5 -101.5q-27 -65 -47 -170t-20 -180z" />
<glyph unicode="&#xe3;" horiz-adv-x="1288" d="M51 340q0 151 42 309t106 250q78 114 189.5 174t246.5 60q186 0 303 -123l74 94h252l-148 -764q-6 -27 -6 -41q0 -45 47 -45q13 0 43 6l-45 -246q-83 -34 -190 -34q-117 0 -175 41.5t-77 138.5q-91 -103 -175 -148t-184 -45q-146 0 -224.5 96.5t-78.5 276.5zM418 1386 q67 89 128.5 125.5t143.5 36.5q53 0 141 -26q82 -25 121 -25q38 0 63.5 10t76.5 45l104 -157q-60 -86 -124 -125t-144 -39q-56 0 -142 26q-82 25 -120 25q-37 0 -65 -10.5t-79 -42.5zM453 373q0 -140 100 -140q40 0 77 18.5t89 65.5l102 519q-49 24 -106 24 q-66 0 -117.5 -35.5t-77.5 -101.5q-27 -65 -47 -170t-20 -180z" />
<glyph unicode="&#xe4;" horiz-adv-x="1288" d="M51 340q0 151 42 309t106 250q78 114 189.5 174t246.5 60q186 0 303 -123l74 94h252l-148 -764q-6 -27 -6 -41q0 -45 47 -45q13 0 43 6l-45 -246q-83 -34 -190 -34q-117 0 -175 41.5t-77 138.5q-91 -103 -175 -148t-184 -45q-146 0 -224.5 96.5t-78.5 276.5zM399 1391 q0 83 54.5 136.5t138.5 53.5q75 0 124.5 -49t49.5 -123q0 -82 -54.5 -136t-136.5 -54q-77 0 -126.5 48.5t-49.5 123.5zM453 373q0 -140 100 -140q40 0 77 18.5t89 65.5l102 519q-49 24 -106 24q-66 0 -117.5 -35.5t-77.5 -101.5q-27 -65 -47 -170t-20 -180zM852 1393 q0 79 55 133.5t135 54.5q77 0 127 -48.5t50 -123.5q0 -82 -54.5 -136t-136.5 -54q-78 0 -127 48.5t-49 125.5z" />
<glyph unicode="&#xe5;" horiz-adv-x="1288" d="M51 340q0 151 42 309t106 250q78 114 189.5 174t246.5 60q186 0 303 -123l74 94h252l-148 -764q-6 -27 -6 -41q0 -45 47 -45q13 0 43 6l-45 -246q-83 -34 -190 -34q-117 0 -175 41.5t-77 138.5q-91 -103 -175 -148t-184 -45q-146 0 -224.5 96.5t-78.5 276.5zM453 373 q0 -140 100 -140q40 0 77 18.5t89 65.5l102 519q-49 24 -106 24q-66 0 -117.5 -35.5t-77.5 -101.5q-27 -65 -47 -170t-20 -180zM565 1450q0 107 75 177.5t189 70.5q109 0 178.5 -64.5t69.5 -165.5q0 -109 -74 -179t-188 -70q-112 0 -181 64t-69 167zM723 1448 q0 -44 23.5 -68t66.5 -24q50 0 78.5 30t28.5 82q0 44 -24 68.5t-67 24.5q-49 0 -77.5 -30t-28.5 -83z" />
<glyph unicode="&#xe6;" horiz-adv-x="1794" d="M20 229q0 68 18.5 136.5t47.5 109.5q50 73 172 110.5t334 43.5l125 4l10 53q6 30 6 59q0 52 -34.5 74.5t-112.5 22.5q-76 0 -146 -12t-241 -54l57 297q220 70 416 70q128 0 202.5 -27t120.5 -90q75 61 162.5 89t204.5 28q197 0 304.5 -83.5t107.5 -236.5 q0 -240 -236 -325q-140 -52 -451 -58q-2 -20 -2 -39q0 -80 44 -110.5t159 -30.5q83 0 145.5 12t194.5 52l-53 -283q-119 -40 -206.5 -57t-184.5 -17q-173 0 -280 50.5t-169 160.5q-100 -109 -206.5 -160t-233.5 -51q-132 0 -203.5 68t-71.5 194zM408 297q0 -72 86 -72 q83 0 157 74l33 166l-82 -2q-76 -1 -111.5 -10t-52.5 -31q-30 -38 -30 -125zM1114 647q126 7 186.5 19t84.5 34t24 66q0 108 -104 108q-78 0 -121.5 -51.5t-69.5 -175.5z" />
<glyph unicode="&#xe7;" horiz-adv-x="1034" d="M63 420q0 174 56 324t155 243q172 156 463 156q96 0 164.5 -14t151.5 -50l-56 -282q-73 32 -121.5 43.5t-109.5 11.5q-180 0 -242 -131q-26 -52 -43.5 -134t-17.5 -147q0 -180 190 -180q63 0 114 11t159 48l-54 -278q-101 -47 -204 -64l-97 -323h-360l174 330 q-155 34 -238.5 147.5t-83.5 288.5z" />
<glyph unicode="&#xe8;" horiz-adv-x="1167" d="M57 389q0 168 51 317t142 244q181 193 477 193q195 0 306.5 -87.5t111.5 -242.5q0 -126 -75 -213t-216 -127q-86 -22 -169.5 -32t-227.5 -13v-12q0 -92 43 -124t166 -32q79 0 140 12t195 52l-55 -283q-123 -42 -208 -58t-185 -16q-242 0 -369 108.5t-127 313.5zM451 1561 h376l78 -328h-282zM485 635q173 10 234 37t61 92q0 110 -104 110q-80 0 -122.5 -52.5t-68.5 -186.5z" />
<glyph unicode="&#xe9;" horiz-adv-x="1167" d="M57 389q0 168 51 317t142 244q181 193 477 193q195 0 306.5 -87.5t111.5 -242.5q0 -126 -75 -213t-216 -127q-86 -22 -169.5 -32t-227.5 -13v-12q0 -92 43 -124t166 -32q79 0 140 12t195 52l-55 -283q-123 -42 -208 -58t-185 -16q-242 0 -369 108.5t-127 313.5zM485 635 q173 10 234 37t61 92q0 110 -104 110q-80 0 -122.5 -52.5t-68.5 -186.5zM557 1233l141 328h381l-233 -328h-289z" />
<glyph unicode="&#xea;" horiz-adv-x="1167" d="M57 389q0 168 51 317t142 244q181 193 477 193q195 0 306.5 -87.5t111.5 -242.5q0 -126 -75 -213t-216 -127q-86 -22 -169.5 -32t-227.5 -13v-12q0 -92 43 -124t166 -32q79 0 140 12t195 52l-55 -283q-123 -42 -208 -58t-185 -16q-242 0 -369 108.5t-127 313.5zM342 1233 l274 326h308l166 -326h-240l-107 117l-153 -117h-248zM485 635q173 10 234 37t61 92q0 110 -104 110q-80 0 -122.5 -52.5t-68.5 -186.5z" />
<glyph unicode="&#xeb;" horiz-adv-x="1169" d="M57 389q0 168 51 317t142 244q181 193 477 193q195 0 306.5 -87.5t111.5 -242.5q0 -126 -75 -213t-216 -127q-86 -22 -169.5 -32t-227.5 -13v-12q0 -92 43 -124t166 -32q79 0 140 12t195 52l-55 -283q-123 -42 -208 -58t-185 -16q-242 0 -369 108.5t-127 313.5zM338 1391 q0 83 54.5 136.5t137.5 53.5q75 0 125 -49t50 -123q0 -82 -54.5 -136t-136.5 -54q-77 0 -126.5 48.5t-49.5 123.5zM485 635q173 10 234 37t61 92q0 110 -104 110q-80 0 -122.5 -52.5t-68.5 -186.5zM791 1393q0 79 55 133.5t135 54.5q77 0 126.5 -48.5t49.5 -123.5 q0 -82 -54 -136t-136 -54q-78 0 -127 48.5t-49 125.5z" />
<glyph unicode="&#xec;" horiz-adv-x="690" d="M72 0l159 817h-125l54 268h94q121 0 191 12.5t114 43.5l119 -25l-217 -1116h-389zM199 1561h376l78 -328h-282z" />
<glyph unicode="&#xed;" horiz-adv-x="690" d="M72 0l159 817h-125l54 268h94q121 0 191 12.5t114 43.5l119 -25l-217 -1116h-389zM326 1233l141 328h381l-234 -328h-288z" />
<glyph unicode="&#xee;" horiz-adv-x="690" d="M72 0l159 817h-125l54 268h94q121 0 191 12.5t114 43.5l119 -25l-217 -1116h-389zM82 1233l274 326h308l165 -326h-239l-107 117l-153 -117h-248z" />
<glyph unicode="&#xef;" horiz-adv-x="690" d="M72 0l159 817h-125l54 268h94q121 0 191 12.5t114 43.5l119 -25l-217 -1116h-389zM80 1391q0 83 54.5 136.5t137.5 53.5q75 0 124.5 -49t49.5 -123q0 -82 -54 -136t-136 -54q-77 0 -126.5 48.5t-49.5 123.5zM532 1393q0 79 55.5 133.5t135.5 54.5q77 0 126.5 -48.5 t49.5 -123.5q0 -82 -54 -136t-136 -54q-78 0 -127.5 48.5t-49.5 125.5z" />
<glyph unicode="&#xf0;" horiz-adv-x="1263" d="M63 410q0 142 40 279.5t106 223.5q73 94 181 143.5t239 49.5q106 0 170 -45q-24 79 -74 168l-289 -72l35 184l158 39q-76 98 -158 168h391q58 -48 96 -84l297 74l-34 -184l-148 -37q146 -239 146 -500q0 -130 -32.5 -281t-80.5 -245q-82 -158 -223 -241t-328 -83 q-230 0 -361 118.5t-131 324.5zM455 381q0 -72 28 -106.5t88 -34.5q78 0 121.5 45t69.5 155q43 191 43 293q0 72 -28 104.5t-91 32.5q-75 0 -113 -42t-67 -158q-51 -187 -51 -289z" />
<glyph unicode="&#xf1;" horiz-adv-x="1259" d="M2 0l205 1063q232 6 309 74l96 -21l-41 -205q112 114 214 166.5t208 52.5q108 0 164.5 -57.5t56.5 -167.5q0 -49 -14 -131l-149 -774h-394l127 668q11 54 11 65q0 82 -80 82q-76 0 -176 -76l-146 -739h-391zM381 1386q67 89 128.5 125.5t143.5 36.5q54 0 142 -26 q82 -25 120 -25t63.5 10t76.5 45l104 -157q-60 -86 -124 -125t-144 -39q-55 0 -141 26q-82 25 -121 25q-37 0 -65 -10.5t-79 -42.5z" />
<glyph unicode="&#xf2;" horiz-adv-x="1259" d="M59 412q0 149 53 301t136 243q175 187 471 187q222 0 351.5 -116t129.5 -314q0 -125 -36 -261.5t-93 -222.5q-172 -262 -534 -262q-223 0 -350.5 119t-127.5 326zM455 381q0 -73 28 -107t90 -34q71 0 112.5 39t66.5 129q20 71 36.5 173.5t16.5 159.5q0 67 -28.5 99 t-88.5 32q-74 0 -112.5 -39.5t-67.5 -146.5q-22 -77 -37.5 -168t-15.5 -137zM477 1561h377l78 -328h-283z" />
<glyph unicode="&#xf3;" horiz-adv-x="1259" d="M59 412q0 149 53 301t136 243q175 187 471 187q222 0 351.5 -116t129.5 -314q0 -125 -36 -261.5t-93 -222.5q-172 -262 -534 -262q-223 0 -350.5 119t-127.5 326zM455 381q0 -73 28 -107t90 -34q71 0 112.5 39t66.5 129q20 71 36.5 173.5t16.5 159.5q0 67 -28.5 99 t-88.5 32q-74 0 -112.5 -39.5t-67.5 -146.5q-22 -77 -37.5 -168t-15.5 -137zM596 1233l141 328h381l-233 -328h-289z" />
<glyph unicode="&#xf4;" horiz-adv-x="1259" d="M59 412q0 149 53 301t136 243q175 187 471 187q222 0 351.5 -116t129.5 -314q0 -125 -36 -261.5t-93 -222.5q-172 -262 -534 -262q-223 0 -350.5 119t-127.5 326zM367 1233l274 326h307l166 -326h-240l-106 117l-154 -117h-247zM455 381q0 -73 28 -107t90 -34 q71 0 112.5 39t66.5 129q20 71 36.5 173.5t16.5 159.5q0 67 -28.5 99t-88.5 32q-74 0 -112.5 -39.5t-67.5 -146.5q-22 -77 -37.5 -168t-15.5 -137z" />
<glyph unicode="&#xf5;" horiz-adv-x="1259" d="M59 412q0 149 53 301t136 243q175 187 471 187q222 0 351.5 -116t129.5 -314q0 -125 -36 -261.5t-93 -222.5q-172 -262 -534 -262q-223 0 -350.5 119t-127.5 326zM383 1386q67 89 128.5 125.5t143.5 36.5q54 0 142 -26q82 -25 121 -25q38 0 63 10t76 45l104 -157 q-60 -86 -124 -125t-144 -39q-55 0 -141 26q-82 25 -121 25q-37 0 -65 -10.5t-79 -42.5zM455 381q0 -73 28 -107t90 -34q71 0 112.5 39t66.5 129q20 71 36.5 173.5t16.5 159.5q0 67 -28.5 99t-88.5 32q-74 0 -112.5 -39.5t-67.5 -146.5q-22 -77 -37.5 -168t-15.5 -137z" />
<glyph unicode="&#xf6;" horiz-adv-x="1259" d="M59 412q0 149 53 301t136 243q175 187 471 187q222 0 351.5 -116t129.5 -314q0 -125 -36 -261.5t-93 -222.5q-172 -262 -534 -262q-223 0 -350.5 119t-127.5 326zM367 1391q0 83 54.5 136.5t137.5 53.5q75 0 124.5 -49t49.5 -123q0 -82 -54 -136t-136 -54 q-77 0 -126.5 48.5t-49.5 123.5zM455 381q0 -73 28 -107t90 -34q71 0 112.5 39t66.5 129q20 71 36.5 173.5t16.5 159.5q0 67 -28.5 99t-88.5 32q-74 0 -112.5 -39.5t-67.5 -146.5q-22 -77 -37.5 -168t-15.5 -137zM819 1393q0 79 55.5 133.5t135.5 54.5q77 0 126.5 -48.5 t49.5 -123.5q0 -82 -54.5 -136t-136.5 -54q-78 0 -127 48.5t-49 125.5z" />
<glyph unicode="&#xf7;" d="M121 549l53 270h987l-53 -270h-987zM356 264q0 82 56 136.5t139 54.5t137.5 -55t54.5 -140q0 -83 -54.5 -137.5t-137.5 -54.5q-85 0 -140 55t-55 141zM537 1112q0 82 55.5 136.5t138.5 54.5t138 -55t55 -138q0 -85 -55 -140t-138 -55q-85 0 -139.5 55.5t-54.5 141.5z" />
<glyph unicode="&#xf8;" horiz-adv-x="1259" d="M-61 -92l204 223q-86 118 -86 279q0 151 53 303t136 243q175 187 471 187q169 0 291 -70l92 101h215l-191 -207q76 -115 76 -256q0 -123 -36.5 -260t-92.5 -222q-83 -127 -219 -194.5t-309 -67.5q-163 0 -279 64l-112 -123h-213zM446 463l347 375q-33 41 -107 41 q-77 0 -118 -41.5t-72 -149.5q-35 -119 -50 -225zM477 262q36 -31 96 -31q103 0 152.5 83t81.5 309z" />
<glyph unicode="&#xf9;" horiz-adv-x="1247" d="M51 240q0 61 17 147l135 690l397 33l-129 -674q-8 -39 -8 -71q0 -43 21 -66t59 -23q62 0 155 66l144 735l401 33l-217 -1110h-268l-56 184q-110 -114 -204 -164.5t-195 -50.5q-121 0 -186.5 70t-65.5 201zM475 1561h377l78 -328h-283z" />
<glyph unicode="&#xfa;" horiz-adv-x="1247" d="M51 240q0 61 17 147l135 690l397 33l-129 -674q-8 -39 -8 -71q0 -43 21 -66t59 -23q62 0 155 66l144 735l401 33l-217 -1110h-268l-56 184q-110 -114 -204 -164.5t-195 -50.5q-121 0 -186.5 70t-65.5 201zM623 1233l141 328h381l-234 -328h-288z" />
<glyph unicode="&#xfb;" horiz-adv-x="1247" d="M51 240q0 61 17 147l135 690l397 33l-129 -674q-8 -39 -8 -71q0 -43 21 -66t59 -23q62 0 155 66l144 735l401 33l-217 -1110h-268l-56 184q-110 -114 -204 -164.5t-195 -50.5q-121 0 -186.5 70t-65.5 201zM379 1233l274 326h308l165 -326h-239l-107 117l-153 -117h-248z " />
<glyph unicode="&#xfc;" horiz-adv-x="1247" d="M51 240q0 61 17 147l135 690l397 33l-129 -674q-8 -39 -8 -71q0 -43 21 -66t59 -23q62 0 155 66l144 735l401 33l-217 -1110h-268l-56 184q-110 -114 -204 -164.5t-195 -50.5q-121 0 -186.5 70t-65.5 201zM377 1391q0 83 54.5 136.5t137.5 53.5q75 0 124.5 -49t49.5 -123 q0 -82 -54 -136t-136 -54q-77 0 -126.5 48.5t-49.5 123.5zM829 1393q0 79 55.5 133.5t135.5 54.5q77 0 126.5 -48.5t49.5 -123.5q0 -82 -54 -136t-136 -54q-78 0 -127.5 48.5t-49.5 125.5z" />
<glyph unicode="&#xfd;" horiz-adv-x="1187" d="M8 -412l336 523l-217 993h391l92 -551l318 551h352l-920 -1516h-352zM586 1233l141 328h381l-234 -328h-288z" />
<glyph unicode="&#xfe;" horiz-adv-x="1288" d="M-78 -412l367 1889q234 6 311 71h94l-121 -620q101 105 192.5 153.5t190.5 48.5q138 0 212.5 -83t74.5 -238t-47 -338t-113 -281q-146 -223 -417 -223q-151 0 -260 90l-93 -469h-391zM442 248q56 -23 138 -23q58 0 97 24.5t68 78.5q29 52 56.5 177.5t27.5 203.5 q0 114 -104 114q-46 0 -85 -19.5t-105 -76.5z" />
<glyph unicode="&#xff;" horiz-adv-x="1187" d="M8 -412l336 523l-217 993h391l92 -551l318 551h352l-920 -1516h-352zM332 1391q0 83 54.5 136.5t137.5 53.5q75 0 124.5 -49t49.5 -123q0 -82 -54 -136t-136 -54q-77 0 -126.5 48.5t-49.5 123.5zM784 1393q0 79 55.5 133.5t135.5 54.5q77 0 126.5 -48.5t49.5 -123.5 q0 -82 -54 -136t-136 -54q-78 0 -127.5 48.5t-49.5 125.5z" />
<glyph unicode="&#x152;" horiz-adv-x="2299" d="M100 606q0 197 68 382t186 308q109 114 248 169t322 55q142 0 272 -31h1161l-65 -334h-635l-47 -244h495l-59 -311h-498l-51 -268h692l-94 -332h-1130q-110 -29 -228 -29q-292 0 -464.5 172.5t-172.5 462.5zM539 532q0 -262 225 -262q97 0 168.5 52t111.5 151 q43 99 74 250t31 256q0 117 -58.5 178.5t-170.5 61.5q-98 0 -170.5 -54t-112.5 -157q-38 -101 -68 -246t-30 -230z" />
<glyph unicode="&#x153;" horiz-adv-x="1882" d="M59 399q0 105 29 227.5t74 207.5q79 149 223 229t332 80q116 0 195.5 -35.5t138.5 -112.5q84 78 177 113t220 35q197 0 304.5 -83.5t107.5 -236.5q0 -131 -72.5 -220t-208.5 -126q-152 -43 -410 -49v-18q0 -87 44 -118.5t165 -31.5q78 0 145.5 13t190.5 51l-55 -283 q-215 -74 -387 -74q-130 0 -214.5 33.5t-144.5 108.5q-79 -74 -167 -108t-205 -34q-220 0 -351 117t-131 315zM455 383q0 -76 28.5 -110.5t91.5 -34.5q68 0 110 38.5t67 124.5q17 60 35 170.5t18 157.5q0 77 -27.5 110t-91.5 33q-70 0 -109 -40.5t-67 -141.5 q-21 -73 -38 -169t-17 -138zM1198 635q172 11 234.5 38t62.5 93q0 108 -104 108q-108 0 -156 -110q-18 -40 -37 -129z" />
<glyph unicode="&#x178;" horiz-adv-x="1488" d="M217 1489h440l201 -594l389 594h387l-657 -957l-105 -532h-432l113 573zM569 1759q0 83 55 138t138 55q75 0 124.5 -49.5t49.5 -124.5q0 -82 -54.5 -136.5t-136.5 -54.5q-76 0 -126 49t-50 123zM1022 1763q0 79 55 134t135 55q76 0 126.5 -49.5t50.5 -124.5 q0 -82 -54.5 -136.5t-136.5 -54.5q-78 0 -127 49t-49 127z" />
<glyph unicode="&#x2c6;" horiz-adv-x="1024" d="M270 1233l275 326h307l166 -326h-240l-106 117l-154 -117h-248z" />
<glyph unicode="&#x2dc;" horiz-adv-x="1024" d="M285 1386q67 89 128.5 125.5t143.5 36.5q53 0 141 -26q82 -25 121 -25q38 0 63 10t76 45l105 -157q-60 -86 -124 -125t-144 -39q-56 0 -142 26q-82 25 -121 25q-37 0 -64.5 -10.5t-78.5 -42.5z" />
<glyph unicode="&#x2000;" horiz-adv-x="1033" />
<glyph unicode="&#x2001;" horiz-adv-x="2066" />
<glyph unicode="&#x2002;" horiz-adv-x="1033" />
<glyph unicode="&#x2003;" horiz-adv-x="2066" />
<glyph unicode="&#x2004;" horiz-adv-x="688" />
<glyph unicode="&#x2005;" horiz-adv-x="516" />
<glyph unicode="&#x2006;" horiz-adv-x="344" />
<glyph unicode="&#x2007;" horiz-adv-x="344" />
<glyph unicode="&#x2008;" horiz-adv-x="258" />
<glyph unicode="&#x2009;" horiz-adv-x="413" />
<glyph unicode="&#x200a;" horiz-adv-x="114" />
<glyph unicode="&#x2010;" horiz-adv-x="614" d="M47 539l57 292h514l-55 -292h-516z" />
<glyph unicode="&#x2011;" horiz-adv-x="614" d="M47 539l57 292h514l-55 -292h-516z" />
<glyph unicode="&#x2012;" horiz-adv-x="614" d="M47 539l57 292h514l-55 -292h-516z" />
<glyph unicode="&#x2013;" d="M121 549l53 270h987l-53 -270h-987z" />
<glyph unicode="&#x2014;" d="M-137 549l53 270h1503l-53 -270h-1503z" />
<glyph unicode="&#x2018;" horiz-adv-x="532" d="M180 1114q0 165 113 281q68 69 154 106.5t227 57.5l-27 -129q-186 -48 -235 -189q161 -9 161 -154q0 -82 -55 -133t-143 -51q-89 0 -142 57t-53 154z" />
<glyph unicode="&#x2019;" horiz-adv-x="530" d="M119 893l24 129q189 46 238 188q-162 9 -162 152q0 82 55.5 134t143.5 52q89 0 141.5 -57.5t52.5 -153.5q0 -165 -112 -280q-68 -69 -154 -106.5t-227 -57.5z" />
<glyph unicode="&#x201a;" horiz-adv-x="530" d="M-104 -256l24 129q189 48 238 186q-162 12 -162 154q0 82 55.5 134t143.5 52q89 0 141.5 -57.5t52.5 -153.5q0 -164 -113 -280q-67 -69 -152.5 -105.5t-227.5 -58.5z" />
<glyph unicode="&#x201c;" horiz-adv-x="1036" d="M178 1114q0 165 113 281q68 69 154 106.5t227 57.5l-27 -129q-186 -48 -235 -189q161 -9 161 -154q0 -82 -55 -133t-143 -51q-89 0 -142 57t-53 154zM684 1114q0 165 113 281q68 69 154 106.5t227 57.5l-27 -129q-186 -48 -236 -189q162 -9 162 -154q0 -82 -55 -133 t-143 -51q-89 0 -142 57t-53 154z" />
<glyph unicode="&#x201d;" horiz-adv-x="1036" d="M121 893l24 129q189 46 238 188q-162 9 -162 152q0 82 55.5 134t143.5 52q89 0 141.5 -57.5t52.5 -153.5q0 -165 -112 -280q-68 -69 -154 -106.5t-227 -57.5zM627 893l24 129q190 47 238 188q-162 9 -162 152q0 82 55.5 134t143.5 52q89 0 141.5 -57.5t52.5 -153.5 q0 -165 -112 -280q-67 -69 -153 -105.5t-228 -58.5z" />
<glyph unicode="&#x201e;" horiz-adv-x="1036" d="M-102 -256l24 129q189 48 238 186q-162 12 -162 154q0 82 55.5 134t143.5 52q89 0 141.5 -57.5t52.5 -153.5q0 -165 -112 -280q-67 -69 -153 -105.5t-228 -58.5zM403 -256l25 129q189 48 238 186q-162 12 -162 154q0 82 55 134t143 52q89 0 142 -57.5t53 -153.5 q0 -164 -113 -280q-67 -69 -153 -105.5t-228 -58.5z" />
<glyph unicode="&#x2022;" d="M336 711q0 127 89 215t218 88q131 0 219 -88t88 -219t-88.5 -219.5t-218.5 -88.5q-132 0 -219.5 89t-87.5 223z" />
<glyph unicode="&#x2026;" horiz-adv-x="1843" d="M66 172q0 91 63 153t154 62q88 0 145 -56.5t57 -144.5q0 -92 -62.5 -154.5t-154.5 -62.5q-89 0 -145.5 57t-56.5 146zM639 172q0 91 63 153t154 62q88 0 145.5 -56.5t57.5 -144.5q0 -92 -62.5 -154.5t-154.5 -62.5q-89 0 -146 57t-57 146zM1212 172q0 90 63.5 152.5 t154.5 62.5q88 0 145 -56.5t57 -144.5q0 -92 -62.5 -154.5t-154.5 -62.5q-89 0 -146 57t-57 146z" />
<glyph unicode="&#x202f;" horiz-adv-x="413" />
<glyph unicode="&#x2039;" horiz-adv-x="659" d="M61 465l33 164l307 348h269l-279 -449l109 -442h-246z" />
<glyph unicode="&#x203a;" horiz-adv-x="659" d="M-16 86l278 449l-108 442h245l193 -379l-35 -164l-305 -348h-268z" />
<glyph unicode="&#x205f;" horiz-adv-x="516" />
<glyph unicode="&#x20ac;" d="M68 483l34 191h123q2 15 11 57q10 53 12 60h-123l37 190h125q35 116 74 184.5t104 132.5q188 185 518 185q173 0 315 -60l-59 -309q-65 32 -119.5 44.5t-122.5 12.5q-110 0 -171 -43t-101 -147h344l-37 -190h-350q-8 -46 -23 -117h351l-37 -191h-342q-2 -14 -2 -30 q0 -89 45 -129.5t145 -40.5q115 0 277 47l-58 -293q-142 -68 -305 -68q-154 0 -270 46.5t-182 134.5q-43 59 -62.5 130.5t-19.5 174.5v28h-131z" />
<glyph unicode="&#x2122;" horiz-adv-x="1853" d="M180 1296l51 193h668l-39 -193h-211l-106 -551h-256l106 551h-213zM856 745l164 744h301l63 -348l209 348h314l-146 -744h-256l82 429l-221 -365h-133l-72 354l-92 -418h-213z" />
<glyph unicode="&#x25fc;" horiz-adv-x="1105" d="M0 0v1106h1106v-1106h-1106z" />
</font>
</defs>
</svg>
