<?xml version="1.0" standalone="no"?>
<!DOCTYPE svg PUBLIC "-//W3C//DTD SVG 1.1//EN" "http://www.w3.org/Graphics/SVG/1.1/DTD/svg11.dtd" >
<svg xmlns="http://www.w3.org/2000/svg">
<metadata></metadata>
<defs>
<font id="db_sansregular" horiz-adv-x="1228" >
<font-face units-per-em="2048" ascent="1638" descent="-410" />
<missing-glyph horiz-adv-x="614" />
<glyph unicode="&#xfb01;" horiz-adv-x="1253" d="M68 924v137h157v80q0 196 94.5 302.5t268.5 106.5h90v-151q-33 8 -62 8q-200 0 -200 -250v-96h393q162 0 225 24h43v-1085h-190v924h-471v-924h-191v924h-157zM854 1370q0 54 35.5 88.5t89.5 34.5q55 0 90 -34.5t35 -90.5t-35 -90.5t-90 -34.5q-56 0 -90.5 35t-34.5 92z " />
<glyph unicode="&#xfb02;" horiz-adv-x="1263" d="M68 924v137h157v43q0 232 119.5 340t376.5 108q91 0 163.5 -9t192.5 -36v-1507h-190v1395q-98 12 -168 12q-158 0 -230.5 -62.5t-72.5 -199.5v-84h235v-137h-235v-924h-191v924h-157z" />
<glyph unicode="&#xfb03;" horiz-adv-x="1914" d="M68 924v137h157v80q0 184 95 284.5t268 100.5h90v-152q-33 8 -64 8q-198 0 -198 -225v-96h471v80q0 196 94.5 302.5t267.5 106.5h90v-151q-33 8 -61 8q-201 0 -201 -250v-96h393q163 0 226 24h43v-1085h-191v924h-471v-924h-190v924h-471v-924h-191v924h-157zM1516 1370 q0 54 35 88.5t89 34.5q56 0 90.5 -34.5t34.5 -90.5t-34.5 -90.5t-90.5 -34.5t-90 35t-34 92z" />
<glyph unicode="&#xfb04;" horiz-adv-x="1925" d="M68 924v137h157v80q0 184 95 284.5t268 100.5h90v-152q-33 8 -64 8q-198 0 -198 -225v-96h471v43q0 232 119.5 340t375.5 108q92 0 165 -9.5t192 -35.5v-1507h-191v1395q-98 12 -168 12q-158 0 -230.5 -62.5t-72.5 -199.5v-84h236v-137h-236v-924h-190v924h-471v-924 h-191v924h-157z" />
<glyph horiz-adv-x="2048" />
<glyph horiz-adv-x="2048" />
<glyph unicode="&#xd;" horiz-adv-x="2048" />
<glyph unicode=" "  horiz-adv-x="614" />
<glyph unicode="&#x09;" horiz-adv-x="614" />
<glyph unicode="&#xa0;" horiz-adv-x="614" />
<glyph unicode="!" horiz-adv-x="663" d="M182 119q0 60 40.5 99.5t101.5 39.5q62 0 101.5 -40t39.5 -101q0 -62 -40 -102t-101 -40q-63 0 -102.5 40.5t-39.5 103.5zM209 1489h229l-53 -1040h-123z" />
<glyph unicode="&#x22;" horiz-adv-x="839" d="M139 1489h205l-43 -537h-119zM496 1489h204l-43 -537h-118z" />
<glyph unicode="#" d="M131 453v159h217l43 238h-188v160h219l82 436h139l-82 -436h209l82 436h139l-82 -436h187v-160h-217l-43 -238h188v-159h-219l-84 -453h-139l84 453h-209l-84 -453h-140l84 453h-186zM487 612h209l43 238h-209z" />
<glyph unicode="$" d="M133 66v163q168 -85 318 -104l81 555q-109 58 -165 94.5t-95 73.5q-112 112 -112 260q0 170 133 272.5t356 102.5l23 155h129l-25 -165q144 -23 236 -68v-160q-132 56 -256 78l-78 -522q236 -116 325 -210.5t89 -230.5q0 -182 -143 -286.5t-392 -104.5l-37 -262h-131 l41 273q-156 16 -297 86zM338 1126q0 -80 46.5 -136t172.5 -128l70 471q-65 -3 -89.5 -6.5t-54.5 -13.5q-70 -23 -107.5 -71t-37.5 -116zM580 119q321 9 321 231q0 80 -51.5 136t-196.5 132z" />
<glyph unicode="%" horiz-adv-x="1622" d="M76 1112q0 173 82.5 270t230.5 97q149 0 231 -97t82 -274t-82 -274t-231 -97q-151 0 -232 97.5t-81 277.5zM182 0l1110 1446h148l-1110 -1446h-148zM244 1079q0 -118 34 -170.5t111 -52.5t111.5 52.5t34.5 170.5v58q0 118 -34.5 170.5t-111.5 52.5t-111 -52.5t-34 -170.5 v-58zM920 348q0 173 82.5 270t230.5 97q149 0 231 -97t82 -274t-82 -274t-231 -97q-151 0 -232 97.5t-81 277.5zM1087 315q0 -118 34.5 -170.5t111.5 -52.5t111 52.5t34 170.5v58q0 118 -34 170.5t-111 52.5t-111.5 -52.5t-34.5 -170.5v-58z" />
<glyph unicode="&#x26;" horiz-adv-x="1474" d="M90 406q0 157 80.5 261t267.5 187q-139 184 -139 336q0 146 102.5 240t260.5 94t259 -91.5t101 -234.5q0 -121 -72 -210t-235 -169l315 -411q24 40 66 129l143 311h180l-227 -479q-20 -44 -57 -99q70 -85 102.5 -109t83.5 -24q33 0 100 19v-154q-62 -33 -135 -33 q-88 0 -152.5 34.5t-136.5 119.5q-104 -82 -205.5 -118t-224.5 -36q-227 0 -352 115t-125 322zM301 408q0 -279 289 -279q88 0 161.5 28t149.5 91l-377 502q-127 -69 -175 -142.5t-48 -199.5zM502 1200q0 -130 131 -278q101 60 143.5 121t42.5 149q0 86 -42.5 135t-117.5 49 q-74 0 -115.5 -46.5t-41.5 -129.5z" />
<glyph unicode="'" horiz-adv-x="483" d="M139 1489h205l-43 -537h-119z" />
<glyph unicode="(" horiz-adv-x="860" d="M180 623q0 289 102.5 516.5t327.5 437.5h158q-105 -110 -168.5 -198t-112.5 -195q-59 -131 -83.5 -259t-24.5 -302q0 -175 24.5 -303t83.5 -259q49 -107 112.5 -195t168.5 -198h-158q-225 210 -327.5 438t-102.5 517z" />
<glyph unicode=")" horiz-adv-x="860" d="M92 -332q214 221 301.5 436.5t87.5 518.5q0 302 -87.5 517.5t-301.5 436.5h158q225 -210 327.5 -437.5t102.5 -516.5t-102.5 -517t-327.5 -438h-158z" />
<glyph unicode="*" horiz-adv-x="800" d="M66 1059l260 92l-256 90l86 148l215 -187l-54 287h170l-53 -287l211 187l86 -148l-256 -90l260 -92l-86 -148l-215 193l53 -293h-170l56 293l-221 -193z" />
<glyph unicode="+" d="M150 610v148h380v422h168v-422h381v-148h-381v-420h-168v420h-380z" />
<glyph unicode="," horiz-adv-x="614" d="M160 -209q166 43 184 207h-18h-19q-64 0 -100.5 31.5t-36.5 87.5q0 57 38.5 94t98.5 37q78 0 126 -57.5t48 -151.5q0 -133 -88 -225t-233 -109v86z" />
<glyph unicode="-" horiz-adv-x="614" d="M55 604v154h502v-154h-502z" />
<glyph unicode="." horiz-adv-x="614" d="M166 119q0 60 40 99.5t101 39.5q62 0 102 -40t40 -101t-40.5 -101.5t-101.5 -40.5q-63 0 -102 40.5t-39 103.5z" />
<glyph unicode="/" horiz-adv-x="892" d="M-90 -332l803 1909h174l-803 -1909h-174z" />
<glyph unicode="0" d="M111 600v252q0 292 135 461.5t368 169.5t368.5 -169.5t135.5 -461.5v-252q0 -292 -135.5 -461.5t-368.5 -169.5t-368 169.5t-135 461.5zM322 588q0 -249 69 -361t223 -112t223.5 112t69.5 361v276q0 249 -69.5 361t-223.5 112t-223 -112t-69 -361v-276z" />
<glyph unicode="1" d="M154 0v131h405v1139l-338 -113v131l430 168h107v-1325h338v-131h-942z" />
<glyph unicode="2" d="M129 0v117q5 5 141 129q172 157 272.5 261t164 198.5t85 172t21.5 177.5q0 270 -260 270q-199 0 -393 -139v162q170 135 405 135q220 0 337.5 -112.5t117.5 -323.5q0 -146 -58.5 -267.5t-203.5 -273.5q-58 -59 -119.5 -116t-259.5 -236h680l-19 -154h-911z" />
<glyph unicode="3" d="M111 74q195 9 307 29t215 65q124 54 177.5 126.5t53.5 188.5q0 109 -56 159t-179 50q-98 0 -248 -30v145l51 12q118 26 187 50.5t113 60t59.5 79.5t15.5 113q0 104 -61 153.5t-191 49.5q-98 0 -185.5 -23t-203.5 -79v159q198 101 405 101q215 0 327 -90t112 -263 q0 -126 -58.5 -199.5t-206.5 -131.5q77 -11 108 -19.5t67 -29.5q147 -82 147 -267q0 -178 -114 -303.5t-337 -193.5q-113 -35 -222.5 -52t-282.5 -24v164z" />
<glyph unicode="4" d="M51 319v103l697 1102h186l-666 -1065h502v477l199 22v-499h205v-140h-205v-319h-199v319h-719z" />
<glyph unicode="5" d="M147 74q194 7 307.5 29.5t200.5 68.5q92 50 131 120.5t39 190.5q0 129 -77 186.5t-250 57.5q-132 0 -281 -37l105 756h729l-21 -152h-575l-60 -442q72 20 108 25.5t87 5.5q205 0 320.5 -106t115.5 -294q0 -186 -94 -307.5t-289 -187.5q-108 -37 -209.5 -53t-286.5 -25 v164z" />
<glyph unicode="6" d="M115 676q0 254 88.5 430t271.5 285q113 66 237.5 99.5t303.5 45.5v-164q-335 -19 -509 -169t-181 -429q82 61 163 88t185 27q221 0 338.5 -113t117.5 -327q0 -217 -135 -348.5t-358 -131.5q-253 0 -387.5 182t-134.5 525zM326 635q0 -277 74.5 -397.5t246.5 -120.5 q145 0 209 77t64 252q0 166 -61 231.5t-216 65.5q-94 0 -164.5 -24t-152.5 -84z" />
<glyph unicode="7" d="M104 1284l15 162h987v-125l-672 -1411h-205l703 1374h-828z" />
<glyph unicode="8" d="M98 375q0 133 71.5 220.5t242.5 162.5q-140 75 -200 157.5t-60 200.5q0 172 125.5 269.5t349.5 97.5q220 0 337 -89.5t117 -258.5q0 -113 -63.5 -199.5t-200.5 -159.5q100 -46 137 -67.5t72 -53.5q104 -98 104 -264q0 -195 -138.5 -308.5t-377.5 -113.5 q-241 0 -378.5 108.5t-137.5 297.5zM301 369q0 -122 81.5 -187t235.5 -65q152 0 232 62t80 181q0 82 -35 136.5t-115 97.5q-44 25 -83 42.5t-146 59.5q-4 -2 -19 -8q-119 -51 -175 -128t-56 -191zM350 1139q0 -98 67 -159t267 -146q108 65 151.5 129t43.5 159q0 109 -65 162 t-198 53q-266 0 -266 -198z" />
<glyph unicode="9" d="M98 1004q0 217 135.5 348t358.5 131q253 0 387.5 -182t134.5 -525q0 -254 -88.5 -430t-271.5 -285q-113 -66 -237.5 -99.5t-303.5 -45.5v164q335 19 509 169t181 429q-82 -61 -163 -88t-185 -27q-221 0 -339 113.5t-118 327.5zM309 1006q0 -166 61 -231.5t216 -65.5 q94 0 164.5 24t152.5 84q0 277 -74.5 397.5t-246.5 120.5q-145 0 -209 -77t-64 -252z" />
<glyph unicode=":" horiz-adv-x="614" d="M166 119q0 60 40 99.5t101 39.5q62 0 102 -40t40 -101t-40.5 -101.5t-101.5 -40.5q-63 0 -102 40.5t-39 103.5zM166 823q0 60 40 100t101 40t101.5 -40.5t40.5 -101.5t-40 -101t-102 -40q-63 0 -102 40t-39 103z" />
<glyph unicode=";" horiz-adv-x="614" d="M180 -209q167 44 185 207h-19h-18q-64 0 -101 31.5t-37 87.5q0 57 39 94t99 37q78 0 126 -57.5t48 -151.5q0 -133 -88.5 -225t-233.5 -109v86zM193 823q0 60 40 100t101 40t101 -40t40 -102q0 -61 -39.5 -101t-101.5 -40q-63 0 -102 40t-39 103z" />
<glyph unicode="&#x3c;" d="M152 592v182l903 348v-170l-750 -268l750 -268v-170z" />
<glyph unicode="=" d="M150 449v147h929v-147h-929zM150 774v148h929v-148h-929z" />
<glyph unicode="&#x3e;" d="M174 246v170l750 268l-750 268v170l903 -346v-182z" />
<glyph unicode="?" horiz-adv-x="872" d="M78 1270v172q97 44 177 63t171 19q196 0 299.5 -92t103.5 -265q0 -114 -48 -189.5t-206 -207.5q-97 -84 -124 -116.5t-27 -67.5v-137h-172v163q0 64 37 116t145 142q65 54 96 84t48 58q45 70 45 166q0 188 -211 188q-85 0 -156 -20.5t-178 -75.5zM197 119q0 60 40 99.5 t101 39.5q62 0 101.5 -40t39.5 -101q0 -62 -40 -102t-101 -40q-63 0 -102 40.5t-39 103.5z" />
<glyph unicode="@" horiz-adv-x="1730" d="M70 451q0 258 109 460t305.5 314t447.5 112q330 0 529.5 -179.5t199.5 -477.5q0 -250 -123 -401.5t-326 -151.5q-94 0 -150 33.5t-81 103.5q-117 -153 -270 -153q-101 0 -157 69.5t-56 196.5q0 78 18.5 173.5t48.5 172.5q79 199 285 199q64 0 116 -19t109 -63l47 80h121 l-86 -541q-4 -36 -4 -55q0 -80 86 -80q121 0 194.5 117t73.5 309q0 252 -157 398t-426 146q-315 0 -504 -206.5t-189 -550.5q0 -298 157 -456.5t450 -158.5q149 0 288 36t299 116v-129q-145 -77 -282.5 -111.5t-298.5 -34.5q-355 0 -564.5 198t-209.5 534zM676 360 q0 -69 23.5 -102t74.5 -33q55 0 101.5 33t99.5 107l65 393q-80 49 -159 49q-60 0 -94.5 -32.5t-59.5 -110.5q-18 -62 -34.5 -160t-16.5 -144z" />
<glyph unicode="A" horiz-adv-x="1386" d="M53 0l584 1497h121l575 -1497h-217l-164 444h-542l-166 -444h-191zM467 598h430l-213 584z" />
<glyph unicode="B" horiz-adv-x="1368" d="M205 0v1489h506q215 0 328.5 -94.5t113.5 -274.5q0 -124 -56.5 -195.5t-191.5 -121.5q91 -15 146.5 -42.5t101.5 -80.5q86 -100 86 -256q0 -205 -133.5 -314.5t-384.5 -109.5h-516zM403 150h254q103 0 156 9.5t102 37.5q113 62 113 237q0 146 -76.5 215.5t-236.5 69.5 h-312v-569zM403 868h285q134 0 195 59t61 189q0 120 -57 171.5t-189 51.5h-295v-471z" />
<glyph unicode="C" horiz-adv-x="1314" d="M111 739q0 411 213 615q179 170 479 170q197 0 366 -64v-172q-102 45 -185.5 63.5t-182.5 18.5q-247 0 -363 -152.5t-116 -478.5q0 -315 117 -465.5t360 -150.5q103 0 190.5 21.5t200.5 74.5v-166q-187 -84 -395 -84q-341 0 -525 217q-159 191 -159 553z" />
<glyph unicode="D" horiz-adv-x="1480" d="M205 0v1489h524q285 0 449 -164q190 -184 190 -573q0 -392 -190 -582q-170 -170 -457 -170h-516zM403 150h304q229 0 339.5 145.5t110.5 447.5q0 310 -108 453t-342 143h-304v-1189z" />
<glyph unicode="E" horiz-adv-x="1255" d="M205 0v1489h872v-150h-674v-501h535v-150h-535v-538h738l-19 -150h-917z" />
<glyph unicode="F" horiz-adv-x="1234" d="M205 0v1489h895v-150h-697v-524h584v-149h-584v-666h-198z" />
<glyph unicode="G" horiz-adv-x="1435" d="M111 737q0 388 204 592q195 195 523 195q209 0 389 -66v-170q-110 44 -200 63t-191 19q-263 0 -398 -170q-116 -145 -116 -463q0 -314 124 -464t383 -150q134 0 267 39v407h-269v150h467v-649q-130 -54 -240.5 -77.5t-230.5 -23.5q-191 0 -337.5 63.5t-237.5 186.5 q-137 186 -137 518z" />
<glyph unicode="H" horiz-adv-x="1560" d="M205 0v1489h198v-651h754v651h199v-1489h-199v688h-754v-688h-198z" />
<glyph unicode="I" horiz-adv-x="817" d="M117 0v133h192v1223h-192v133h583v-133h-192v-1223h192v-133h-583z" />
<glyph unicode="J" horiz-adv-x="608" d="M-8 -285q127 26 170 79.5t43 187.5v1507h198v-1507q0 -212 -120 -314q-51 -43 -116 -65.5t-175 -34.5v147z" />
<glyph unicode="K" horiz-adv-x="1349" d="M205 0v1489h198v-701l631 701h217l-667 -727l729 -762h-248l-662 692v-692h-198z" />
<glyph unicode="L" horiz-adv-x="1185" d="M205 0v1489h198v-1339h693l-19 -150h-872z" />
<glyph unicode="M" horiz-adv-x="1837" d="M195 0l30 1489h246l457 -1055l461 1055h243v-1489h-198v1198l-471 -1044h-123l-441 1024l-22 -1178h-182z" />
<glyph unicode="N" horiz-adv-x="1581" d="M205 0v1489h174l813 -1108v1108h184v-1489h-133l-854 1161v-1161h-184z" />
<glyph unicode="O" horiz-adv-x="1546" d="M111 756q0 369 172.5 568.5t490.5 199.5q338 0 518 -236q144 -195 144 -540q0 -204 -46.5 -349.5t-144.5 -248.5q-175 -181 -473 -181q-339 0 -516 236q-76 101 -110.5 232t-34.5 319zM322 756q0 -184 30 -301.5t97 -196.5q114 -141 323 -141q239 0 358 184 q95 147 95 447q0 340 -127 487q-114 141 -324 141q-452 0 -452 -620z" />
<glyph unicode="P" horiz-adv-x="1288" d="M205 0v1489h497q116 0 195 -19.5t139 -62.5q148 -110 148 -342q0 -222 -127 -331t-385 -109q-151 0 -269 14v-639h-198zM403 786q111 -12 256 -12q166 0 240 67t74 218t-64 215.5t-213 64.5h-293v-553z" />
<glyph unicode="Q" horiz-adv-x="1546" d="M111 748q0 203 46 348t144 247q178 181 473 181q339 0 516 -236q146 -194 146 -540q0 -451 -244 -646q-126 -103 -313 -127q17 -90 59 -137t127.5 -70t245.5 -30v-144q-220 9 -349.5 48t-199 118t-94.5 215q-188 24 -314 127q-124 99 -183.5 258t-59.5 388zM322 756 q0 -184 30 -301.5t97 -196.5q114 -141 323 -141q239 0 358 184q95 147 95 447q0 340 -127 487q-114 141 -324 141q-452 0 -452 -620z" />
<glyph unicode="R" horiz-adv-x="1353" d="M205 0v1489h508q454 0 454 -404q0 -166 -84 -260.5t-266 -132.5q78 -41 148 -143l368 -549h-227l-334 498q-69 104 -119 135t-149 31h-101v-664h-198zM403 813h283q153 0 219 78q29 33 40 75t11 113q0 145 -61.5 202.5t-216.5 57.5h-275v-526z" />
<glyph unicode="S" horiz-adv-x="1077" d="M78 72v174q120 -66 214 -93.5t200 -27.5q148 0 227.5 60.5t79.5 172.5q0 114 -92 191q-34 28 -70 50.5t-160 92.5q-181 102 -250 174q-108 114 -108 275q0 179 120.5 281t331.5 102q172 0 349 -74v-170q-103 51 -181.5 70.5t-171.5 19.5q-130 0 -198 -54.5t-68 -158.5 q0 -93 53.5 -155t208.5 -146q150 -83 192 -109.5t91 -68.5q147 -126 147 -305q0 -185 -134 -293.5t-361 -108.5q-112 0 -208.5 23.5t-211.5 77.5z" />
<glyph unicode="T" horiz-adv-x="1255" d="M80 1339l12 150h1079v-150h-446v-1339h-199v1339h-446z" />
<glyph unicode="U" horiz-adv-x="1507" d="M170 559v930h211v-930q0 -228 92 -329t301 -101q200 0 293.5 105t93.5 329v926h185v-922q0 -301 -142.5 -449.5t-431.5 -148.5q-296 0 -449 150t-153 440z" />
<glyph unicode="V" horiz-adv-x="1363" d="M53 1489h209l430 -1190l430 1190h189l-572 -1499h-123z" />
<glyph unicode="W" horiz-adv-x="1925" d="M57 1489h203l301 -1163l346 1163h131l338 -1163l307 1163h185l-416 -1499h-156l-335 1126l-345 -1126h-147z" />
<glyph unicode="X" horiz-adv-x="1370" d="M70 0l495 772l-459 717h228l368 -580l353 580h198l-446 -721l493 -768h-227l-403 629l-400 -629h-200z" />
<glyph unicode="Y" horiz-adv-x="1298" d="M47 1489h219l414 -739l373 739h198l-485 -909v-580h-199v573z" />
<glyph unicode="Z" horiz-adv-x="1277" d="M88 0v113l838 1226h-787l15 150h1017v-113l-837 -1226h842l-15 -150h-1073z" />
<glyph unicode="[" horiz-adv-x="860" d="M242 -332v1909h524v-131h-336v-1647h336v-131h-524z" />
<glyph unicode="\" horiz-adv-x="892" d="M6 1577h174l803 -1909h-174z" />
<glyph unicode="]" horiz-adv-x="860" d="M92 -201h336v1647h-336v131h524v-1909h-524v131z" />
<glyph unicode="^" d="M174 877l352 612h197l332 -612h-168l-262 454l-283 -454h-168z" />
<glyph unicode="_" horiz-adv-x="614" d="M-88 -244h790v-145h-790v145z" />
<glyph unicode="`" horiz-adv-x="1024" d="M250 1548h221l147 -348h-169z" />
<glyph unicode="a" horiz-adv-x="1091" d="M90 266q0 120 52 189.5t165 101.5q70 21 142.5 30t275.5 23v88q0 124 -48.5 178t-158.5 54q-83 0 -165.5 -21.5t-196.5 -72.5v153q190 90 372 90q200 0 293.5 -92.5t93.5 -290.5v-477q0 -51 17.5 -70.5t60.5 -19.5q29 0 60 8v-127q-71 -24 -135 -24q-147 0 -187 153 q-83 -89 -166 -130.5t-180 -41.5q-140 0 -217.5 78.5t-77.5 220.5zM281 274q0 -89 35.5 -128.5t117.5 -39.5q152 0 291 154v229l-29 -2l-86 -6q-190 -13 -259.5 -57t-69.5 -150z" />
<glyph unicode="b" horiz-adv-x="1224" d="M176 0v1497q47 2 90 15.5t68 35.5h33v-637q117 96 197 132t179 36q177 0 276 -143t99 -399q0 -310 -151 -461q-109 -109 -267 -109q-177 0 -362 146l-39 -113h-123zM367 207q86 -54 147.5 -74t138.5 -20q136 0 197 97t61 314q0 215 -54 306.5t-181 91.5q-72 0 -127 -22 t-182 -101v-592z" />
<glyph unicode="c" horiz-adv-x="1009" d="M106 528q0 272 124.5 411.5t367.5 139.5q140 0 301 -59v-170q-114 48 -171.5 63t-131.5 15q-164 0 -225.5 -86t-61.5 -318q0 -157 28 -244t90.5 -125t176.5 -38q78 0 131.5 15.5t184.5 76.5v-158q-175 -84 -324 -84q-490 0 -490 561z" />
<glyph unicode="d" horiz-adv-x="1220" d="M106 510q0 288 113 428q113 141 303 141q164 0 334 -125v543q48 2 91.5 15.5t68.5 35.5h31v-1548h-125l-50 141q-112 -96 -198.5 -135t-186.5 -39q-180 0 -280.5 143t-100.5 400zM311 514q0 -210 56.5 -305.5t181.5 -95.5q73 0 138 27t169 98v587q-88 56 -149.5 76.5 t-137.5 20.5q-140 0 -199 -93.5t-59 -314.5z" />
<glyph unicode="e" horiz-adv-x="1107" d="M106 522q0 270 121 413.5t348 143.5q211 0 323 -130t112 -376v-86h-701q0 -201 70 -285.5t239 -84.5q85 0 150.5 18t194.5 76v-158q-97 -46 -178 -66t-171 -20q-252 0 -380 140t-128 415zM309 627h496q-9 177 -60.5 247t-171.5 70q-166 0 -231 -145q-26 -69 -33 -172z " />
<glyph unicode="f" horiz-adv-x="724" d="M68 924v137h159v80q0 196 98.5 302.5t278.5 106.5h107v-151q-41 8 -76 8q-217 0 -217 -250v-96h258v-137h-258v-924h-191v924h-159z" />
<glyph unicode="g" horiz-adv-x="1073" d="M49 -172q0 144 180 244q-90 52 -90 141q0 104 121 207q-69 53 -101 122.5t-32 168.5q0 175 108.5 271.5t305.5 96.5q79 0 153 -18h361v-105h-39q-76 0 -135 -24q55 -86 55 -213q0 -180 -104.5 -276.5t-299.5 -96.5q-100 0 -180 27q-49 -57 -49 -107q0 -88 143 -88h172 q224 0 322 -68t98 -223q0 -164 -125.5 -243.5t-382.5 -79.5q-235 0 -358 67.5t-123 196.5zM231 -154q0 -75 73.5 -110t232.5 -35q196 0 276 59q29 20 41 48t12 73q0 78 -48.5 110t-168.5 32h-196q-65 0 -127 12q-95 -82 -95 -189zM317 719q0 -128 51 -183t169 -55 q109 0 158.5 55.5t49.5 178.5q0 126 -49 179.5t-164 53.5q-111 0 -163 -55.5t-52 -173.5z" />
<glyph unicode="h" horiz-adv-x="1210" d="M176 0v1497q47 2 90 15.5t68 35.5h33v-637q117 94 203 131t184 37q138 0 214 -86t76 -241v-752h-190v737q0 185 -164 185q-74 0 -137 -24t-186 -99v-799h-191z" />
<glyph unicode="i" horiz-adv-x="606" d="M80 897v145h82q89 0 139 10t86 33h43v-1085h-190v897h-160zM207 1370q0 54 35.5 88.5t89.5 34.5q56 0 90.5 -34.5t34.5 -90.5t-34.5 -90.5t-90.5 -34.5t-90.5 35t-34.5 92z" />
<glyph unicode="j" horiz-adv-x="606" d="M47 -291q98 22 145.5 87t47.5 179v922h-160v145h82q89 0 139 10t86 33h43v-1083q0 -392 -383 -438v145zM207 1370q0 54 35.5 88.5t89.5 34.5q56 0 90.5 -34.5t34.5 -90.5t-34.5 -90.5t-90.5 -34.5t-90.5 35t-34.5 92z" />
<glyph unicode="k" horiz-adv-x="1099" d="M176 0v1497q47 2 90 15.5t68 35.5h33v-1032l436 545h213l-365 -420l406 -641h-209l-320 498l-161 -187v-311h-191z" />
<glyph unicode="l" horiz-adv-x="595" d="M55 1362v143h82q166 0 228 43h41v-1548h-191v1362h-160z" />
<glyph unicode="m" horiz-adv-x="1789" d="M176 0v1034q47 2 90 15.5t68 35.5h33v-170q114 94 191 129t169 35t147 -41t89 -135q122 95 212.5 135.5t184.5 40.5q126 0 195 -85t69 -242v-752h-190v748q0 174 -138 174q-70 0 -127 -21.5t-174 -91.5v-809h-190v735q0 98 -33.5 142.5t-107.5 44.5q-70 0 -125.5 -21 t-171.5 -92v-809h-191z" />
<glyph unicode="n" horiz-adv-x="1210" d="M176 0v1034q47 2 90 15.5t68 35.5h33v-174q116 93 202.5 130.5t184.5 37.5q138 0 214 -86t76 -241v-752h-190v725q0 101 -39.5 149t-124.5 48q-74 0 -137 -24t-186 -99v-799h-191z" />
<glyph unicode="o" horiz-adv-x="1189" d="M106 530q0 270 124.5 409.5t363.5 139.5q489 0 489 -555q0 -557 -489 -557q-488 0 -488 563zM311 528q0 -232 64.5 -329t218.5 -97q155 0 220 96.5t65 325.5q0 227 -65.5 323.5t-219.5 96.5q-152 0 -217.5 -96t-65.5 -320z" />
<glyph unicode="p" horiz-adv-x="1224" d="M176 -414v1448q47 2 90 15.5t68 35.5h33v-174q117 97 197.5 132.5t180.5 35.5q175 0 274 -143t99 -399q0 -264 -112.5 -417t-307.5 -153q-163 0 -331 123v-504h-191zM367 207q86 -54 147.5 -74t138.5 -20q138 0 198 99t60 325q0 204 -54.5 294.5t-178.5 90.5 q-73 0 -127 -21.5t-184 -101.5v-592z" />
<glyph unicode="q" horiz-adv-x="1222" d="M106 516q0 283 117 426q112 137 299 137q177 0 352 -139l48 121h125v-1475h-191v541q-101 -86 -186.5 -123t-182.5 -37q-181 0 -281 144.5t-100 404.5zM311 526q0 -128 15.5 -205t52.5 -124q63 -84 166 -84q76 0 142 26.5t169 98.5v587q-88 56 -149.5 76.5t-137.5 20.5 q-138 0 -198 -92t-60 -304z" />
<glyph unicode="r" horiz-adv-x="829" d="M76 0v137h164v760h-160v145h82q89 0 139 10t86 33h43v-180q185 160 348 174v-184q-217 -21 -348 -90v-668h180v-137h-534z" />
<glyph unicode="s" horiz-adv-x="931" d="M113 49v158q92 -47 162.5 -65.5t158.5 -18.5q114 0 165.5 34t51.5 109q0 63 -39.5 98t-165.5 82q-102 38 -153.5 65.5t-87.5 61.5q-82 79 -82 207q0 141 93.5 218t266.5 77q75 0 139 -13t152 -46v-170q-97 44 -160.5 61t-132.5 17q-190 0 -190 -127q0 -68 40.5 -102.5 t182.5 -88.5q95 -36 137 -56t72 -44q55 -43 80.5 -96t25.5 -127q0 -145 -100 -226.5t-280 -81.5q-175 0 -336 74z" />
<glyph unicode="t" horiz-adv-x="792" d="M68 924v137h38q72 0 107 27t55 100l29 102h119v-229h291v-137h-291v-623q0 -95 41 -137.5t133 -42.5q59 0 145 26v-137q-83 -33 -174 -33q-172 0 -254 86t-82 265v596h-157z" />
<glyph unicode="u" horiz-adv-x="1191" d="M166 326v725l190 12v-741q0 -110 38 -158.5t124 -48.5q75 0 140.5 28t166.5 103v805l191 12v-1063h-125l-49 150q-103 -99 -191.5 -141t-193.5 -42q-163 0 -238 119q-29 44 -41 98.5t-12 141.5z" />
<glyph unicode="v" horiz-adv-x="1073" d="M33 1061h205l311 -766l307 766h184l-440 -1071h-115z" />
<glyph unicode="w" horiz-adv-x="1570" d="M45 1061h203l221 -770l258 780h150l249 -780l228 770h172l-334 -1071h-154l-247 790l-269 -790h-141z" />
<glyph unicode="x" horiz-adv-x="1116" d="M68 0l374 547l-352 514h217l256 -379l256 379h189l-342 -498l383 -563h-218l-284 426l-291 -426h-188z" />
<glyph unicode="y" horiz-adv-x="1073" d="M33 1061h205l313 -723l305 723h184l-639 -1475h-188l240 531z" />
<glyph unicode="z" horiz-adv-x="1021" d="M92 0v109l590 811h-541v141h779v-107l-588 -813h592v-141h-832z" />
<glyph unicode="{" horiz-adv-x="860" d="M43 561v139q154 17 205 61t51 159v231q0 235 101 330.5t350 95.5h55v-131h-64q-148 0 -201 -59t-53 -222v-235q0 -129 -49 -195.5t-170 -103.5q121 -37 170 -103.5t49 -195.5v-252q0 -163 53 -222t201 -59h64v-131h-55q-249 0 -350 95.5t-101 330.5v248q0 115 -51 158.5 t-205 60.5z" />
<glyph unicode="|" horiz-adv-x="614" d="M219 -334v1950h176v-1950h-176z" />
<glyph unicode="}" horiz-adv-x="860" d="M55 -201h64q148 0 201 59t53 222v252q0 129 49 195.5t170 103.5q-121 37 -170 103.5t-49 195.5v235q0 163 -53 222t-201 59h-64v131h56q249 0 349.5 -95.5t100.5 -330.5v-231q0 -115 51 -159t205 -61v-139q-154 -17 -205 -60.5t-51 -158.5v-248q0 -235 -100.5 -330.5 t-349.5 -95.5h-56v131z" />
<glyph unicode="~" d="M178 616q65 96 131.5 139.5t149.5 43.5q61 0 180 -33q98 -29 147 -29q40 0 76 21t88 76l103 -76q-68 -99 -133 -142t-148 -43q-68 0 -180 33q-101 29 -148 29q-40 0 -77 -20.5t-86 -71.5z" />
<glyph unicode="&#xa1;" horiz-adv-x="663" d="M190 1139q0 60 40.5 99.5t101.5 39.5q62 0 101.5 -40t39.5 -101q0 -62 -40 -102t-101 -40q-63 0 -102.5 40.5t-39.5 103.5zM225 -236l54 1041h122l54 -1041h-230z" />
<glyph unicode="&#xa2;" d="M162 524q0 275 131 415t389 140q48 0 127 -8l61 195h142l-70 -219q19 -5 88 -27v-170q-89 35 -137 49l-250 -780q20 -2 51 -2q88 0 159 18.5t198 73.5v-158q-103 -46 -185.5 -65t-177.5 -19q-24 0 -90 4l-86 -264h-141l94 293q-154 57 -228.5 185.5t-74.5 338.5zM365 518 q0 -167 32 -248.5t115 -122.5l248 777q-58 4 -80 4q-180 0 -247.5 -88t-67.5 -322z" />
<glyph unicode="&#xa3;" d="M90 0v154h184v510h-184v149h184v244q0 201 127.5 313.5t354.5 112.5q185 0 329 -64v-164q-115 43 -176 56.5t-145 13.5q-291 0 -291 -258v-254h393v-149h-393v-510h662l-21 -154h-1024z" />
<glyph unicode="&#xa4;" d="M59 291l127 129q-47 76 -66.5 143.5t-19.5 155.5t19.5 155.5t66.5 145.5l-127 129l117 117l123 -125q73 49 147 70.5t168 21.5t167.5 -21.5t148.5 -70.5l123 125l116 -117l-129 -129q47 -72 67.5 -142t20.5 -159q0 -88 -20.5 -156.5t-67.5 -142.5l129 -129l-116 -119 l-123 125q-139 -90 -318 -90q-92 0 -165 20.5t-148 69.5l-123 -125zM301 725q0 -156 90 -250q85 -88 223 -88q143 0 228.5 90.5t85.5 241.5q0 152 -86 243t-228 91q-141 0 -227 -90t-86 -238z" />
<glyph unicode="&#xa5;" d="M53 1446h221l355 -655l348 655h199l-435 -758h367v-131h-389v-158h389v-131h-389v-268h-199v268h-387v131h387v158h-387v131h352z" />
<glyph unicode="&#xa6;" horiz-adv-x="614" d="M219 0v606h199v-606h-199zM219 883v606h199v-606h-199z" />
<glyph unicode="&#xa7;" d="M150 633q0 153 120 229q49 30 129 51q-55 52 -79.5 109t-24.5 131q0 151 105.5 240.5t283.5 89.5q76 0 134.5 -11.5t135.5 -41.5v-168q-99 41 -154 55t-122 14q-101 0 -155 -42.5t-54 -121.5q0 -74 47 -120t191 -113q133 -62 185 -92.5t91 -67.5q100 -93 100 -227 q0 -109 -57.5 -174.5t-185.5 -100.5q57 -55 81.5 -112t24.5 -131q0 -161 -105.5 -250.5t-297.5 -89.5q-85 0 -153 17t-175 65v161q108 -56 173 -75t149 -19q117 0 171 41.5t54 130.5q0 62 -22.5 100.5t-80.5 75.5q-77 41 -192 97q-184 88 -250.5 161.5t-66.5 188.5zM317 657 q0 -76 72 -131q26 -21 53 -36.5t109 -53.5l182 -86q89 20 129.5 62t40.5 114q0 93 -82 148q-45 30 -188 100l-117 57q-199 -27 -199 -174z" />
<glyph unicode="&#xa8;" horiz-adv-x="1024" d="M223 1368q0 51 32 83t83 32t83 -32t32 -83t-32.5 -83t-84.5 -32q-50 0 -81.5 32t-31.5 83zM573 1368q0 51 32 83t83 32t83 -32t32 -83t-32.5 -83t-84.5 -32q-50 0 -81.5 32t-31.5 83z" />
<glyph unicode="&#xa9;" horiz-adv-x="1777" d="M111 756q0 139 49 274t137 238q218 256 592 256q376 0 592 -256q90 -104 138 -238.5t48 -281.5q0 -148 -47.5 -283t-138.5 -240q-215 -256 -590 -256q-376 0 -594 256q-186 216 -186 531zM221 756q0 -309 187 -503t483 -194q191 0 343 88t237 245.5t85 355.5 q0 197 -85 353.5t-237.5 244.5t-344.5 88q-190 0 -343 -87.5t-239 -242.5t-86 -348zM545 743q0 198 98 305t279 107q108 0 196 -33v-123q-91 39 -184 39q-120 0 -172.5 -69t-52.5 -226q0 -150 54 -219t171 -69q89 0 194 47v-119q-96 -45 -210 -45q-182 0 -277.5 103.5 t-95.5 301.5z" />
<glyph unicode="&#xaa;" horiz-adv-x="942" d="M90 793q0 100 45.5 156t149.5 87q59 17 126 25.5t220 17.5v80q0 98 -41.5 144.5t-130.5 46.5q-131 0 -312 -80v139q167 74 324 74q169 0 250.5 -79.5t81.5 -242.5v-409q0 -62 11 -96.5t38 -57.5v-35h-168l-45 119q-75 -78 -144 -112.5t-151 -34.5q-118 0 -186 69t-68 189 zM260 795q0 -66 34.5 -102t98.5 -36q117 0 238 127v193q-140 -12 -188 -18.5t-85 -18.5q-53 -19 -75.5 -52t-22.5 -93z" />
<glyph unicode="&#xab;" horiz-adv-x="1019" d="M96 496v88l283 393h143l-239 -436l239 -437h-143zM506 496v88l282 393h144l-240 -436l240 -437h-144z" />
<glyph unicode="&#xac;" d="M205 610v148h731v-461h-168v313h-563z" />
<glyph unicode="&#xad;" horiz-adv-x="614" d="M55 604v154h502v-154h-502z" />
<glyph unicode="&#xae;" horiz-adv-x="1245" d="M80 987q0 238 154.5 394.5t390.5 156.5q238 0 390 -156.5t152 -400.5q0 -243 -153 -400t-389 -157q-241 0 -393 157t-152 406zM182 987q0 -212 122.5 -341.5t320.5 -129.5q195 0 317.5 129.5t122.5 335.5t-122.5 335.5t-317.5 129.5t-319 -129t-124 -330zM432 733v520 h213q85 0 129.5 -37.5t44.5 -109.5q0 -54 -26.5 -86t-83.5 -47q24 -16 53 -60l110 -180h-127l-96 160q-19 31 -32.5 40t-41.5 9h-26v-209h-117zM549 1020h78q40 0 57.5 17t17.5 55q0 40 -16.5 56.5t-56.5 16.5h-80v-145z" />
<glyph unicode="&#xaf;" horiz-adv-x="1024" d="M240 1286v156h544v-156h-544z" />
<glyph unicode="&#xb0;" horiz-adv-x="819" d="M76 1161q0 135 97 228.5t237 93.5q141 0 237 -94t96 -232t-96 -232t-237 -94q-143 0 -238.5 94.5t-95.5 235.5zM221 1159q0 -88 53 -144.5t136 -56.5q82 0 135 56.5t53 142.5t-53 142.5t-135 56.5t-135.5 -56t-53.5 -141z" />
<glyph unicode="&#xb1;" d="M150 0v147h929v-147h-929zM150 610v148h380v422h168v-422h381v-148h-381v-379h-168v379h-380z" />
<glyph unicode="&#xb2;" horiz-adv-x="778" d="M94 723v98q171 128 248 193q158 128 158 233q0 107 -138 107q-55 0 -110 -17.5t-139 -60.5v135q136 68 274 68q142 0 211.5 -54.5t69.5 -167.5q0 -105 -61 -184t-255 -227h330l-14 -123h-574z" />
<glyph unicode="&#xb3;" horiz-adv-x="778" d="M80 670v125q202 10 311 56t109 120q0 41 -31.5 63.5t-89.5 22.5q-56 0 -148 -19v113q136 21 175 41q61 34 61 84q0 38 -30 60t-83 22q-52 0 -102 -13t-139 -49v129q100 32 155 43t119 11q246 0 246 -197q0 -53 -18 -84t-64 -59q64 -23 91.5 -61t27.5 -101 q0 -103 -67 -168t-210 -100q-70 -19 -128.5 -26t-184.5 -13z" />
<glyph unicode="&#xb4;" horiz-adv-x="1024" d="M385 1200l147 348h222l-199 -348h-170z" />
<glyph unicode="&#xb5;" d="M186 -397v1448l191 12v-741q0 -111 37.5 -159t124.5 -48q75 0 140.5 28t166.5 103v805l190 12v-1063h-125l-49 150q-103 -98 -191.5 -140.5t-191.5 -42.5q-43 0 -102 15v-379h-191z" />
<glyph unicode="&#xb6;" d="M109 1073q0 201 116 308.5t334 107.5h459v-1704h-178v1550h-178v-686q-27 -4 -68 -4q-236 0 -360.5 110.5t-124.5 317.5z" />
<glyph unicode="&#xb7;" horiz-adv-x="614" d="M166 682q0 60 40 99.5t101 39.5q62 0 102 -40t40 -101t-40 -101t-102 -40q-63 0 -102 40t-39 103z" />
<glyph unicode="&#xb8;" horiz-adv-x="1024" d="M311 -348l158 348h164l-107 -348h-215z" />
<glyph unicode="&#xb9;" horiz-adv-x="778" d="M127 1260v122l264 91h103v-639h178v-111h-533v111h187v485z" />
<glyph unicode="&#xba;" horiz-adv-x="942" d="M78 1014q0 225 102 347t291 122q190 0 291.5 -122t101.5 -351q0 -230 -101 -352.5t-292 -122.5q-192 0 -292.5 123t-100.5 356zM258 1014q0 -216 61 -291q25 -32 65.5 -50t86.5 -18q55 0 100 25t70 68q43 79 43 262q0 211 -59 284q-55 68 -154 68q-55 0 -100 -24.5 t-70 -67.5q-43 -79 -43 -256z" />
<glyph unicode="&#xbb;" horiz-adv-x="1019" d="M88 104l240 437l-240 436h143l283 -391v-88l-283 -394h-143zM498 104l239 437l-239 436h143l283 -391v-88l-283 -394h-143z" />
<glyph unicode="&#xbc;" horiz-adv-x="1843" d="M207 1260v122l264 91h102v-639h179v-111h-533v111h187v485zM311 0l1110 1446h148l-1110 -1446h-148zM967 145v93l397 546h180l-381 -524h219v234l154 16v-250h100v-115h-100v-145h-154v145h-415z" />
<glyph unicode="&#xbd;" horiz-adv-x="1843" d="M188 1260v122l265 91h102v-639h178v-111h-532v111h186v485zM293 0l1110 1446h147l-1110 -1446h-147zM1098 0v98q172 128 248 193q83 69 120 123.5t37 107.5t-37 81t-106 28q-91 0 -244 -80v137q122 68 266 68q289 0 289 -228q0 -101 -61.5 -179.5t-253.5 -225.5h330 l-15 -123h-573z" />
<glyph unicode="&#xbe;" horiz-adv-x="1843" d="M166 670v125q202 10 311 56t109 120q0 41 -31.5 63.5t-89.5 22.5q-40 0 -148 -19v113q135 20 175 41q61 34 61 84q0 38 -30 60t-83 22q-52 0 -102 -13t-139 -49v129q100 32 155 43t119 11q246 0 246 -197q0 -53 -18 -84t-64 -59q64 -23 91.5 -61t27.5 -101 q0 -103 -67 -168t-210 -100q-70 -19 -128.5 -26t-184.5 -13zM317 0l1110 1446h148l-1110 -1446h-148zM1008 145v93l399 546h180l-381 -524h219v234l154 16v-250h98v-115h-98v-145h-154v145h-417z" />
<glyph unicode="&#xbf;" horiz-adv-x="872" d="M43 86q0 114 48 189.5t206 207.5q97 84 124.5 117t27.5 68v137h172v-164q0 -64 -37.5 -116t-145.5 -142q-113 -92 -143 -141q-45 -70 -45 -166q0 -189 211 -189q85 0 155.5 20.5t178.5 76.5v-172q-179 -82 -349 -82q-196 0 -299.5 91.5t-103.5 264.5zM395 1139 q0 60 40.5 99.5t101.5 39.5t101 -40t40 -101q0 -62 -40 -102t-101 -40q-63 0 -102.5 40.5t-39.5 103.5z" />
<glyph unicode="&#xc0;" horiz-adv-x="1386" d="M53 0l584 1497h121l575 -1497h-217l-164 444h-542l-166 -444h-191zM432 1931h221l131 -319h-170zM467 598h430l-213 584z" />
<glyph unicode="&#xc1;" horiz-adv-x="1386" d="M53 0l584 1497h121l575 -1497h-217l-164 444h-542l-166 -444h-191zM467 598h430l-213 584zM606 1612l131 319h221l-182 -319h-170z" />
<glyph unicode="&#xc2;" horiz-adv-x="1386" d="M53 0l584 1497h121l575 -1497h-217l-164 444h-542l-166 -444h-191zM371 1612l223 319h197l225 -319h-162l-162 186l-160 -186h-161zM467 598h430l-213 584z" />
<glyph unicode="&#xc3;" horiz-adv-x="1386" d="M53 0l584 1497h121l575 -1497h-217l-164 444h-542l-166 -444h-191zM367 1688q51 87 104 126t119 39q50 0 121 -26q65 -23 98 -23q63 0 123 80l88 -67q-53 -89 -105 -128.5t-118 -39.5q-47 0 -121 26q-65 23 -101 23q-62 0 -120 -78zM467 598h430l-213 584z" />
<glyph unicode="&#xc4;" horiz-adv-x="1386" d="M53 0l584 1497h121l575 -1497h-217l-164 444h-542l-166 -444h-191zM406 1753q0 51 31.5 83t82.5 32t83 -32t32 -83t-32.5 -83t-84.5 -32q-50 0 -81 32t-31 83zM467 598h430l-213 584zM756 1753q0 51 31.5 83t82.5 32t83 -32t32 -83t-32.5 -83t-84.5 -32q-50 0 -81 32 t-31 83z" />
<glyph unicode="&#xc5;" horiz-adv-x="1386" d="M53 0l584 1497h121l575 -1497h-217l-164 444h-542l-166 -444h-191zM467 598h430l-213 584zM467 1798q0 92 63.5 151.5t163.5 59.5t164 -59.5t64 -153.5t-64 -153.5t-164 -59.5q-101 0 -164 60t-63 155zM582 1798q0 -58 29.5 -90.5t82.5 -32.5q52 0 82.5 32.5t30.5 88.5 t-30.5 88.5t-82.5 32.5t-82 -32.5t-30 -86.5z" />
<glyph unicode="&#xc6;" horiz-adv-x="1959" d="M-27 0l904 1489h905v-150h-674v-501h534v-150h-534v-538h737l-18 -150h-918v444h-479l-262 -444h-195zM520 598h389v655z" />
<glyph unicode="&#xc7;" horiz-adv-x="1314" d="M111 739q0 411 213 615q179 170 479 170q197 0 366 -64v-172q-102 45 -185.5 63.5t-182.5 18.5q-247 0 -363 -152.5t-116 -478.5q0 -315 117 -465.5t360 -150.5q103 0 190.5 21.5t200.5 74.5v-166q-173 -81 -373 -84l-96 -317h-215l147 328q-542 89 -542 759z" />
<glyph unicode="&#xc8;" horiz-adv-x="1255" d="M205 0v1489h872v-150h-674v-501h535v-150h-535v-538h738l-19 -150h-917zM426 1931h221l131 -319h-170z" />
<glyph unicode="&#xc9;" horiz-adv-x="1255" d="M205 0v1489h872v-150h-674v-501h535v-150h-535v-538h738l-19 -150h-917zM571 1612l131 319h222l-183 -319h-170z" />
<glyph unicode="&#xca;" horiz-adv-x="1255" d="M205 0v1489h872v-150h-674v-501h535v-150h-535v-538h738l-19 -150h-917zM324 1612l223 319h196l226 -319h-162l-162 186l-160 -186h-161z" />
<glyph unicode="&#xcb;" horiz-adv-x="1255" d="M205 0v1489h872v-150h-674v-501h535v-150h-535v-538h738l-19 -150h-917zM369 1753q0 51 31.5 83t82.5 32t83 -32t32 -83t-32.5 -83t-84.5 -32q-50 0 -81 32t-31 83zM719 1753q0 51 32 83t83 32t82.5 -32t31.5 -83t-32.5 -83t-84.5 -32q-50 0 -81 32t-31 83z" />
<glyph unicode="&#xcc;" horiz-adv-x="817" d="M117 0v133h192v1223h-192v133h583v-133h-192v-1223h192v-133h-583zM147 1931h222l131 -319h-170z" />
<glyph unicode="&#xcd;" horiz-adv-x="817" d="M117 0v133h192v1223h-192v133h583v-133h-192v-1223h192v-133h-583zM315 1612l131 319h222l-183 -319h-170z" />
<glyph unicode="&#xce;" horiz-adv-x="817" d="M86 1612l223 319h197l225 -319h-162l-161 186l-160 -186h-162zM117 0v133h192v1223h-192v133h583v-133h-192v-1223h192v-133h-583z" />
<glyph unicode="&#xcf;" horiz-adv-x="817" d="M117 0v133h192v1223h-192v133h583v-133h-192v-1223h192v-133h-583zM121 1753q0 51 32 83t83 32t82.5 -32t31.5 -83t-32.5 -83t-84.5 -32q-50 0 -81 32t-31 83zM471 1753q0 51 32 83t83 32t82.5 -32t31.5 -83t-32 -83t-84 -32q-50 0 -81.5 32t-31.5 83z" />
<glyph unicode="&#xd0;" horiz-adv-x="1480" d="M57 688v152h148v649h524q285 0 449 -164q190 -184 190 -573q0 -392 -190 -582q-170 -170 -457 -170h-516v688h-148zM403 150h304q229 0 339.5 145.5t110.5 447.5q0 310 -108 453t-342 143h-304v-499h392v-152h-392v-538z" />
<glyph unicode="&#xd1;" horiz-adv-x="1581" d="M205 0v1489h174l813 -1108v1108h184v-1489h-133l-854 1161v-1161h-184zM481 1688q51 87 104 126t120 39q49 0 120 -26q65 -23 99 -23q63 0 123 80l88 -67q-52 -89 -105 -128.5t-119 -39.5q-46 0 -120 26q-65 23 -101 23q-63 0 -121 -78z" />
<glyph unicode="&#xd2;" horiz-adv-x="1546" d="M111 756q0 369 172.5 568.5t490.5 199.5q338 0 518 -236q144 -195 144 -540q0 -204 -46.5 -349.5t-144.5 -248.5q-175 -181 -473 -181q-339 0 -516 236q-76 101 -110.5 232t-34.5 319zM322 756q0 -184 30 -301.5t97 -196.5q114 -141 323 -141q239 0 358 184 q95 147 95 447q0 340 -127 487q-114 141 -324 141q-452 0 -452 -620zM541 1931h221l131 -319h-170z" />
<glyph unicode="&#xd3;" horiz-adv-x="1546" d="M111 756q0 369 172.5 568.5t490.5 199.5q338 0 518 -236q144 -195 144 -540q0 -204 -46.5 -349.5t-144.5 -248.5q-175 -181 -473 -181q-339 0 -516 236q-76 101 -110.5 232t-34.5 319zM322 756q0 -184 30 -301.5t97 -196.5q114 -141 323 -141q239 0 358 184 q95 147 95 447q0 340 -127 487q-114 141 -324 141q-452 0 -452 -620zM662 1612l131 319h221l-183 -319h-169z" />
<glyph unicode="&#xd4;" horiz-adv-x="1546" d="M111 756q0 369 172.5 568.5t490.5 199.5q338 0 518 -236q144 -195 144 -540q0 -204 -46.5 -349.5t-144.5 -248.5q-175 -181 -473 -181q-339 0 -516 236q-76 101 -110.5 232t-34.5 319zM322 756q0 -184 30 -301.5t97 -196.5q114 -141 323 -141q239 0 358 184 q95 147 95 447q0 340 -127 487q-114 141 -324 141q-452 0 -452 -620zM451 1612l223 319h196l226 -319h-162l-162 186l-160 -186h-161z" />
<glyph unicode="&#xd5;" horiz-adv-x="1546" d="M111 756q0 369 172.5 568.5t490.5 199.5q338 0 518 -236q144 -195 144 -540q0 -204 -46.5 -349.5t-144.5 -248.5q-175 -181 -473 -181q-339 0 -516 236q-76 101 -110.5 232t-34.5 319zM322 756q0 -184 30 -301.5t97 -196.5q114 -141 323 -141q239 0 358 184 q95 147 95 447q0 340 -127 487q-114 141 -324 141q-452 0 -452 -620zM444 1688q51 87 104 126t120 39q48 0 120 -26q65 -23 99 -23q63 0 123 80l88 -67q-52 -89 -105 -128.5t-119 -39.5q-46 0 -120 26q-65 23 -101 23q-63 0 -121 -78z" />
<glyph unicode="&#xd6;" horiz-adv-x="1546" d="M111 756q0 369 172.5 568.5t490.5 199.5q338 0 518 -236q144 -195 144 -540q0 -204 -46.5 -349.5t-144.5 -248.5q-175 -181 -473 -181q-339 0 -516 236q-76 101 -110.5 232t-34.5 319zM322 756q0 -184 30 -301.5t97 -196.5q114 -141 323 -141q239 0 358 184 q95 147 95 447q0 340 -127 487q-114 141 -324 141q-452 0 -452 -620zM483 1753q0 51 32 83t83 32t83 -32t32 -83t-32.5 -83t-84.5 -32q-50 0 -81.5 32t-31.5 83zM834 1753q0 51 31.5 83t82.5 32t83 -32t32 -83t-32.5 -83t-84.5 -32q-50 0 -81 32t-31 83z" />
<glyph unicode="&#xd7;" d="M182 997l111 113l321 -322l320 322l110 -113l-319 -319l319 -320l-110 -112l-322 319l-317 -317l-111 110l318 318z" />
<glyph unicode="&#xd8;" horiz-adv-x="1546" d="M37 -92l225 289q-81 108 -116 236t-35 315q0 203 46 348t144 247q178 181 471 181q131 0 232 -32.5t192 -102.5l131 167h154l-201 -256q83 -109 119.5 -238.5t36.5 -316.5q0 -203 -46.5 -347.5t-144.5 -247.5q-178 -181 -471 -181q-258 0 -426 140l-158 -201h-153z M322 745q0 -130 15 -218.5t50 -172.5l700 895q-121 127 -315 127q-237 0 -356 -184q-94 -145 -94 -447zM457 248q122 -131 317 -131q451 0 451 620q0 258 -68 406z" />
<glyph unicode="&#xd9;" horiz-adv-x="1507" d="M170 559v930h211v-930q0 -228 92 -329t301 -101q200 0 293.5 105t93.5 329v926h185v-922q0 -301 -142.5 -449.5t-431.5 -148.5q-296 0 -449 150t-153 440zM528 1931h222l131 -319h-170z" />
<glyph unicode="&#xda;" horiz-adv-x="1507" d="M170 559v930h211v-930q0 -228 92 -329t301 -101q200 0 293.5 105t93.5 329v926h185v-922q0 -301 -142.5 -449.5t-431.5 -148.5q-296 0 -449 150t-153 440zM674 1612l131 319h221l-182 -319h-170z" />
<glyph unicode="&#xdb;" horiz-adv-x="1507" d="M170 559v930h211v-930q0 -228 92 -329t301 -101q200 0 293.5 105t93.5 329v926h185v-922q0 -301 -142.5 -449.5t-431.5 -148.5q-296 0 -449 150t-153 440zM432 1612l223 319h197l225 -319h-162l-161 186l-160 -186h-162z" />
<glyph unicode="&#xdc;" horiz-adv-x="1507" d="M170 559v930h211v-930q0 -228 92 -329t301 -101q200 0 293.5 105t93.5 329v926h185v-922q0 -301 -142.5 -449.5t-431.5 -148.5q-296 0 -449 150t-153 440zM465 1753q0 51 32 83t83 32t82.5 -32t31.5 -83t-32 -83t-84 -32q-50 0 -81.5 32t-31.5 83zM815 1753q0 51 32 83 t83 32t82.5 -32t31.5 -83t-32 -83t-84 -32q-50 0 -81.5 32t-31.5 83z" />
<glyph unicode="&#xdd;" horiz-adv-x="1298" d="M47 1489h219l414 -739l373 739h198l-485 -909v-580h-199v573zM569 1612l131 319h222l-183 -319h-170z" />
<glyph unicode="&#xde;" horiz-adv-x="1288" d="M205 0v1489h198v-291h326q223 0 339 -108.5t116 -317.5q0 -224 -129 -331t-398 -107q-142 0 -254 14v-348h-198zM403 496q117 -13 254 -13q169 0 242.5 67t73.5 222q0 145 -63.5 211t-202.5 66h-304v-553z" />
<glyph unicode="&#xdf;" horiz-adv-x="1218" d="M170 0v1075q0 111 25 189.5t81 140.5q128 143 361 143q173 0 278 -79.5t105 -211.5q0 -76 -39.5 -142.5t-159.5 -192.5q-81 -88 -102 -119t-21 -64q0 -37 37.5 -66.5t147.5 -80.5q145 -67 199.5 -133.5t54.5 -173.5q0 -145 -97.5 -227.5t-267.5 -82.5q-147 0 -260 45v154 q133 -55 256 -55q197 0 197 143q0 62 -36.5 97.5t-160.5 95.5q-79 39 -116.5 63t-61.5 51q-55 61 -55 150q0 68 29.5 122t127.5 163q91 102 117.5 147t26.5 100q0 75 -57 120.5t-152 45.5q-141 0 -208 -80.5t-67 -249.5v-1087h-182z" />
<glyph unicode="&#xe0;" horiz-adv-x="1091" d="M90 266q0 120 52 189.5t165 101.5q70 21 142.5 30t275.5 23v88q0 124 -48.5 178t-158.5 54q-83 0 -165.5 -21.5t-196.5 -72.5v153q190 90 372 90q200 0 293.5 -92.5t93.5 -290.5v-477q0 -51 17.5 -70.5t60.5 -19.5q29 0 60 8v-127q-71 -24 -135 -24q-147 0 -187 153 q-83 -89 -166 -130.5t-180 -41.5q-140 0 -217.5 78.5t-77.5 220.5zM272 1548h222l147 -348h-170zM281 274q0 -89 35.5 -128.5t117.5 -39.5q152 0 291 154v229l-29 -2l-86 -6q-190 -13 -259.5 -57t-69.5 -150z" />
<glyph unicode="&#xe1;" horiz-adv-x="1091" d="M90 266q0 120 52 189.5t165 101.5q70 21 142.5 30t275.5 23v88q0 124 -48.5 178t-158.5 54q-83 0 -165.5 -21.5t-196.5 -72.5v153q190 90 372 90q200 0 293.5 -92.5t93.5 -290.5v-477q0 -51 17.5 -70.5t60.5 -19.5q29 0 60 8v-127q-71 -24 -135 -24q-147 0 -187 153 q-83 -89 -166 -130.5t-180 -41.5q-140 0 -217.5 78.5t-77.5 220.5zM281 274q0 -89 35.5 -128.5t117.5 -39.5q152 0 291 154v229l-29 -2l-86 -6q-190 -13 -259.5 -57t-69.5 -150zM430 1200l148 348h221l-199 -348h-170z" />
<glyph unicode="&#xe2;" horiz-adv-x="1091" d="M90 266q0 120 52 189.5t165 101.5q70 21 142.5 30t275.5 23v88q0 124 -48.5 178t-158.5 54q-83 0 -165.5 -21.5t-196.5 -72.5v153q190 90 372 90q200 0 293.5 -92.5t93.5 -290.5v-477q0 -51 17.5 -70.5t60.5 -19.5q29 0 60 8v-127q-71 -24 -135 -24q-147 0 -187 153 q-83 -89 -166 -130.5t-180 -41.5q-140 0 -217.5 78.5t-77.5 220.5zM209 1210l229 326h197l229 -326h-162l-165 193l-166 -193h-162zM281 274q0 -89 35.5 -128.5t117.5 -39.5q152 0 291 154v229l-29 -2l-86 -6q-190 -13 -259.5 -57t-69.5 -150z" />
<glyph unicode="&#xe3;" horiz-adv-x="1091" d="M90 266q0 120 52 189.5t165 101.5q70 21 142.5 30t275.5 23v88q0 124 -48.5 178t-158.5 54q-83 0 -165.5 -21.5t-196.5 -72.5v153q190 90 372 90q200 0 293.5 -92.5t93.5 -290.5v-477q0 -51 17.5 -70.5t60.5 -19.5q29 0 60 8v-127q-71 -24 -135 -24q-147 0 -187 153 q-83 -89 -166 -130.5t-180 -41.5q-140 0 -217.5 78.5t-77.5 220.5zM207 1305q51 87 104 126t119 39q50 0 121 -26q65 -23 98 -23q63 0 123 80l88 -67q-53 -89 -105 -128.5t-118 -39.5q-47 0 -121 26q-65 23 -100 23q-63 0 -121 -78zM281 274q0 -89 35.5 -128.5t117.5 -39.5 q152 0 291 154v229l-29 -2l-86 -6q-190 -13 -259.5 -57t-69.5 -150z" />
<glyph unicode="&#xe4;" horiz-adv-x="1091" d="M90 266q0 120 52 189.5t165 101.5q70 21 142.5 30t275.5 23v88q0 124 -48.5 178t-158.5 54q-83 0 -165.5 -21.5t-196.5 -72.5v153q190 90 372 90q200 0 293.5 -92.5t93.5 -290.5v-477q0 -51 17.5 -70.5t60.5 -19.5q29 0 60 8v-127q-71 -24 -135 -24q-147 0 -187 153 q-83 -89 -166 -130.5t-180 -41.5q-140 0 -217.5 78.5t-77.5 220.5zM248 1368q0 51 31.5 83t82.5 32t83 -32t32 -83t-32.5 -83t-84.5 -32q-50 0 -81 32t-31 83zM281 274q0 -89 35.5 -128.5t117.5 -39.5q152 0 291 154v229l-29 -2l-86 -6q-190 -13 -259.5 -57t-69.5 -150z M598 1368q0 51 32 83t83 32t82.5 -32t31.5 -83t-32 -83t-84 -32q-50 0 -81.5 32t-31.5 83z" />
<glyph unicode="&#xe5;" horiz-adv-x="1091" d="M90 266q0 120 52 189.5t165 101.5q70 21 142.5 30t275.5 23v88q0 124 -48.5 178t-158.5 54q-83 0 -165.5 -21.5t-196.5 -72.5v153q190 90 372 90q200 0 293.5 -92.5t93.5 -290.5v-477q0 -51 17.5 -70.5t60.5 -19.5q29 0 60 8v-127q-71 -24 -135 -24q-147 0 -187 153 q-83 -89 -166 -130.5t-180 -41.5q-140 0 -217.5 78.5t-77.5 220.5zM281 274q0 -89 35.5 -128.5t117.5 -39.5q152 0 291 154v229l-29 -2l-86 -6q-190 -13 -259.5 -57t-69.5 -150zM309 1419q0 92 64 151.5t164 59.5t163.5 -59.5t63.5 -153.5t-63.5 -153.5t-163.5 -59.5 q-101 0 -164.5 60t-63.5 155zM424 1419q0 -58 30 -90.5t83 -32.5q52 0 82 32.5t30 88.5t-30 88.5t-82 32.5t-82.5 -32.5t-30.5 -86.5z" />
<glyph unicode="&#xe6;" horiz-adv-x="1714" d="M90 266q0 120 52 189.5t165 101.5q70 21 142.5 30t275.5 23v88q0 124 -48.5 178t-158.5 54q-83 0 -165.5 -21.5t-196.5 -72.5v153q190 90 372 90q123 0 197.5 -37t118.5 -120q121 157 340 157q209 0 320.5 -130t111.5 -376v-86h-701q0 -201 70.5 -285.5t239.5 -84.5 q85 0 150 18t194 76v-158q-97 -46 -177.5 -66t-170.5 -20q-149 0 -251 47.5t-173 149.5q-99 -102 -197.5 -149.5t-212.5 -47.5q-141 0 -219 78.5t-78 220.5zM281 274q0 -89 35.5 -128.5t117.5 -39.5q152 0 291 154v229q-160 -12 -212 -18t-99 -18q-69 -20 -101 -63t-32 -116 zM915 618h496q-9 182 -60 254t-171 72q-167 0 -232 -149q-25 -68 -33 -177z" />
<glyph unicode="&#xe7;" horiz-adv-x="1009" d="M106 528q0 272 124.5 411.5t367.5 139.5q140 0 301 -59v-170q-114 48 -171.5 63t-131.5 15q-164 0 -225.5 -86t-61.5 -318q0 -157 28 -244t90.5 -125t176.5 -38q78 0 131.5 15.5t184.5 76.5v-158q-140 -70 -267 -82l-98 -317h-215l147 323q-198 37 -289.5 169t-91.5 384z " />
<glyph unicode="&#xe8;" horiz-adv-x="1107" d="M106 522q0 270 121 413.5t348 143.5q211 0 323 -130t112 -376v-86h-701q0 -201 70 -285.5t239 -84.5q85 0 150.5 18t194.5 76v-158q-97 -46 -178 -66t-171 -20q-252 0 -380 140t-128 415zM309 627h496q-9 177 -60.5 247t-171.5 70q-166 0 -231 -145q-26 -69 -33 -172z M309 1548h221l148 -348h-170z" />
<glyph unicode="&#xe9;" horiz-adv-x="1107" d="M106 522q0 270 121 413.5t348 143.5q211 0 323 -130t112 -376v-86h-701q0 -201 70 -285.5t239 -84.5q85 0 150.5 18t194.5 76v-158q-97 -46 -178 -66t-171 -20q-252 0 -380 140t-128 415zM309 627h496q-9 177 -60.5 247t-171.5 70q-166 0 -231 -145q-26 -69 -33 -172z M475 1200l148 348h221l-199 -348h-170z" />
<glyph unicode="&#xea;" horiz-adv-x="1107" d="M106 522q0 270 121 413.5t348 143.5q211 0 323 -130t112 -376v-86h-701q0 -201 70 -285.5t239 -84.5q85 0 150.5 18t194.5 76v-158q-97 -46 -178 -66t-171 -20q-252 0 -380 140t-128 415zM252 1210l229 326h197l229 -326h-162l-165 193l-166 -193h-162zM309 627h496 q-9 177 -60.5 247t-171.5 70q-166 0 -231 -145q-26 -69 -33 -172z" />
<glyph unicode="&#xeb;" horiz-adv-x="1107" d="M106 522q0 270 121 413.5t348 143.5q211 0 323 -130t112 -376v-86h-701q0 -201 70 -285.5t239 -84.5q85 0 150.5 18t194.5 76v-158q-97 -46 -178 -66t-171 -20q-252 0 -380 140t-128 415zM291 1368q0 51 32 83t83 32t82.5 -32t31.5 -83t-32.5 -83t-84.5 -32q-50 0 -81 32 t-31 83zM309 627h496q-9 177 -60.5 247t-171.5 70q-166 0 -231 -145q-26 -69 -33 -172zM641 1368q0 51 32 83t83 32t82.5 -32t31.5 -83t-32 -83t-84 -32q-50 0 -81.5 32t-31.5 83z" />
<glyph unicode="&#xec;" horiz-adv-x="606" d="M41 1548h221l148 -348h-170zM80 897v145h82q89 0 139 10t86 33h43v-1085h-190v897h-160z" />
<glyph unicode="&#xed;" horiz-adv-x="606" d="M80 897v145h82q89 0 139 10t86 33h43v-1085h-190v897h-160zM176 1200l148 348h221l-199 -348h-170z" />
<glyph unicode="&#xee;" horiz-adv-x="606" d="M-25 1210l230 326h196l230 -326h-162l-166 193l-166 -193h-162zM80 897v145h82q89 0 139 10t86 33h43v-1085h-190v897h-160z" />
<glyph unicode="&#xef;" horiz-adv-x="606" d="M14 1368q0 51 32 83t83 32t83 -32t32 -83t-32.5 -83t-84.5 -32q-50 0 -81.5 32t-31.5 83zM80 897v145h82q89 0 139 10t86 33h43v-1085h-190v897h-160zM365 1368q0 51 31.5 83t82.5 32t83 -32t32 -83t-32.5 -83t-84.5 -32q-50 0 -81 32t-31 83z" />
<glyph unicode="&#xf0;" horiz-adv-x="1189" d="M106 537q0 266 142 411q131 131 330 131q78 0 130.5 -21.5t102.5 -72.5q-70 148 -178 285l-309 -113v119l233 84q-67 72 -197 188h205q74 -60 150 -129l276 101v-119l-190 -70q158 -184 220 -356.5t62 -423.5q0 -252 -94 -389q-138 -195 -393 -195q-238 0 -364 146.5 t-126 423.5zM309 528q0 -120 16 -192.5t54 -124.5q73 -105 219 -105q77 0 136 32.5t91 92.5q30 56 42 128t12 194q0 115 -15.5 184t-50.5 115q-32 44 -86.5 68t-120.5 24q-164 0 -235 -106q-34 -53 -48 -122t-14 -188z" />
<glyph unicode="&#xf1;" horiz-adv-x="1210" d="M176 0v1034q47 2 90 15.5t68 35.5h33v-174q116 93 202.5 130.5t184.5 37.5q138 0 214 -86t76 -241v-752h-190v725q0 101 -39.5 149t-124.5 48q-74 0 -137 -24t-186 -99v-799h-191zM279 1305q51 87 104 126t119 39q50 0 121 -26q65 -23 98 -23q63 0 123 80l88 -67 q-53 -89 -105 -128.5t-118 -39.5q-47 0 -121 26q-65 23 -101 23q-62 0 -120 -78z" />
<glyph unicode="&#xf2;" horiz-adv-x="1189" d="M106 530q0 270 124.5 409.5t363.5 139.5q489 0 489 -555q0 -557 -489 -557q-488 0 -488 563zM311 528q0 -232 64.5 -329t218.5 -97q155 0 220 96.5t65 325.5q0 227 -65.5 323.5t-219.5 96.5q-152 0 -217.5 -96t-65.5 -320zM356 1548h222l147 -348h-170z" />
<glyph unicode="&#xf3;" horiz-adv-x="1189" d="M106 530q0 270 124.5 409.5t363.5 139.5q489 0 489 -555q0 -557 -489 -557q-488 0 -488 563zM311 528q0 -232 64.5 -329t218.5 -97q155 0 220 96.5t65 325.5q0 227 -65.5 323.5t-219.5 96.5q-152 0 -217.5 -96t-65.5 -320zM485 1200l148 348h221l-199 -348h-170z" />
<glyph unicode="&#xf4;" horiz-adv-x="1189" d="M106 530q0 270 124.5 409.5t363.5 139.5q489 0 489 -555q0 -557 -489 -557q-488 0 -488 563zM268 1210l230 326h196l230 -326h-162l-166 193l-166 -193h-162zM311 528q0 -232 64.5 -329t218.5 -97q155 0 220 96.5t65 325.5q0 227 -65.5 323.5t-219.5 96.5 q-152 0 -217.5 -96t-65.5 -320z" />
<glyph unicode="&#xf5;" horiz-adv-x="1189" d="M106 530q0 270 124.5 409.5t363.5 139.5q489 0 489 -555q0 -557 -489 -557q-488 0 -488 563zM268 1305q51 87 104 126t120 39q48 0 120 -26q65 -23 99 -23q63 0 123 80l88 -67q-52 -89 -105 -128.5t-119 -39.5q-46 0 -120 26q-65 23 -101 23q-63 0 -121 -78zM311 528 q0 -232 64.5 -329t218.5 -97q155 0 220 96.5t65 325.5q0 227 -65.5 323.5t-219.5 96.5q-152 0 -217.5 -96t-65.5 -320z" />
<glyph unicode="&#xf6;" horiz-adv-x="1189" d="M106 530q0 270 124.5 409.5t363.5 139.5q489 0 489 -555q0 -557 -489 -557q-488 0 -488 563zM307 1368q0 51 32 83t83 32t83 -32t32 -83t-32.5 -83t-84.5 -32q-50 0 -81.5 32t-31.5 83zM311 528q0 -232 64.5 -329t218.5 -97q155 0 220 96.5t65 325.5q0 227 -65.5 323.5 t-219.5 96.5q-152 0 -217.5 -96t-65.5 -320zM657 1368q0 51 32 83t83 32t83 -32t32 -83t-32.5 -83t-84.5 -32q-50 0 -81.5 32t-31.5 83z" />
<glyph unicode="&#xf7;" d="M150 610v148h929v-148h-929zM481 295q0 57 37.5 94t95.5 37q59 0 96.5 -37.5t37.5 -95.5t-37.5 -95.5t-96.5 -37.5t-96 37.5t-37 97.5zM481 1077q0 57 37.5 94t95.5 37q59 0 96.5 -37.5t37.5 -95.5t-37.5 -95.5t-96.5 -37.5t-96 37.5t-37 97.5z" />
<glyph unicode="&#xf8;" horiz-adv-x="1189" d="M35 -92l178 221q-107 136 -107 393q0 557 488 557q188 0 309 -88l98 121h154l-168 -209q96 -134 96 -379q0 -557 -487 -557q-178 0 -297 80l-111 -139h-153zM311 520q0 -129 25 -235l467 579q-74 80 -207 80q-155 0 -220 -97t-65 -327zM399 170q77 -68 197 -68 q154 0 218.5 97t64.5 327q0 118 -21 217z" />
<glyph unicode="&#xf9;" horiz-adv-x="1191" d="M166 326v725l190 12v-741q0 -110 38 -158.5t124 -48.5q75 0 140.5 28t166.5 103v805l191 12v-1063h-125l-49 150q-103 -99 -191.5 -141t-193.5 -42q-163 0 -238 119q-29 44 -41 98.5t-12 141.5zM334 1548h221l147 -348h-170z" />
<glyph unicode="&#xfa;" horiz-adv-x="1191" d="M166 326v725l190 12v-741q0 -110 38 -158.5t124 -48.5q75 0 140.5 28t166.5 103v805l191 12v-1063h-125l-49 150q-103 -99 -191.5 -141t-193.5 -42q-163 0 -238 119q-29 44 -41 98.5t-12 141.5zM494 1200l147 348h221l-198 -348h-170z" />
<glyph unicode="&#xfb;" horiz-adv-x="1191" d="M166 326v725l190 12v-741q0 -110 38 -158.5t124 -48.5q75 0 140.5 28t166.5 103v805l191 12v-1063h-125l-49 150q-103 -99 -191.5 -141t-193.5 -42q-163 0 -238 119q-29 44 -41 98.5t-12 141.5zM268 1210l230 326h196l230 -326h-162l-166 193l-166 -193h-162z" />
<glyph unicode="&#xfc;" horiz-adv-x="1191" d="M166 326v725l190 12v-741q0 -110 38 -158.5t124 -48.5q75 0 140.5 28t166.5 103v805l191 12v-1063h-125l-49 150q-103 -99 -191.5 -141t-193.5 -42q-163 0 -238 119q-29 44 -41 98.5t-12 141.5zM307 1368q0 51 32 83t83 32t83 -32t32 -83t-32.5 -83t-84.5 -32 q-50 0 -81.5 32t-31.5 83zM657 1368q0 51 32 83t83 32t83 -32t32 -83t-32.5 -83t-84.5 -32q-50 0 -81.5 32t-31.5 83z" />
<glyph unicode="&#xfd;" horiz-adv-x="1073" d="M33 1061h205l313 -723l305 723h184l-639 -1475h-188l240 531zM465 1200l147 348h222l-199 -348h-170z" />
<glyph unicode="&#xfe;" horiz-adv-x="1224" d="M176 -414v1911q47 2 90 15.5t68 35.5h33v-637q117 97 197.5 132.5t180.5 35.5q175 0 274 -143t99 -399q0 -264 -112.5 -417t-307.5 -153q-163 0 -331 123v-504h-191zM367 207q86 -54 147.5 -74t138.5 -20q138 0 198 99t60 325q0 204 -54.5 294.5t-178.5 90.5 q-73 0 -127 -21.5t-184 -101.5v-592z" />
<glyph unicode="&#xff;" horiz-adv-x="1073" d="M33 1061h205l313 -723l305 723h184l-639 -1475h-188l240 531zM248 1368q0 51 31.5 83t82.5 32t83 -32t32 -83t-32.5 -83t-84.5 -32q-50 0 -81 32t-31 83zM598 1368q0 51 32 83t83 32t82.5 -32t31.5 -83t-32 -83t-84 -32q-50 0 -81.5 32t-31.5 83z" />
<glyph unicode="&#x152;" horiz-adv-x="2275" d="M111 739q0 375 173.5 580t491.5 205q159 0 265 -51t184 -166v182h872v-150h-674v-501h535v-150h-535v-538h738l-19 -150h-917v195q-78 -118 -187 -172t-270 -54q-311 0 -489 209q-168 191 -168 561zM322 750q0 -206 40.5 -335t129.5 -204q117 -94 280 -94q210 0 330 147 q123 152 123 467q0 214 -42 345.5t-134 209.5q-110 90 -275 90q-224 0 -338 -157.5t-114 -468.5z" />
<glyph unicode="&#x153;" horiz-adv-x="1875" d="M106 524q0 275 123 415t363 140q138 0 232.5 -48.5t154.5 -149.5q123 198 367 198q209 0 320.5 -130.5t111.5 -375.5v-86h-701q0 -201 70 -285.5t239 -84.5q85 0 150.5 18t194.5 76v-158q-97 -46 -178 -66t-171 -20q-279 0 -401 201q-63 -104 -157 -152.5t-232 -48.5 q-240 0 -363 140.5t-123 416.5zM311 522q0 -227 65.5 -323.5t217.5 -96.5q154 0 219.5 96t65.5 320q0 232 -64.5 329t-218.5 97q-155 0 -220 -96.5t-65 -325.5zM1077 627h496q-9 177 -60.5 247t-171.5 70q-166 0 -231 -145q-26 -69 -33 -172z" />
<glyph unicode="&#x178;" horiz-adv-x="1298" d="M47 1489h219l414 -739l373 739h198l-485 -909v-580h-199v573zM375 1753q0 51 31.5 83t82.5 32t83 -32t32 -83t-32.5 -83t-84.5 -32q-50 0 -81 32t-31 83zM725 1753q0 51 32 83t83 32t82.5 -32t31.5 -83t-32 -83t-84 -32q-50 0 -81.5 32t-31.5 83z" />
<glyph unicode="&#x2c6;" horiz-adv-x="1024" d="M184 1210l230 326h196l230 -326h-162l-166 193l-166 -193h-162z" />
<glyph unicode="&#x2dc;" horiz-adv-x="1024" d="M184 1305q51 87 104 126t120 39q48 0 120 -26q65 -23 99 -23q63 0 123 80l88 -67q-52 -89 -105 -128.5t-119 -39.5q-46 0 -120 26q-65 23 -101 23q-63 0 -121 -78z" />
<glyph unicode="&#x2000;" horiz-adv-x="1004" />
<glyph unicode="&#x2001;" horiz-adv-x="2009" />
<glyph unicode="&#x2002;" horiz-adv-x="1004" />
<glyph unicode="&#x2003;" horiz-adv-x="2009" />
<glyph unicode="&#x2004;" horiz-adv-x="669" />
<glyph unicode="&#x2005;" horiz-adv-x="502" />
<glyph unicode="&#x2006;" horiz-adv-x="334" />
<glyph unicode="&#x2007;" horiz-adv-x="334" />
<glyph unicode="&#x2008;" horiz-adv-x="251" />
<glyph unicode="&#x2009;" horiz-adv-x="401" />
<glyph unicode="&#x200a;" horiz-adv-x="111" />
<glyph unicode="&#x2010;" horiz-adv-x="614" d="M55 604v154h502v-154h-502z" />
<glyph unicode="&#x2011;" horiz-adv-x="614" d="M55 604v154h502v-154h-502z" />
<glyph unicode="&#x2012;" horiz-adv-x="614" d="M55 604v154h502v-154h-502z" />
<glyph unicode="&#x2013;" d="M150 610v148h929v-148h-929z" />
<glyph unicode="&#x2014;" d="M-109 610v148h1446v-148h-1446z" />
<glyph unicode="&#x2018;" horiz-adv-x="518" d="M109 1243q0 124 82 209t219 102v-86q-77 -20 -117.5 -63.5t-50.5 -116.5q86 -2 123.5 -28t37.5 -86q0 -57 -36 -92t-95 -35q-74 0 -118.5 53.5t-44.5 142.5z" />
<glyph unicode="&#x2019;" horiz-adv-x="518" d="M109 1040v86q76 20 116 63.5t51 117.5q-86 2 -123.5 28t-37.5 86q0 57 36 92t95 35q74 0 119 -53.5t45 -142.5q0 -124 -82 -209.5t-219 -102.5z" />
<glyph unicode="&#x201a;" horiz-adv-x="518" d="M109 -115q76 20 116 63.5t51 117.5q-86 2 -123.5 28t-37.5 86q0 57 36 92t95 35q74 0 119 -53.5t45 -142.5q0 -124 -82 -209.5t-219 -102.5v86z" />
<glyph unicode="&#x201c;" horiz-adv-x="944" d="M109 1243q0 124 82 209t219 102v-86q-77 -20 -117.5 -63.5t-50.5 -116.5q86 -2 123.5 -28t37.5 -86q0 -57 -36 -92t-95 -35q-74 0 -118.5 53.5t-44.5 142.5zM535 1243q0 124 82 209t219 102v-86q-77 -20 -117.5 -63.5t-50.5 -116.5q86 -2 123.5 -28t37.5 -86 q0 -57 -36 -92t-95 -35q-74 0 -118.5 53.5t-44.5 142.5z" />
<glyph unicode="&#x201d;" horiz-adv-x="944" d="M109 1040v86q76 20 116 63.5t51 117.5q-86 2 -123.5 28t-37.5 86q0 57 36 92t95 35q74 0 119 -53.5t45 -142.5q0 -124 -82 -209.5t-219 -102.5zM535 1040v86q76 20 116 63.5t51 117.5q-86 2 -123.5 28t-37.5 86q0 57 36 92t95 35q74 0 119 -53.5t45 -142.5 q0 -124 -82 -209.5t-219 -102.5z" />
<glyph unicode="&#x201e;" horiz-adv-x="944" d="M109 -115q76 20 116 63.5t51 117.5q-86 2 -123.5 28t-37.5 86q0 57 36 92t95 35q74 0 119 -53.5t45 -142.5q0 -124 -82 -209.5t-219 -102.5v86zM535 -115q76 20 116 63.5t51 117.5q-86 2 -123.5 28t-37.5 86q0 57 36 92t95 35q74 0 119 -53.5t45 -142.5 q0 -124 -82 -209.5t-219 -102.5v86z" />
<glyph unicode="&#x2022;" d="M307 711q0 127 89 215t218 88q131 0 219.5 -88.5t88.5 -218.5q0 -131 -89 -219.5t-219 -88.5q-132 0 -219.5 89t-87.5 223z" />
<glyph unicode="&#x2026;" horiz-adv-x="1843" d="M207 119q0 60 40 99.5t101 39.5q62 0 101.5 -40t39.5 -101q0 -62 -40 -102t-101 -40q-63 0 -102 40.5t-39 103.5zM780 119q0 60 40.5 99.5t101.5 39.5q62 0 101.5 -40t39.5 -101q0 -62 -40 -102t-101 -40q-63 0 -102.5 40.5t-39.5 103.5zM1354 119q0 60 40 99.5t101 39.5 t101 -40t40 -101q0 -62 -40 -102t-101 -40q-63 0 -102 40.5t-39 103.5z" />
<glyph unicode="&#x202f;" horiz-adv-x="401" />
<glyph unicode="&#x2039;" horiz-adv-x="610" d="M96 496v88l283 393h143l-239 -436l239 -437h-143z" />
<glyph unicode="&#x203a;" horiz-adv-x="610" d="M88 104l240 437l-240 436h143l283 -391v-88l-283 -394h-143z" />
<glyph unicode="&#x205f;" horiz-adv-x="502" />
<glyph unicode="&#x20ac;" d="M70 498v131h149v182h-149v131h155q20 139 49.5 216.5t87.5 146.5q78 91 189.5 134.5t267.5 43.5q167 0 301 -41v-164q-105 31 -168.5 42t-138.5 11q-127 0 -207.5 -41t-124.5 -127q-22 -42 -32 -86.5t-19 -134.5h442v-131h-444v-182h444v-131h-440q23 -207 109 -291 t278 -84q162 0 324 67v-159q-151 -62 -336 -62q-342 0 -488 224q-38 62 -57.5 124t-36.5 181h-155z" />
<glyph unicode="&#x2122;" horiz-adv-x="1622" d="M57 1389l9 100h567v-100h-221v-644h-133v644h-222zM752 745l16 744h158l207 -490l210 490h160v-744h-133v564l-217 -490h-74l-205 479l-10 -553h-112z" />
<glyph unicode="&#x25fc;" horiz-adv-x="1064" d="M0 0v1065h1065v-1065h-1065z" />
</font>
</defs>
</svg>
