<?xml version="1.0" standalone="no"?>
<!DOCTYPE svg PUBLIC "-//W3C//DTD SVG 1.1//EN" "http://www.w3.org/Graphics/SVG/1.1/DTD/svg11.dtd" >
<svg xmlns="http://www.w3.org/2000/svg">
<metadata></metadata>
<defs>
<font id="db_sansbold_italic" horiz-adv-x="1228" >
<font-face units-per-em="2048" ascent="1638" descent="-410" />
<missing-glyph horiz-adv-x="614" />
<glyph unicode="&#xfb01;" horiz-adv-x="1327" d="M12 -408l236 1270h-142l46 228h139l14 79q40 201 149.5 291t315.5 90h127l-47 -241q-33 8 -62 8q-66 0 -102 -36t-53 -118l-15 -73h369q118 0 164.5 5.5t77.5 24.5l76 -18l-215 -1102h-328l168 862h-352l-236 -1270h-330zM1026 1384q0 75 52 127t128 52q72 0 119 -46 t47 -118q0 -77 -52 -128.5t-128 -51.5q-74 0 -120 46t-46 119z" />
<glyph unicode="&#xfb02;" horiz-adv-x="1333" d="M12 -408l236 1270h-142l46 228h141l10 61q40 215 187 310t436 95q241 0 456 -49l-292 -1507h-328l256 1313q-55 8 -127 8q-122 0 -181.5 -37t-76.5 -123l-15 -71h183l-43 -228h-183l-233 -1270h-330z" />
<glyph unicode="&#xfb03;" horiz-adv-x="2011" d="M12 -408l236 1270h-142l46 228h141l12 63q40 204 148 292.5t315 88.5h119l-47 -242q-27 8 -60 8q-63 0 -98.5 -36t-50.5 -117l-13 -57h355l16 77q38 202 148 292.5t317 90.5h125l-47 -241q-33 8 -62 8q-64 0 -101 -37t-54 -119l-15 -71h369q118 0 165 5.5t77 24.5l76 -18 l-213 -1102h-328l166 862h-352l-236 -1270h-330l236 1270h-352l-236 -1270h-330zM1708 1384q0 75 52 127t128 52q72 0 119 -46t47 -118q0 -77 -52 -128.5t-128 -51.5q-74 0 -120 46t-46 119z" />
<glyph unicode="&#xfb04;" horiz-adv-x="2015" d="M12 -408l236 1270h-142l46 228h141l12 63q40 203 148 292t315 89h119l-47 -242q-27 8 -60 8q-63 0 -98.5 -36t-50.5 -117l-13 -57h357l10 61q41 215 187.5 310t435.5 95q240 0 458 -49l-292 -1507h-330l256 1313q-55 8 -127 8q-122 0 -181.5 -37t-76.5 -123l-15 -71h185 l-45 -228h-180l-236 -1270h-330l236 1270h-352l-236 -1270h-330z" />
<glyph horiz-adv-x="2048" />
<glyph horiz-adv-x="2048" />
<glyph unicode="&#xd;" horiz-adv-x="2048" />
<glyph unicode=" "  horiz-adv-x="614" />
<glyph unicode="&#x09;" horiz-adv-x="614" />
<glyph unicode="&#xa0;" horiz-adv-x="614" />
<glyph unicode="!" horiz-adv-x="663" d="M74 143q0 78 54.5 132.5t133.5 54.5q76 0 126 -49.5t50 -124.5q0 -82 -53.5 -136.5t-134.5 -54.5q-77 0 -126.5 50t-49.5 128zM201 467l129 1016h372l-266 -1016h-235z" />
<glyph unicode="&#x22;" horiz-adv-x="919" d="M217 926l66 563h303l-148 -563h-221zM637 926l63 563h304l-148 -563h-219z" />
<glyph unicode="#" d="M131 379l6 237h199l39 215h-176l6 238h217l74 377h202l-73 -377h178l74 377h202l-73 -377h159l-8 -238h-199l-40 -215h180l-8 -237h-220l-71 -379h-203l74 379h-181l-73 -379h-201l74 379h-158zM537 616h180l41 215h-180z" />
<glyph unicode="$" d="M25 84l51 250q141 -76 268 -98l164 391q-154 75 -218.5 161.5t-64.5 217.5q0 224 144.5 348.5t404.5 124.5q38 0 109 -6l71 165h172l-82 -190q74 -21 144 -55l-51 -256q-91 50 -201 75l-154 -368q160 -77 229.5 -167t69.5 -220q0 -223 -153.5 -353.5t-417.5 -130.5 q-58 0 -111 4l-116 -270h-174l129 291q-116 26 -213 86zM512 225q100 10 154 39q35 23 56 63t21 85q0 42 -20 74t-72 71zM549 1059q0 -44 19 -74t71 -70l131 310q-115 -3 -168 -43t-53 -123z" />
<glyph unicode="%" horiz-adv-x="1619" d="M119 0l1227 1446h221l-1227 -1446h-221zM150 1018q0 93 28.5 183t75.5 149q101 123 285 123q145 0 226 -77t81 -214q0 -206 -110 -331.5t-290 -125.5q-132 0 -214 82t-82 211zM383 981q0 -88 82 -88q41 0 65 21t41 73q15 44 27 113.5t12 109.5q0 46 -21 70.5t-59 24.5 q-41 0 -65 -21t-41 -72q-15 -44 -28 -118t-13 -113zM852 268q0 94 28.5 184.5t75.5 147.5q101 125 285 125q144 0 225.5 -78t81.5 -215q0 -206 -109.5 -331.5t-289.5 -125.5q-131 0 -214 82t-83 211zM1085 231q0 -88 84 -88q40 0 64 21.5t41 73.5q15 44 27 114.5t12 110.5 q0 94 -82 94q-40 0 -64 -21t-41 -71q-15 -46 -28 -120t-13 -114z" />
<glyph unicode="&#x26;" horiz-adv-x="1591" d="M45 360q0 112 44 209.5t124 163.5q90 76 262 133q-74 133 -74 254q0 180 132.5 291t347.5 111q177 0 281 -84.5t104 -225.5q0 -129 -86 -222.5t-281 -178.5l182 -285l201 320h291l-244 -381q-49 -76 -102 -143l16 -23q43 -55 119 -55q46 0 104 18l-49 -262 q-85 -29 -160 -29q-83 0 -146.5 29t-129.5 98q-109 -69 -207.5 -99t-218.5 -30q-200 0 -338 78q-172 97 -172 313zM401 403q0 -178 220 -178q63 0 112.5 14t106.5 48l-250 395q-101 -49 -145 -114t-44 -165zM723 1137q0 -84 65 -181q91 53 127.5 104.5t36.5 127.5 q0 54 -25 83t-71 29q-60 0 -96.5 -45.5t-36.5 -117.5z" />
<glyph unicode="'" horiz-adv-x="509" d="M221 926l66 563h303l-148 -563h-221z" />
<glyph unicode="(" horiz-adv-x="860" d="M121 420q0 447 266 829q66 95 132.5 164.5t178.5 163.5h297q-128 -137 -204 -238t-140 -221q-186 -338 -186 -737q0 -185 38 -351t126 -362h-250q-132 172 -195 356t-63 396z" />
<glyph unicode=")" horiz-adv-x="860" d="M-104 -332q128 137 203.5 237.5t140.5 219.5q186 341 186 737q0 186 -38 352.5t-126 362.5h250q132 -172 195 -356t63 -396q0 -220 -68 -431.5t-198 -397.5q-67 -95 -134 -165.5t-177 -162.5h-297z" />
<glyph unicode="*" horiz-adv-x="909" d="M166 1065l278 59l-256 86l154 205l186 -215l-18 289h258l-139 -295l239 197l93 -224l-277 -57l260 -86l-156 -205l-184 215l19 -291h-261l142 295l-242 -192z" />
<glyph unicode="+" d="M133 567l45 234h352l74 381h266l-73 -381h350l-45 -234h-350l-76 -381h-264l73 381h-352z" />
<glyph unicode="," horiz-adv-x="614" d="M-68 -317l25 120q102 29 161 77.5t85 125.5q-80 2 -122 40t-42 108q0 80 52.5 130t135.5 50q88 0 139.5 -56t51.5 -153q0 -182 -133 -303q-64 -59 -142 -89.5t-211 -49.5z" />
<glyph unicode="-" horiz-adv-x="614" d="M53 557l49 252h510l-47 -252h-512z" />
<glyph unicode="." horiz-adv-x="614" d="M43 154q0 83 56.5 138.5t140.5 55.5q78 0 130 -51t52 -129q0 -85 -56 -141t-141 -56q-79 0 -130.5 51.5t-51.5 131.5z" />
<glyph unicode="/" horiz-adv-x="976" d="M-272 -332l1187 1909h279l-1190 -1909h-276z" />
<glyph unicode="0" d="M82 473q0 83 24.5 226t61.5 272q43 153 102.5 250t151.5 163q139 97 319 97q215 0 342 -129.5t127 -347.5q0 -174 -57 -414t-125 -350q-168 -269 -471 -269q-224 0 -349.5 133t-125.5 369zM414 412q0 -199 153 -199q77 0 125 59t88 203q37 140 68 319t31 261 q0 92 -38 139t-110 47q-82 0 -129.5 -56.5t-85.5 -197.5q-36 -125 -69 -313t-33 -262z" />
<glyph unicode="1" d="M55 0l39 201h320l182 919l-322 -121l48 246l477 211h209l-244 -1255h307l-39 -201h-977z" />
<glyph unicode="2" d="M-27 0l37 195q255 173 325.5 224t237.5 185q256 206 256 445q0 161 -200 161q-97 0 -188 -24.5t-218 -85.5l53 270q210 113 449 113q220 0 339.5 -100.5t119.5 -284.5q0 -287 -262 -525q-151 -133 -424 -311h555l-78 -262h-1002z" />
<glyph unicode="3" d="M-43 -100l51 254q195 19 300.5 40t207.5 62q122 47 180 112.5t58 155.5q0 61 -41.5 90t-128.5 29q-81 0 -176 -12l-64 -10l45 233l121 16q146 19 209 62q37 23 58.5 70t21.5 104q0 119 -162 119q-87 0 -175.5 -18.5t-213.5 -63.5l47 246q222 92 430 92q192 0 300 -84 t108 -232q0 -95 -38 -176.5t-104 -128.5q-34 -25 -66.5 -39.5t-99.5 -34.5q140 -20 206.5 -84.5t66.5 -181.5q0 -148 -87.5 -270t-242.5 -191q-155 -68 -327 -102t-484 -57z" />
<glyph unicode="4" d="M-14 279l37 190l808 1061h318l-772 -1024h321l68 348l336 49l-78 -397h147l-45 -227h-145l-55 -279h-326l53 279h-667z" />
<glyph unicode="5" d="M-18 -90l49 250q189 20 281.5 38.5t185.5 55.5q120 47 177.5 115.5t57.5 162.5q0 71 -59 101.5t-197 30.5q-136 0 -278 -29l215 811h794l-73 -256h-523l-88 -316q94 25 181 25q175 0 272.5 -82.5t97.5 -230.5q0 -119 -47.5 -232t-128.5 -186q-182 -167 -586 -229 q-134 -20 -331 -29z" />
<glyph unicode="6" d="M94 465q0 173 49 355.5t127 299.5q186 277 543 371q80 22 161 33.5t234 21.5l-51 -260q-301 -26 -448.5 -133t-204.5 -340q80 60 155 87.5t164 27.5q152 0 238 -93t86 -257q0 -126 -44.5 -248.5t-119.5 -200.5q-72 -76 -178 -117t-232 -41q-221 0 -350 133.5t-129 360.5z M436 408q0 -197 148 -197q63 0 103.5 34t68.5 109q41 100 41 199q0 69 -36.5 105t-105.5 36q-106 0 -188 -61q-2 -14 -6 -25q-25 -136 -25 -200z" />
<glyph unicode="7" d="M84 -96l860 1261h-760l80 281h1034l-38 -199l-805 -1343h-371z" />
<glyph unicode="8" d="M47 340q0 274 332 383q-85 62 -121.5 129.5t-36.5 163.5q0 214 143 340.5t384 126.5q207 0 327.5 -91.5t120.5 -246.5q0 -159 -119 -266q-39 -35 -65 -50.5t-90 -42.5q112 -69 155 -137.5t43 -177.5q0 -119 -46 -222.5t-128 -166.5q-142 -111 -391 -111q-236 0 -372 98.5 t-136 270.5zM354 383q0 -83 58 -130.5t159 -47.5q103 0 165.5 56t62.5 149q0 72 -47 114t-213 117q-96 -53 -140.5 -115t-44.5 -143zM541 1071q0 -44 18 -75.5t59 -59.5q18 -12 127 -70l7 4l4 4q3 3 9 8t17.5 14.5t22.5 18.5q90 74 90 185q0 70 -44 109.5t-122 39.5 q-83 0 -135.5 -50t-52.5 -128z" />
<glyph unicode="9" d="M43 -96l51 262q326 23 483 130.5t211 342.5q-147 -115 -305 -115q-150 0 -238.5 95.5t-88.5 257.5q0 116 33.5 225t93.5 184q150 197 442 197q220 0 347.5 -135.5t127.5 -368.5q0 -112 -32 -265.5t-78 -264.5q-72 -177 -223 -299.5t-371 -182.5q-99 -27 -185.5 -39 t-267.5 -24zM504 903q0 -69 36.5 -106t104.5 -37q52 0 91 13t89 48q33 165 33 228q0 194 -143 194q-47 0 -89 -28t-65 -74t-40 -116.5t-17 -121.5z" />
<glyph unicode=":" horiz-adv-x="614" d="M59 154q0 83 56.5 138.5t140.5 55.5q78 0 130 -51t52 -129q0 -85 -55.5 -141t-140.5 -56q-80 0 -131.5 51.5t-51.5 131.5zM182 788q0 83 57 139t140 56q78 0 130 -51t52 -129q0 -85 -55.5 -141t-140.5 -56q-80 0 -131.5 51.5t-51.5 130.5z" />
<glyph unicode=";" horiz-adv-x="614" d="M-49 -317l24 120q102 29 161 77.5t85 125.5q-80 2 -122 40t-42 108q0 79 53 129.5t136 50.5q88 0 139 -56t51 -153q0 -182 -133 -303q-64 -59 -141.5 -89.5t-210.5 -49.5zM182 788q0 83 57 139t140 56q78 0 130 -51t52 -129q0 -85 -55.5 -141t-140.5 -56 q-80 0 -131.5 51.5t-51.5 130.5z" />
<glyph unicode="&#x3c;" d="M164 565l45 236l958 348l-53 -270l-637 -205l557 -207l-47 -248z" />
<glyph unicode="=" d="M117 381l43 225h934l-45 -225h-932zM190 764l46 225h931l-43 -225h-934z" />
<glyph unicode="&#x3e;" d="M117 219l53 270l637 205l-557 207l47 248l823 -346l-45 -236z" />
<glyph unicode="?" horiz-adv-x="972" d="M88 150q0 78 54.5 132t133.5 54q76 0 126.5 -49.5t50.5 -124.5q0 -82 -53.5 -136.5t-133.5 -54.5q-78 0 -128 50.5t-50 128.5zM178 1190l49 260q101 40 185 56t186 16q209 0 317.5 -87.5t108.5 -254.5q0 -163 -96 -279q-34 -41 -84.5 -78t-159.5 -100 q-115 -64 -154 -100.5t-53 -90.5l-10 -59h-264l20 113q25 103 74.5 163.5t175.5 139.5q114 72 151.5 121.5t37.5 126.5q0 63 -39 91.5t-125 28.5q-146 0 -320 -67z" />
<glyph unicode="@" horiz-adv-x="1792" d="M86 401q0 196 71 371t193.5 300t293 198t362.5 73q318 0 512 -175.5t194 -462.5q0 -261 -138.5 -427.5t-356.5 -166.5q-207 0 -265 151q-121 -145 -266 -145q-94 0 -146.5 62.5t-52.5 172.5q0 103 33.5 229t79.5 193q105 154 287 154q66 0 114.5 -21t98.5 -71l63 90h185 l-129 -492q-15 -56 -15 -84q0 -78 70 -78q107 0 181.5 124.5t74.5 305.5q0 230 -143 362t-392 132q-155 0 -289.5 -59t-229 -163.5t-148.5 -252t-54 -318.5q0 -534 564 -534q146 0 280.5 32t284.5 101l-27 -162q-128 -65 -251.5 -93t-280.5 -28q-356 0 -557 180.5 t-201 501.5zM752 387q0 -76 65 -76q37 0 65.5 18t63.5 62l82 318q-39 36 -86 36q-51 0 -82.5 -29t-56.5 -98q-51 -148 -51 -231z" />
<glyph unicode="A" horiz-adv-x="1505" d="M-61 0l864 1491h280l275 -1491h-363l-51 313h-522l-172 -313h-311zM549 545h356l-82 495z" />
<glyph unicode="B" horiz-adv-x="1402" d="M55 0l289 1489h541q222 0 339 -85.5t117 -246.5q0 -163 -94 -260q-40 -43 -87.5 -67t-133.5 -44q145 -26 211 -100.5t66 -210.5q0 -235 -164 -355t-484 -120h-600zM461 258h213q143 0 212.5 62.5t69.5 189.5q0 162 -198 162h-217zM582 891h198q100 0 152.5 52t52.5 153 q0 131 -158 131h-180z" />
<glyph unicode="C" horiz-adv-x="1277" d="M106 541q0 163 54 355.5t131 307.5q110 163 274.5 240.5t397.5 77.5q222 0 383 -74l-52 -266q-167 73 -338 73q-139 0 -230 -58.5t-148 -184.5q-40 -91 -71.5 -241.5t-31.5 -252.5q0 -280 297 -280q158 0 371 79l-49 -262q-178 -84 -385 -84q-287 0 -445 149t-158 421z " />
<glyph unicode="D" horiz-adv-x="1533" d="M55 0l289 1489h543q299 0 457.5 -135.5t158.5 -392.5q0 -110 -26.5 -247t-67.5 -245q-180 -469 -762 -469h-592zM467 262h192q242 0 351 172q49 78 86 231t37 279q0 277 -297 277h-183z" />
<glyph unicode="E" horiz-adv-x="1306" d="M55 0l289 1489h1010l-54 -279h-651l-63 -321h512l-51 -262h-512l-68 -351h713l-80 -276h-1045z" />
<glyph unicode="F" horiz-adv-x="1275" d="M55 0l289 1489h1002l-56 -279h-639l-73 -372h532l-49 -260h-533l-112 -578h-361z" />
<glyph unicode="G" horiz-adv-x="1495" d="M106 535q0 185 57.5 379t147.5 311q230 297 715 297q228 0 412 -68l-54 -278q-181 77 -374 77q-160 0 -262.5 -54t-163.5 -171q-41 -79 -75 -234t-34 -264q0 -299 340 -299q85 0 170 23l55 278h-245l51 261h577l-141 -725q-246 -97 -506 -97q-324 0 -497 145t-173 419z " />
<glyph unicode="H" horiz-adv-x="1593" d="M55 0l289 1489h361l-115 -590h553l114 590h361l-291 -1489h-358l121 625h-553l-121 -625h-361z" />
<glyph unicode="I" horiz-adv-x="864" d="M-23 0l39 201h168l213 1087h-170l39 201h699l-39 -201h-170l-211 -1087h168l-39 -201h-697z" />
<glyph unicode="J" horiz-adv-x="692" d="M-227 -430l51 264q119 10 175.5 59t76.5 158l278 1438h361l-283 -1456q-50 -240 -202 -347t-457 -116z" />
<glyph unicode="K" horiz-adv-x="1456" d="M55 0l289 1489h361l-134 -678l623 678h383l-686 -731l438 -758h-381l-399 696l-135 -696h-359z" />
<glyph unicode="L" horiz-adv-x="1187" d="M55 0l289 1489h358l-235 -1213h625l-78 -276h-959z" />
<glyph unicode="M" horiz-adv-x="1871" d="M31 0l346 1489h387l174 -856l535 856h421l-288 -1489h-359l193 987l-527 -833h-194l-168 815l-223 -969h-297z" />
<glyph unicode="N" horiz-adv-x="1556" d="M55 0l289 1489h303l463 -885l172 885h297l-289 -1489h-237l-510 969l-189 -969h-299z" />
<glyph unicode="O" horiz-adv-x="1579" d="M111 573q0 183 58.5 363t158.5 303q231 283 614 283q284 0 445 -157t161 -435q0 -103 -26.5 -235.5t-69.5 -241.5q-91 -232 -281 -357t-452 -125q-280 0 -444 162.5t-164 439.5zM475 526q0 -301 264 -301q114 0 200.5 61t133.5 175q46 110 77.5 261t31.5 257 q0 142 -68 215.5t-199 73.5q-114 0 -200.5 -62.5t-132.5 -177.5q-43 -109 -75 -259t-32 -243z" />
<glyph unicode="P" horiz-adv-x="1363" d="M55 0l289 1489h559q230 0 356.5 -101.5t126.5 -287.5q0 -138 -57 -258t-155 -189q-149 -102 -408 -102q-129 0 -240 20l-110 -571h-361zM571 809q91 -16 185 -16q138 0 210 72t72 210q0 72 -49 112t-141 40h-195z" />
<glyph unicode="Q" horiz-adv-x="1579" d="M111 571q0 182 59 364.5t158 305.5q232 281 614 281q284 0 445 -156.5t161 -433.5q0 -174 -57 -364.5t-145 -307.5q-157 -212 -433 -268q11 -87 83.5 -121t265.5 -41l-45 -233q-342 4 -488.5 91.5t-163.5 297.5q-215 43 -334.5 197t-119.5 388zM475 524q0 -301 264 -301 q114 0 200.5 61t133.5 175q46 110 77.5 261.5t31.5 258.5q0 142 -68 215.5t-199 73.5q-114 0 -200.5 -62.5t-132.5 -177.5q-43 -109 -75 -259t-32 -245z" />
<glyph unicode="R" horiz-adv-x="1417" d="M55 0l289 1489h549q233 0 355 -93.5t122 -271.5q0 -223 -137 -336q-80 -67 -234 -108q96 -39 152 -184l186 -496h-364l-162 449q-31 83 -72 116t-116 33h-93l-116 -598h-359zM578 834h186q134 0 198 60.5t64 186.5q0 71 -47.5 108.5t-138.5 37.5h-187z" />
<glyph unicode="S" horiz-adv-x="1157" d="M-16 86l53 270q122 -66 212.5 -91t201.5 -25q122 0 192 47.5t70 130.5q0 39 -18 69.5t-60 61.5q-34 26 -180 104q-149 78 -209 165t-60 222q0 229 149 355.5t419 126.5q221 0 420 -86l-54 -277q-103 54 -183.5 75t-176.5 21q-240 0 -240 -161q0 -44 15.5 -69.5t60.5 -55 t152 -82.5q174 -88 243.5 -179.5t69.5 -234.5q0 -235 -156 -367.5t-434 -132.5q-147 0 -260.5 26.5t-226.5 86.5z" />
<glyph unicode="T" horiz-adv-x="1323" d="M186 1210l78 279h1176l-54 -279h-419l-236 -1210h-358l235 1210h-422z" />
<glyph unicode="U" horiz-adv-x="1531" d="M141 440q0 71 19 166l172 883h362l-180 -926q-14 -80 -14 -117q0 -221 266 -221q141 0 214 72.5t107 247.5l185 944h295l-189 -973q-41 -218 -133 -338q-82 -106 -204 -156.5t-296 -50.5q-296 0 -450 119.5t-154 349.5z" />
<glyph unicode="V" horiz-adv-x="1445" d="M223 1489h361l149 -1012l539 1012h317l-829 -1491h-281z" />
<glyph unicode="W" horiz-adv-x="2017" d="M236 1489h362l8 -981l465 981h275l61 -981l430 981h311l-696 -1491h-317l-58 956l-463 -956h-313z" />
<glyph unicode="X" horiz-adv-x="1472" d="M-61 0l622 778l-295 711h385l197 -492l360 492h351l-564 -719l330 -770h-389l-223 551l-426 -551h-348z" />
<glyph unicode="Y" horiz-adv-x="1406" d="M219 1489h367l219 -635l422 635h327l-651 -942l-106 -547h-361l115 584z" />
<glyph unicode="Z" horiz-adv-x="1331" d="M-29 0l47 244l885 966h-655l76 279h1093l-47 -244l-885 -969h709l-72 -276h-1151z" />
<glyph unicode="[" horiz-adv-x="860" d="M12 -332l371 1909h625l-43 -225h-306l-284 -1458h305l-43 -226h-625z" />
<glyph unicode="\" horiz-adv-x="976" d="M188 1577h258l455 -1909h-256z" />
<glyph unicode="]" horiz-adv-x="860" d="M-119 -336l43 225h305l287 1473h-305l45 225h625l-375 -1923h-625z" />
<glyph unicode="^" d="M188 862l476 627h262l235 -627h-248l-163 330l-295 -330h-267z" />
<glyph unicode="_" horiz-adv-x="614" d="M-283 -422l39 205h805l-41 -205h-803z" />
<glyph unicode="`" horiz-adv-x="1024" d="M393 1556h320l96 -333h-242z" />
<glyph unicode="a" horiz-adv-x="1253" d="M61 336q0 147 42 303t106 248q77 110 187.5 169.5t240.5 59.5q179 0 299 -123l68 97h210l-149 -768q-8 -44 -8 -58q0 -51 51 -51q14 0 49 6l-39 -209q-73 -33 -164 -33q-107 0 -161.5 43.5t-69.5 141.5q-89 -101 -174.5 -147t-183.5 -46q-145 0 -224.5 96t-79.5 271z M399 358q0 -78 31.5 -118.5t91.5 -40.5q53 0 100 23t111 81l105 541q-61 39 -140 39q-78 0 -136.5 -41.5t-90.5 -118.5q-29 -69 -50.5 -178t-21.5 -187z" />
<glyph unicode="b" horiz-adv-x="1263" d="M25 0l286 1481q194 6 264 67h78l-123 -635q99 105 190 154t189 49q136 0 213.5 -95t77.5 -261q0 -195 -61 -378t-158 -280q-135 -135 -334 -135q-101 0 -177.5 36t-147.5 116l-82 -119h-215zM397 231q76 -43 158 -43q154 0 221 140q32 67 58 185.5t26 195.5 q0 69 -34.5 107t-96.5 38q-53 0 -101.5 -23t-129.5 -86z" />
<glyph unicode="c" horiz-adv-x="1021" d="M72 403q0 167 50.5 313.5t139.5 237.5q170 170 459 170q92 0 159.5 -13.5t145.5 -47.5l-47 -244q-71 31 -123.5 43t-118.5 12q-197 0 -262 -143q-29 -58 -49 -150t-20 -163q0 -99 53 -150t155 -51q64 0 121 13t164 53l-47 -240q-158 -76 -328 -76q-216 0 -334 114 t-118 322z" />
<glyph unicode="d" horiz-adv-x="1263" d="M59 319q0 139 43 304.5t103 257.5q73 114 184.5 173.5t251.5 59.5q75 0 135 -21.5t123 -70.5l90 459q190 6 260 67h82l-301 -1548h-215l-55 190q-106 -126 -189.5 -174.5t-193.5 -48.5q-154 0 -236 91t-82 261zM401 365q0 -74 34 -114t97 -40q52 0 103.5 24.5t128.5 86.5 l98 505q-46 29 -83 40.5t-87 11.5q-82 0 -135.5 -40.5t-87.5 -127.5q-26 -62 -47 -170.5t-21 -175.5z" />
<glyph unicode="e" horiz-adv-x="1128" d="M70 387q0 158 48.5 304.5t131.5 240.5q168 192 457 192q183 0 287 -82.5t104 -228.5q0 -125 -75.5 -209.5t-221.5 -124.5q-84 -23 -160.5 -32t-234.5 -15q-3 -27 -3 -41q0 -94 51.5 -134t170.5 -40q78 0 145 14t188 56l-47 -242q-114 -44 -194.5 -61t-179.5 -17 q-227 0 -347 108t-120 312zM434 616q211 13 282.5 45.5t71.5 114.5q0 59 -32 90t-92 31q-95 0 -148.5 -65t-81.5 -216z" />
<glyph unicode="f" horiz-adv-x="794" d="M12 -408l236 1270h-142l46 228h139l16 79q38 195 152.5 288t316.5 93h191l-47 -241q-49 8 -84 8q-95 0 -140.5 -34.5t-62.5 -119.5l-15 -73h232l-45 -228h-227l-236 -1270h-330z" />
<glyph unicode="g" horiz-adv-x="1261" d="M4 -365l49 252l45 -16q103 -34 164.5 -46.5t132.5 -12.5q145 0 215 54t95 185l34 172q-91 -104 -174.5 -150t-183.5 -46q-148 0 -231.5 90t-83.5 248q0 137 44.5 295.5t108.5 248.5q150 207 424 207q180 0 309 -112l58 88h225l-205 -1057q-47 -245 -195 -358t-421 -113 q-211 0 -410 71zM406 403q0 -65 32.5 -100t93.5 -35q52 0 104 23t132 82l88 454q-79 52 -166 52q-76 0 -134 -37t-87 -105q-23 -59 -43 -163t-20 -171z" />
<glyph unicode="h" horiz-adv-x="1239" d="M25 0l286 1481q191 3 264 67h80l-129 -653q118 117 217.5 169t202.5 52q109 0 167 -58t58 -165q0 -53 -12 -123l-147 -770h-330l131 682q8 58 8 72q0 44 -24 68t-68 24q-54 0 -105 -23t-126 -82l-146 -741h-327z" />
<glyph unicode="i" horiz-adv-x="663" d="M92 0l164 840h-133l45 231h94q106 0 169 11.5t104 39.5l98 -20l-213 -1102h-328zM362 1384q0 75 52 127t127 52q72 0 119 -46.5t47 -117.5q0 -77 -51.5 -128.5t-127.5 -51.5q-74 0 -120 46t-46 119z" />
<glyph unicode="j" horiz-adv-x="667" d="M-143 -424l45 234q85 7 130 49.5t64 130.5l166 850h-135l45 231h96q198 0 271 51l100 -20l-221 -1137q-40 -197 -168.5 -286.5t-392.5 -102.5zM367 1384q0 75 52 127t128 52q72 0 119 -46t47 -118q0 -76 -52 -128t-129 -52q-74 0 -119.5 45.5t-45.5 119.5z" />
<glyph unicode="k" horiz-adv-x="1163" d="M25 0l286 1479q196 9 262 69h82l-178 -901l406 443h329l-403 -449l229 -641h-336l-157 444l-131 -129l-62 -315h-327z" />
<glyph unicode="l" horiz-adv-x="641" d="M70 0l245 1266h-137l45 229h99q200 0 276 53h98l-301 -1548h-325z" />
<glyph unicode="m" horiz-adv-x="1828" d="M25 0l202 1053q192 6 262 67l78 -18l-41 -207q203 221 396 221q95 0 143 -50.5t63 -166.5q211 217 414 217q106 0 163.5 -59.5t57.5 -171.5q0 -58 -14 -129l-145 -756h-330l133 680q10 44 10 78q0 42 -24 65t-68 23q-48 0 -89.5 -20t-111.5 -76l-147 -750h-328l133 680 q11 54 11 74q0 92 -93 92q-50 0 -93 -20.5t-109 -75.5l-146 -750h-327z" />
<glyph unicode="n" horiz-adv-x="1236" d="M25 0l202 1053q192 6 262 67l80 -18l-43 -205q118 115 218.5 167t203.5 52q109 0 167.5 -58.5t58.5 -168.5q0 -48 -17 -129l-145 -760h-330l131 680q8 47 8 72q0 94 -92 94q-53 0 -106 -24t-125 -81l-146 -741h-327z" />
<glyph unicode="o" horiz-adv-x="1224" d="M68 401q0 146 50 294.5t128 238.5q82 92 198 141t254 49q211 0 335 -113t124 -306q0 -119 -34.5 -253.5t-88.5 -218.5q-82 -131 -211.5 -198.5t-298.5 -67.5q-212 0 -334 116.5t-122 317.5zM399 377q0 -178 152 -178q77 0 127 40t82 128q23 66 43 180t20 180 q0 168 -151 168q-79 0 -127.5 -43t-83.5 -145q-23 -68 -42.5 -172.5t-19.5 -157.5z" />
<glyph unicode="p" horiz-adv-x="1265" d="M-55 -408l284 1461q190 6 263 67l77 -16l-37 -191q183 203 379 203q137 0 214 -94.5t77 -263.5q0 -140 -38.5 -295t-96.5 -250q-149 -246 -420 -246q-167 0 -278 105l-95 -480h-329zM399 231q78 -41 164 -41q159 0 228 162q27 65 49 175.5t22 181.5q0 68 -35 106.5 t-96 38.5q-53 0 -104.5 -24t-128.5 -85z" />
<glyph unicode="q" horiz-adv-x="1267" d="M59 322q0 139 42 302t102 257q151 235 444 235q195 0 314 -125l69 101h213l-293 -1500h-329l110 564q-94 -105 -173 -147t-181 -42q-154 0 -236 91.5t-82 263.5zM401 367q0 -75 33.5 -115.5t95.5 -40.5q54 0 104.5 25t129.5 88l96 503q-45 30 -80.5 41t-85.5 11 q-85 0 -138 -39.5t-87 -128.5q-26 -62 -47 -169.5t-21 -174.5z" />
<glyph unicode="r" horiz-adv-x="925" d="M-45 0l41 209h135l125 631h-137l45 231h98q108 0 170.5 11.5t102.5 37.5l100 -18l-47 -234q181 228 391 246l-61 -301q-202 -18 -357 -86l-102 -518h180l-41 -209h-643z" />
<glyph unicode="s" horiz-adv-x="970" d="M-6 70l45 235q105 -58 183.5 -81t168.5 -23q160 0 160 102q0 54 -59 88q-30 18 -146 66q-118 51 -167.5 119.5t-49.5 179.5q0 175 114.5 270.5t325.5 95.5q107 0 184 -18.5t173 -67.5l-45 -235q-92 49 -161 68.5t-153 19.5q-147 0 -147 -90q0 -35 27 -59t104 -56 q179 -75 238 -140t59 -186q0 -188 -116 -287.5t-335 -99.5q-123 0 -211.5 22t-191.5 77z" />
<glyph unicode="t" horiz-adv-x="821" d="M109 862l45 228h18q74 0 120 28t75 92l59 125h236l-48 -245h244l-45 -228h-244l-94 -487q-8 -31 -8 -66q0 -84 115 -84q56 0 133 29l-47 -240q-90 -37 -217 -37q-324 0 -324 242q0 56 14 127l103 516h-135z" />
<glyph unicode="u" d="M70 229q0 59 16 140l135 700l336 27l-133 -684q-10 -49 -10 -84q0 -48 25.5 -74.5t72.5 -26.5q46 0 91.5 19.5t117.5 70.5l147 752l334 27l-213 -1096h-221l-45 176q-114 -109 -210 -158t-196 -49q-118 0 -182.5 68.5t-64.5 191.5z" />
<glyph unicode="v" horiz-adv-x="1130" d="M127 1090h326l100 -656l367 656h297l-646 -1092h-239z" />
<glyph unicode="w" horiz-adv-x="1601" d="M145 1090h330l37 -641l315 641h203l80 -641l289 641h280l-538 -1092h-240l-72 651l-344 -651h-233z" />
<glyph unicode="x" horiz-adv-x="1169" d="M-70 0l465 563l-229 527h350l123 -336l244 336h315l-420 -521l252 -569h-348l-147 379l-289 -379h-316z" />
<glyph unicode="y" horiz-adv-x="1140" d="M12 -408l334 523l-215 975h330l108 -605l359 605h299l-916 -1498h-299z" />
<glyph unicode="z" horiz-adv-x="1030" d="M-35 0l39 195l612 667h-436l43 228h836l-39 -199l-617 -666h492l-43 -225h-887z" />
<glyph unicode="{" horiz-adv-x="860" d="M35 530l45 236q110 3 167 50.5t79 156.5l39 203q29 150 94 236.5t180 125.5t301 39h72l-43 -225h-39q-110 0 -170 -50.5t-82 -160.5l-39 -203q-28 -136 -96 -206t-207 -105q101 -31 145.5 -83t44.5 -141q0 -45 -8 -84l-45 -231q-10 -46 -10 -80q0 -61 43 -87.5t143 -26.5 h35l-43 -226h-43q-457 0 -457 303q0 46 13 113l47 240q6 35 6 71q0 61 -36 89.5t-136 45.5z" />
<glyph unicode="|" horiz-adv-x="614" d="M203 -334v1950h278v-1950h-278z" />
<glyph unicode="}" horiz-adv-x="860" d="M-123 -332l43 226h39q110 0 170 50t82 160l41 209q28 137 96.5 208t206.5 106q-101 29 -145.5 81.5t-44.5 143.5q0 46 8 82l45 231q8 41 8 72q0 62 -43 88.5t-143 26.5h-35l43 225h43q457 0 457 -301q0 -55 -13 -115l-45 -233q-6 -30 -6 -70q0 -63 36 -91.5t136 -45.5 l-45 -234q-112 -4 -168 -51.5t-78 -154.5l-41 -211q-43 -223 -171.5 -312.5t-403.5 -89.5h-72z" />
<glyph unicode="~" d="M158 653q97 100 185.5 145.5t186.5 45.5q68 0 164 -29q94 -27 140 -27q50 0 88.5 15t111.5 63l90 -151q-97 -101 -184.5 -146t-187.5 -45q-67 0 -160 29q-95 27 -139 27q-52 0 -92.5 -16t-112.5 -62z" />
<glyph unicode="&#xa1;" horiz-adv-x="663" d="M-6 -236l266 1016h236l-129 -1016h-373zM258 1096q0 78 54.5 132t133.5 54q76 0 126.5 -49.5t50.5 -124.5q0 -82 -53.5 -136t-135.5 -54q-77 0 -126.5 50t-49.5 128z" />
<glyph unicode="&#xa2;" d="M133 422q0 158 52 300.5t143 231.5q170 170 469 170q67 0 147 -12l94 180h179l-113 -221l39 -12l-47 -240q-69 26 -105 35l-332 -637q16 -2 43 -2q134 0 316 66l-47 -238q-155 -76 -338 -76q-51 0 -98 8l-140 -268h-178l160 311q-120 57 -182 160t-62 244zM465 422 q0 -89 49 -141l307 593q-96 0 -160 -27t-108 -87q-36 -50 -62 -150t-26 -188z" />
<glyph unicode="&#xa3;" d="M35 0l51 266h135l66 344h-135l45 232h135l39 196q43 218 192 331.5t393 113.5q190 0 326 -62l-49 -264q-115 55 -252 55q-122 0 -187 -51.5t-87 -165.5l-31 -153h346l-45 -232h-346l-66 -344h539l-78 -266h-991z" />
<glyph unicode="&#xa4;" d="M70 291l129 131q-44 74 -63 142t-19 155q0 88 18.5 154.5t63.5 144.5l-129 131l133 135l125 -127q137 92 313 92q96 0 168.5 -21.5t144.5 -70.5l125 127l133 -135l-129 -131q84 -131 84 -299q0 -166 -84 -297l129 -131l-133 -135l-125 127q-130 -95 -313 -95 q-94 0 -167 22t-146 73l-125 -127zM399 723q0 -128 70 -201q37 -37 76 -52t98 -15q113 0 177.5 70.5t64.5 193.5t-64.5 193.5t-177.5 70.5t-178.5 -70t-65.5 -190z" />
<glyph unicode="&#xa5;" d="M57 299l33 172h340l25 127h-340l35 172h299l-252 676h352l156 -502l342 502h329l-506 -676h304l-33 -172h-338l-25 -127h338l-35 -172h-338l-57 -299h-348l57 299h-338z" />
<glyph unicode="&#xa6;" horiz-adv-x="614" d="M43 0l119 606h315l-119 -606h-315zM215 883l117 606h315l-117 -606h-315z" />
<glyph unicode="&#xa7;" d="M23 -258l47 252q93 -56 165 -79.5t154 -23.5q90 0 138 34.5t48 99.5q0 31 -5.5 48.5t-31.5 39.5t-65 43t-121 61q-129 63 -185 134t-56 171q0 129 79 211q37 40 83 63.5t128 45.5q-65 91 -65 211q0 202 132 314t370 112q93 0 161.5 -15.5t167.5 -58.5l-49 -250 q-87 43 -148 59.5t-134 16.5q-185 0 -185 -129q0 -51 35.5 -83t147.5 -81q175 -78 235.5 -142t60.5 -171q0 -132 -71 -213.5t-223 -122.5q65 -87 65 -205q0 -211 -130.5 -323.5t-375.5 -112.5q-113 0 -197 21.5t-175 72.5zM432 600q0 -85 115 -141l117 -56q143 29 143 129 q0 82 -131 146l-107 49q-73 -13 -105 -43.5t-32 -83.5z" />
<glyph unicode="&#xa8;" horiz-adv-x="1024" d="M303 1382q0 74 48.5 122t123.5 48q66 0 110 -43.5t44 -109.5q0 -73 -48 -121.5t-120 -48.5q-69 0 -113.5 43t-44.5 110zM723 1384q0 72 48 120t120 48q68 0 112 -43t44 -110q0 -73 -48 -121.5t-120 -48.5q-69 0 -112.5 43t-43.5 112z" />
<glyph unicode="&#xa9;" horiz-adv-x="1777" d="M150 756q0 139 49 274t137 238q218 256 592 256q376 0 592 -256q90 -104 138 -238.5t48 -281.5q0 -148 -47.5 -283t-138.5 -240q-215 -256 -590 -256q-376 0 -594 256q-186 216 -186 531zM281 754q0 -298 181 -486t468 -188q186 0 333.5 85.5t229.5 238t82 344.5 q0 191 -82.5 343t-230.5 237t-334 85q-185 0 -333 -85t-231 -235.5t-83 -338.5zM567 741q0 202 106.5 312t303.5 110q117 0 207 -35v-182q-92 35 -172 35q-104 0 -144.5 -52t-40.5 -184q0 -127 41.5 -178t141.5 -51q86 0 178 35v-172q-76 -45 -215 -45q-199 0 -302.5 103.5 t-103.5 303.5z" />
<glyph unicode="&#xaa;" horiz-adv-x="995" d="M96 831q0 136 41 281t103 227q129 172 350 172q80 0 138.5 -24.5t117.5 -83.5l61 86h185l-131 -684q-11 -56 -11 -86q0 -81 39 -117l-10 -49h-266l-35 141q-145 -170 -316 -170q-125 0 -195.5 81.5t-70.5 225.5zM393 854q0 -129 94 -129q89 0 189 92l90 461 q-50 31 -117 31q-145 0 -194 -129q-25 -61 -43.5 -159.5t-18.5 -166.5z" />
<glyph unicode="&#xab;" horiz-adv-x="1093" d="M76 475l28 141l312 361h231l-287 -447l121 -440h-209zM518 475l29 141l313 361h232l-287 -447l121 -440h-211z" />
<glyph unicode="&#xac;" d="M203 567l45 234h782l-112 -578h-267l68 344h-516z" />
<glyph unicode="&#xad;" horiz-adv-x="614" d="M53 557l49 252h510l-47 -252h-512z" />
<glyph unicode="&#xae;" horiz-adv-x="1245" d="M162 987q0 239 154.5 396t390.5 157q238 0 391 -156.5t153 -402.5q0 -244 -153 -401.5t-389 -157.5q-243 0 -395 157t-152 408zM279 987q0 -206 118.5 -332.5t311.5 -126.5q189 0 307.5 126.5t118.5 326.5q0 201 -119 327t-309 126q-188 0 -308 -125.5t-120 -321.5z M500 737v508h227q94 0 142.5 -37.5t48.5 -109.5q0 -100 -103 -129q17 -9 28 -22.5t29 -45.5l91 -164h-160l-78 148q-12 25 -23.5 33t-33.5 8h-19v-189h-149zM643 1016h68q34 0 49.5 14.5t15.5 46.5q0 33 -15 47.5t-48 14.5h-70v-123z" />
<glyph unicode="&#xaf;" horiz-adv-x="1024" d="M358 1268l45 229h586l-43 -229h-588z" />
<glyph unicode="&#xb0;" horiz-adv-x="819" d="M178 1149q0 140 101 237t247 97q148 0 247 -97.5t99 -242.5q0 -143 -99.5 -240.5t-246.5 -97.5q-151 0 -249.5 97.5t-98.5 246.5zM362 1147q0 -76 46 -125t118 -49q71 0 116.5 48.5t45.5 123.5q0 74 -46 122t-118 48q-69 0 -115.5 -48t-46.5 -120z" />
<glyph unicode="&#xb1;" d="M23 0l45 233h968l-45 -233h-968zM143 621l45 233h353l65 342h266l-65 -342h350l-45 -233h-350l-62 -314h-266l62 314h-353z" />
<glyph unicode="&#xb2;" horiz-adv-x="778" d="M86 719l27 141q153 85 207 117.5t110 71.5q156 108 156 184t-121 76q-108 0 -254 -62l37 189q130 55 287 55q146 0 223.5 -54t77.5 -155q0 -112 -71.5 -199t-242.5 -186h262l-59 -178h-639z" />
<glyph unicode="&#xb3;" horiz-adv-x="778" d="M84 670l37 174q222 15 326 48t104 89q0 59 -96 59q-55 0 -101 -4l-53 -6l31 148l80 8q153 17 153 82q0 55 -96 55q-93 0 -238 -45l31 166q83 27 140.5 37t127.5 10q134 0 202.5 -45t68.5 -133q0 -58 -29 -105t-80 -73q57 -20 81 -51t24 -83q0 -112 -79.5 -181 t-254.5 -107q-128 -28 -379 -43z" />
<glyph unicode="&#xb4;" horiz-adv-x="1024" d="M500 1223l164 333h325l-241 -333h-248z" />
<glyph unicode="&#xb5;" d="M-61 -408l286 1477l334 31l-131 -676q-12 -73 -12 -94q0 -92 110 -92q94 0 209 67l150 764l334 31l-213 -1100h-258l-25 164q-109 -101 -191.5 -141t-189.5 -43l-76 -388h-327z" />
<glyph unicode="&#xb6;" d="M111 938q0 100 28.5 197t77.5 161q147 193 496 193h549l-332 -1706h-275l289 1485h-192l-138 -709q-25 -2 -55 -2q-218 0 -333 98t-115 283z" />
<glyph unicode="&#xb7;" horiz-adv-x="614" d="M143 674q0 82 56.5 138t138.5 56q79 0 130.5 -51t51.5 -129q0 -85 -55.5 -140.5t-138.5 -55.5q-80 0 -131.5 51.5t-51.5 130.5z" />
<glyph unicode="&#xb8;" horiz-adv-x="1024" d="M139 -346l180 346h242l-112 -346h-310z" />
<glyph unicode="&#xb9;" horiz-adv-x="778" d="M154 719l28 147h174l78 396l-194 -62l32 174l301 107h146l-119 -615h160l-29 -147h-577z" />
<glyph unicode="&#xba;" horiz-adv-x="995" d="M125 885q0 97 26.5 208.5t65.5 178.5q64 115 177.5 176t262.5 61q184 0 290 -96.5t106 -263.5q0 -159 -53 -297.5t-144 -214.5q-131 -113 -336 -113q-183 0 -289 97.5t-106 263.5zM410 870q0 -73 31 -108t96 -35q64 0 105 33.5t69 107.5q21 54 39 151t18 152 q0 68 -33 104t-96 36q-120 0 -166 -125q-21 -59 -42 -165t-21 -151z" />
<glyph unicode="&#xbb;" horiz-adv-x="1093" d="M0 90l287 447l-121 440h209l196 -385l-28 -141l-312 -361h-231zM444 90l287 447l-123 440h211l197 -385l-29 -141l-313 -361h-230z" />
<glyph unicode="&#xbc;" horiz-adv-x="1843" d="M190 719l29 147h174l78 396l-195 -62l33 174l301 107h146l-119 -615h160l-29 -147h-578zM240 0l1210 1446h223l-1212 -1446h-221zM897 135l27 135l467 529h247l-442 -504h172l33 170l205 27l-39 -197h84l-33 -160h-82l-27 -135h-198l24 135h-438z" />
<glyph unicode="&#xbd;" horiz-adv-x="1843" d="M182 719l29 147h174l78 396l-195 -62l33 174l301 107h146l-119 -615h159l-28 -147h-578zM223 0l1211 1446h223l-1213 -1446h-221zM963 0l28 141q276 153 373.5 231t97.5 144q0 76 -121 76q-101 0 -254 -62l37 187q131 57 287 57q146 0 223.5 -54t77.5 -155 q0 -112 -71.5 -200.5t-241.5 -186.5h262l-59 -178h-639z" />
<glyph unicode="&#xbe;" horiz-adv-x="1843" d="M145 670l37 174q222 15 326 48t104 89q0 59 -96 59q-54 0 -100 -4l-54 -6l31 148l80 8q154 17 154 82q0 55 -97 55q-92 0 -237 -45l31 166q83 27 140.5 37t127.5 10q270 0 270 -178q0 -58 -28.5 -105t-79.5 -73q57 -20 80.5 -50.5t23.5 -83.5q0 -112 -79.5 -181 t-254.5 -107q-128 -28 -379 -43zM260 0l1210 1446h224l-1213 -1446h-221zM901 135l27 135l467 529h247l-442 -504h172l33 170l205 27l-39 -197h82l-31 -160h-82l-27 -135h-198l24 135h-438z" />
<glyph unicode="&#xbf;" horiz-adv-x="972" d="M-49 72q0 174 104 290q33 36 82.5 70.5t153.5 95.5q118 68 156.5 103.5t50.5 89.5l12 59h264l-22 -112q-23 -103 -74 -164.5t-176 -138.5q-101 -66 -140 -107q-49 -58 -49 -141q0 -64 38.5 -92.5t125.5 -28.5q143 0 322 67l-51 -260q-100 -39 -184 -55t-187 -16 q-209 0 -317.5 87t-108.5 253zM524 1096q0 78 55 132t134 54q77 0 126.5 -50t49.5 -126q0 -80 -54 -134t-135 -54q-77 0 -126.5 50t-49.5 128z" />
<glyph unicode="&#xc0;" horiz-adv-x="1505" d="M-61 0l864 1491h280l275 -1491h-363l-51 313h-522l-172 -313h-311zM549 545h356l-82 495zM657 1931h320l92 -323h-242z" />
<glyph unicode="&#xc1;" horiz-adv-x="1505" d="M-61 0l864 1491h280l275 -1491h-363l-51 313h-522l-172 -313h-311zM549 545h356l-82 495zM831 1608l156 323h328l-236 -323h-248z" />
<glyph unicode="&#xc2;" horiz-adv-x="1505" d="M-61 0l864 1491h280l275 -1491h-363l-51 313h-522l-172 -313h-311zM549 545h356l-82 495zM586 1608l278 323h260l166 -323h-209l-110 139l-168 -139h-217z" />
<glyph unicode="&#xc3;" horiz-adv-x="1505" d="M-61 0l864 1491h280l275 -1491h-363l-51 313h-522l-172 -313h-311zM549 545h356l-82 495zM600 1743q63 87 120 122.5t134 35.5q54 0 133 -29q76 -25 115 -25q35 0 62.5 12t70.5 46l94 -131q-57 -82 -117 -119t-135 -37q-54 0 -133 29q-73 24 -115 24q-34 0 -58.5 -10.5 t-76.5 -48.5z" />
<glyph unicode="&#xc4;" horiz-adv-x="1505" d="M-61 0l864 1491h280l275 -1491h-363l-51 313h-522l-172 -313h-311zM549 545h356l-82 495zM588 1755q0 74 48.5 122t123.5 48q66 0 109.5 -43.5t43.5 -109.5q0 -74 -48.5 -122t-121.5 -48q-68 0 -111.5 43t-43.5 110zM1008 1757q0 72 48 120t120 48q68 0 111.5 -43 t43.5 -110q0 -73 -48 -121.5t-120 -48.5q-69 0 -112 43t-43 112z" />
<glyph unicode="&#xc5;" horiz-adv-x="1505" d="M-61 0l864 1491h280l275 -1491h-363l-51 313h-522l-172 -313h-311zM549 545h356l-82 495zM727 1812q0 103 72.5 170.5t181.5 67.5q106 0 173 -61.5t67 -159.5q0 -106 -72 -174t-182 -68q-107 0 -173.5 62t-66.5 163zM872 1810q0 -47 25.5 -73.5t69.5 -26.5q50 0 79 32 t29 87q0 46 -25 72t-69 26q-49 0 -79 -32t-30 -85z" />
<glyph unicode="&#xc6;" horiz-adv-x="2070" d="M-139 0l1126 1489h1131l-56 -279h-643l-61 -321h504l-52 -262h-503l-68 -348h703l-82 -279h-1033l62 315h-449l-235 -315h-344zM610 551h324l119 606z" />
<glyph unicode="&#xc7;" horiz-adv-x="1277" d="M106 541q0 163 54 355.5t131 307.5q110 163 274.5 240.5t397.5 77.5q222 0 383 -74l-52 -266q-173 73 -338 73q-139 0 -230 -58.5t-148 -184.5q-40 -91 -71.5 -241.5t-31.5 -252.5q0 -280 297 -280q160 0 371 79l-49 -260q-143 -73 -308 -82l-104 -321h-307l172 332 q-215 41 -328 183.5t-113 371.5z" />
<glyph unicode="&#xc8;" horiz-adv-x="1306" d="M55 0l289 1489h1010l-54 -279h-651l-63 -321h512l-51 -262h-512l-68 -351h713l-80 -276h-1045zM629 1931h319l92 -323h-241z" />
<glyph unicode="&#xc9;" horiz-adv-x="1306" d="M55 0l289 1489h1010l-54 -279h-651l-63 -321h512l-51 -262h-512l-68 -351h713l-80 -276h-1045zM721 1608l156 323h327l-235 -323h-248z" />
<glyph unicode="&#xca;" horiz-adv-x="1306" d="M55 0l289 1489h1010l-54 -279h-651l-63 -321h512l-51 -262h-512l-68 -351h713l-80 -276h-1045zM498 1608l278 323h260l166 -323h-209l-110 139l-168 -139h-217z" />
<glyph unicode="&#xcb;" horiz-adv-x="1306" d="M55 0l289 1489h1010l-54 -279h-651l-63 -321h512l-51 -262h-512l-68 -351h713l-80 -276h-1045zM508 1755q0 74 48.5 122t123.5 48q66 0 110 -43.5t44 -109.5q0 -74 -48 -122t-122 -48q-68 0 -112 43t-44 110zM928 1757q0 72 48 120t120 48q68 0 111.5 -43t43.5 -110 q0 -73 -48 -121.5t-120 -48.5q-69 0 -112 43t-43 112z" />
<glyph unicode="&#xcc;" horiz-adv-x="864" d="M-23 0l39 201h168l213 1087h-170l39 201h699l-39 -201h-170l-211 -1087h168l-39 -201h-697zM360 1931h320l92 -323h-242z" />
<glyph unicode="&#xcd;" horiz-adv-x="864" d="M-23 0l39 201h168l213 1087h-170l39 201h699l-39 -201h-170l-211 -1087h168l-39 -201h-697zM494 1608l155 323h328l-236 -323h-247z" />
<glyph unicode="&#xce;" horiz-adv-x="864" d="M-23 0l39 201h168l213 1087h-170l39 201h699l-39 -201h-170l-211 -1087h168l-39 -201h-697zM276 1608l279 323h260l166 -323h-209l-110 139l-168 -139h-218z" />
<glyph unicode="&#xcf;" horiz-adv-x="864" d="M-23 0l39 201h168l213 1087h-170l39 201h699l-39 -201h-170l-211 -1087h168l-39 -201h-697zM285 1755q0 74 48.5 122t123.5 48q66 0 109.5 -43.5t43.5 -109.5q0 -74 -48 -122t-122 -48q-68 0 -111.5 43t-43.5 110zM705 1757q0 72 47.5 120t119.5 48q68 0 112 -43t44 -110 q0 -73 -48 -121.5t-120 -48.5q-69 0 -112 43t-43 112z" />
<glyph unicode="&#xd0;" horiz-adv-x="1533" d="M49 0l123 627h-121l49 262h121l117 600h543q299 0 457.5 -135.5t158.5 -392.5q0 -109 -26.5 -247t-67.5 -245q-180 -469 -762 -469h-592zM461 262h192q242 0 351 172q49 78 85.5 230.5t36.5 279.5q0 277 -297 277h-182l-65 -332h276l-51 -262h-275z" />
<glyph unicode="&#xd1;" horiz-adv-x="1556" d="M55 0l289 1489h303l463 -885l172 885h297l-289 -1489h-237l-510 969l-189 -969h-299zM631 1743q63 87 120 122.5t134 35.5q54 0 133 -29q76 -25 115 -25q35 0 62.5 12t70.5 46l94 -131q-57 -82 -117 -119t-135 -37q-54 0 -133 29q-73 24 -115 24q-34 0 -58.5 -10.5 t-76.5 -48.5z" />
<glyph unicode="&#xd2;" horiz-adv-x="1579" d="M111 573q0 183 58.5 363t158.5 303q231 283 614 283q284 0 445 -157t161 -435q0 -103 -26.5 -235.5t-69.5 -241.5q-91 -232 -281 -357t-452 -125q-280 0 -444 162.5t-164 439.5zM475 526q0 -301 264 -301q114 0 200.5 61t133.5 175q46 110 77.5 261t31.5 257 q0 142 -68 215.5t-199 73.5q-114 0 -200.5 -62.5t-132.5 -177.5q-43 -109 -75 -259t-32 -243zM750 1931h319l92 -323h-241z" />
<glyph unicode="&#xd3;" horiz-adv-x="1579" d="M111 573q0 183 58.5 363t158.5 303q231 283 614 283q284 0 445 -157t161 -435q0 -103 -26.5 -235.5t-69.5 -241.5q-91 -232 -281 -357t-452 -125q-280 0 -444 162.5t-164 439.5zM475 526q0 -301 264 -301q114 0 200.5 61t133.5 175q46 110 77.5 261t31.5 257 q0 142 -68 215.5t-199 73.5q-114 0 -200.5 -62.5t-132.5 -177.5q-43 -109 -75 -259t-32 -243zM856 1608l156 323h327l-235 -323h-248z" />
<glyph unicode="&#xd4;" horiz-adv-x="1579" d="M111 573q0 183 58.5 363t158.5 303q231 283 614 283q284 0 445 -157t161 -435q0 -103 -26.5 -235.5t-69.5 -241.5q-91 -232 -281 -357t-452 -125q-280 0 -444 162.5t-164 439.5zM475 526q0 -301 264 -301q114 0 200.5 61t133.5 175q46 110 77.5 261t31.5 257 q0 142 -68 215.5t-199 73.5q-114 0 -200.5 -62.5t-132.5 -177.5q-43 -109 -75 -259t-32 -243zM641 1608l279 323h260l166 -323h-209l-111 139l-168 -139h-217z" />
<glyph unicode="&#xd5;" horiz-adv-x="1579" d="M111 573q0 183 58.5 363t158.5 303q231 283 614 283q284 0 445 -157t161 -435q0 -103 -26.5 -235.5t-69.5 -241.5q-91 -232 -281 -357t-452 -125q-280 0 -444 162.5t-164 439.5zM475 526q0 -301 264 -301q114 0 200.5 61t133.5 175q46 110 77.5 261t31.5 257 q0 142 -68 215.5t-199 73.5q-114 0 -200.5 -62.5t-132.5 -177.5q-43 -109 -75 -259t-32 -243zM639 1743q63 87 120 122.5t134 35.5q54 0 133 -29q76 -25 115 -25q35 0 62.5 12t70.5 46l94 -131q-57 -82 -117 -119t-135 -37q-54 0 -133 29q-73 24 -115 24q-34 0 -58.5 -10.5 t-76.5 -48.5z" />
<glyph unicode="&#xd6;" horiz-adv-x="1579" d="M111 573q0 183 58.5 363t158.5 303q231 283 614 283q284 0 445 -157t161 -435q0 -103 -26.5 -235.5t-69.5 -241.5q-91 -232 -281 -357t-452 -125q-280 0 -444 162.5t-164 439.5zM475 526q0 -301 264 -301q114 0 200.5 61t133.5 175q46 110 77.5 261t31.5 257 q0 142 -68 215.5t-199 73.5q-114 0 -200.5 -62.5t-132.5 -177.5q-43 -109 -75 -259t-32 -243zM633 1755q0 74 48.5 122t123.5 48q66 0 109.5 -43.5t43.5 -109.5q0 -74 -48 -122t-122 -48q-68 0 -111.5 43t-43.5 110zM1053 1757q0 72 48 120t120 48q68 0 111.5 -43t43.5 -110 q0 -73 -48 -121.5t-120 -48.5q-69 0 -112 43t-43 112z" />
<glyph unicode="&#xd7;" d="M174 391l295 295l-295 297l166 168l297 -299l297 299l176 -178l-297 -297l297 -295l-168 -168l-297 297l-295 -295z" />
<glyph unicode="&#xd8;" horiz-adv-x="1579" d="M-49 -92l266 293q-106 156 -106 366q0 182 59.5 365.5t157.5 304.5q233 285 618 285q225 0 375 -103l125 137h229l-233 -256q104 -146 104 -366q0 -103 -26.5 -237t-69.5 -242q-91 -231 -281 -357.5t-448 -126.5q-237 0 -385 109l-156 -172h-229zM467 477l651 719 q-72 72 -203 72q-117 0 -205.5 -63t-134.5 -177q-45 -115 -76.5 -264t-31.5 -248v-39zM535 299q71 -74 202 -74q115 0 202.5 61t137.5 175q43 103 77 257t34 247q0 30 -2 53z" />
<glyph unicode="&#xd9;" horiz-adv-x="1531" d="M141 440q0 71 19 166l172 883h362l-180 -926q-14 -80 -14 -117q0 -221 266 -221q141 0 214 72.5t107 247.5l185 944h295l-189 -973q-41 -218 -133 -338q-82 -106 -204 -156.5t-296 -50.5q-296 0 -450 119.5t-154 349.5zM727 1931h320l92 -323h-242z" />
<glyph unicode="&#xda;" horiz-adv-x="1531" d="M141 440q0 71 19 166l172 883h362l-180 -926q-14 -80 -14 -117q0 -221 266 -221q141 0 214 72.5t107 247.5l185 944h295l-189 -973q-41 -218 -133 -338q-82 -106 -204 -156.5t-296 -50.5q-296 0 -450 119.5t-154 349.5zM868 1608l156 323h328l-236 -323h-248z" />
<glyph unicode="&#xdb;" horiz-adv-x="1531" d="M141 440q0 71 19 166l172 883h362l-180 -926q-14 -80 -14 -117q0 -221 266 -221q141 0 214 72.5t107 247.5l185 944h295l-189 -973q-41 -218 -133 -338q-82 -106 -204 -156.5t-296 -50.5q-296 0 -450 119.5t-154 349.5zM621 1608l278 323h260l166 -323h-209l-110 139 l-168 -139h-217z" />
<glyph unicode="&#xdc;" horiz-adv-x="1531" d="M141 440q0 71 19 166l172 883h362l-180 -926q-14 -80 -14 -117q0 -221 266 -221q141 0 214 72.5t107 247.5l185 944h295l-189 -973q-41 -218 -133 -338q-82 -106 -204 -156.5t-296 -50.5q-296 0 -450 119.5t-154 349.5zM639 1755q0 74 48.5 122t123.5 48q66 0 110 -43.5 t44 -109.5q0 -74 -48.5 -122t-121.5 -48q-68 0 -112 43t-44 110zM1059 1757q0 72 48 120t120 48q68 0 111.5 -43t43.5 -110q0 -73 -48 -121.5t-120 -48.5q-69 0 -112 43t-43 112z" />
<glyph unicode="&#xdd;" horiz-adv-x="1406" d="M219 1489h367l219 -635l422 635h327l-651 -942l-106 -547h-361l115 584zM793 1608l155 323h328l-236 -323h-247z" />
<glyph unicode="&#xde;" horiz-adv-x="1363" d="M55 0l289 1489h361l-50 -254h199q251 0 373 -125q110 -107 110 -260q0 -138 -55 -256.5t-152 -187.5q-150 -109 -411 -109q-133 0 -242 20l-61 -317h-361zM522 555q91 -16 180 -16q138 0 207 63q37 32 58.5 91.5t21.5 125.5q0 74 -49 114t-141 40h-195z" />
<glyph unicode="&#xdf;" horiz-adv-x="1302" d="M-41 -408l277 1475q46 246 192 363.5t406 117.5q201 0 314.5 -79.5t113.5 -219.5q0 -112 -76 -200q-35 -45 -142 -129q-75 -60 -95.5 -84.5t-20.5 -55.5q0 -27 21 -51t100 -88q83 -67 119 -133t36 -150q0 -170 -121.5 -274t-322.5 -104q-163 0 -271 63l41 217 q64 -32 104.5 -43.5t88.5 -11.5q78 0 121 31t43 88q0 41 -17 64t-86 77q-157 118 -157 252q0 60 22.5 110.5t73.5 104.5q51 55 129 129q84 81 84 158q0 50 -35.5 77t-99.5 27q-105 0 -158.5 -58t-79.5 -200l-276 -1473h-328z" />
<glyph unicode="&#xe0;" horiz-adv-x="1253" d="M61 336q0 147 42 303t106 248q77 110 187.5 169.5t240.5 59.5q179 0 299 -123l68 97h210l-149 -768q-8 -44 -8 -58q0 -51 51 -51q14 0 49 6l-39 -209q-73 -33 -164 -33q-107 0 -161.5 43.5t-69.5 141.5q-89 -101 -174.5 -147t-183.5 -46q-145 0 -224.5 96t-79.5 271z M399 358q0 -78 31.5 -118.5t91.5 -40.5q53 0 100 23t111 81l105 541q-61 39 -140 39q-78 0 -136.5 -41.5t-90.5 -118.5q-29 -69 -50.5 -178t-21.5 -187zM508 1556h319l97 -333h-242z" />
<glyph unicode="&#xe1;" horiz-adv-x="1253" d="M61 336q0 147 42 303t106 248q77 110 187.5 169.5t240.5 59.5q179 0 299 -123l68 97h210l-149 -768q-8 -44 -8 -58q0 -51 51 -51q14 0 49 6l-39 -209q-73 -33 -164 -33q-107 0 -161.5 43.5t-69.5 141.5q-89 -101 -174.5 -147t-183.5 -46q-145 0 -224.5 96t-79.5 271z M399 358q0 -78 31.5 -118.5t91.5 -40.5q53 0 100 23t111 81l105 541q-61 39 -140 39q-78 0 -136.5 -41.5t-90.5 -118.5q-29 -69 -50.5 -178t-21.5 -187zM614 1223l164 333h326l-242 -333h-248z" />
<glyph unicode="&#xe2;" horiz-adv-x="1253" d="M61 336q0 147 42 303t106 248q77 110 187.5 169.5t240.5 59.5q179 0 299 -123l68 97h210l-149 -768q-8 -44 -8 -58q0 -51 51 -51q14 0 49 6l-39 -209q-73 -33 -164 -33q-107 0 -161.5 43.5t-69.5 141.5q-89 -101 -174.5 -147t-183.5 -46q-145 0 -224.5 96t-79.5 271z M399 358q0 -78 31.5 -118.5t91.5 -40.5q53 0 100 23t111 81l105 541q-61 39 -140 39q-78 0 -136.5 -41.5t-90.5 -118.5q-29 -69 -50.5 -178t-21.5 -187zM406 1225l278 325h260l166 -325h-209l-110 139l-168 -139h-217z" />
<glyph unicode="&#xe3;" horiz-adv-x="1253" d="M61 336q0 147 42 303t106 248q77 110 187.5 169.5t240.5 59.5q179 0 299 -123l68 97h210l-149 -768q-8 -44 -8 -58q0 -51 51 -51q14 0 49 6l-39 -209q-73 -33 -164 -33q-107 0 -161.5 43.5t-69.5 141.5q-89 -101 -174.5 -147t-183.5 -46q-145 0 -224.5 96t-79.5 271z M399 358q0 -78 31.5 -118.5t91.5 -40.5q53 0 100 23t111 81l105 541q-61 39 -140 39q-78 0 -136.5 -41.5t-90.5 -118.5q-29 -69 -50.5 -178t-21.5 -187zM426 1368q61 86 119 122t135 36q54 0 133 -29q73 -24 115 -24q35 0 61.5 11.5t71.5 45.5l94 -131q-57 -82 -117 -119 t-135 -37q-54 0 -133 29q-73 24 -115 24q-34 0 -60 -11t-75 -48z" />
<glyph unicode="&#xe4;" horiz-adv-x="1253" d="M61 336q0 147 42 303t106 248q77 110 187.5 169.5t240.5 59.5q179 0 299 -123l68 97h210l-149 -768q-8 -44 -8 -58q0 -51 51 -51q14 0 49 6l-39 -209q-73 -33 -164 -33q-107 0 -161.5 43.5t-69.5 141.5q-89 -101 -174.5 -147t-183.5 -46q-145 0 -224.5 96t-79.5 271z M399 358q0 -78 31.5 -118.5t91.5 -40.5q53 0 100 23t111 81l105 541q-61 39 -140 39q-78 0 -136.5 -41.5t-90.5 -118.5q-29 -69 -50.5 -178t-21.5 -187zM418 1382q0 74 48.5 122t123.5 48q66 0 109.5 -43.5t43.5 -109.5q0 -73 -48 -121.5t-120 -48.5q-69 0 -113 43t-44 110z M838 1384q0 72 48 120t120 48q68 0 111.5 -43t43.5 -110q0 -73 -48 -121.5t-120 -48.5q-69 0 -112 43t-43 112z" />
<glyph unicode="&#xe5;" horiz-adv-x="1253" d="M61 336q0 147 42 303t106 248q77 110 187.5 169.5t240.5 59.5q179 0 299 -123l68 97h210l-149 -768q-8 -44 -8 -58q0 -51 51 -51q14 0 49 6l-39 -209q-73 -33 -164 -33q-107 0 -161.5 43.5t-69.5 141.5q-89 -101 -174.5 -147t-183.5 -46q-145 0 -224.5 96t-79.5 271z M399 358q0 -78 31.5 -118.5t91.5 -40.5q53 0 100 23t111 81l105 541q-61 39 -140 39q-78 0 -136.5 -41.5t-90.5 -118.5q-29 -69 -50.5 -178t-21.5 -187zM555 1440q0 101 72.5 169t181.5 68q106 0 173 -61.5t67 -159.5q0 -104 -72 -173t-182 -69q-107 0 -173.5 62.5 t-66.5 163.5zM700 1438q0 -47 25.5 -74t69.5 -27q50 0 79 32t29 87q0 46 -25 72t-69 26q-50 0 -79.5 -31t-29.5 -85z" />
<glyph unicode="&#xe6;" horiz-adv-x="1751" d="M31 225q0 112 40 193t115 121q122 66 404 75l133 4l14 74q8 49 8 66q0 60 -36 86t-119 26q-82 0 -162 -15t-221 -56l49 252q207 73 401 73q126 0 198.5 -30t113.5 -99q77 68 162.5 98.5t201.5 30.5q185 0 286 -79t101 -224q0 -226 -227 -311q-139 -53 -463 -61 q-4 -36 -4 -62q0 -94 49 -132t168 -38q81 0 151.5 15t186.5 55l-47 -242q-196 -78 -375 -78q-164 0 -265.5 51.5t-158.5 163.5q-194 -215 -434 -215q-129 0 -199.5 67.5t-70.5 190.5zM356 276q0 -88 101 -88q55 0 102 24.5t100 80.5l35 176l-102 -4q-83 -3 -124.5 -12 t-64.5 -29q-47 -44 -47 -148zM1057 629q211 10 282.5 40.5t71.5 108.5q0 57 -32 88t-91 31q-93 0 -148 -64t-83 -204z" />
<glyph unicode="&#xe7;" horiz-adv-x="1021" d="M72 403q0 167 50.5 313.5t139.5 237.5q170 170 459 170q93 0 159.5 -13t145.5 -48l-47 -244q-71 31 -123.5 43t-118.5 12q-197 0 -262 -143q-29 -58 -49 -150t-20 -163q0 -99 53 -150t155 -51q64 0 119.5 13t165.5 53l-47 -240q-104 -50 -219 -68l-105 -321h-307l170 328 q-154 31 -236.5 140t-82.5 281z" />
<glyph unicode="&#xe8;" horiz-adv-x="1128" d="M70 387q0 158 48.5 304.5t131.5 240.5q168 192 457 192q183 0 287 -82.5t104 -228.5q0 -125 -75.5 -209.5t-221.5 -124.5q-84 -23 -160.5 -32t-234.5 -15q-3 -27 -3 -41q0 -94 51.5 -134t170.5 -40q78 0 145 14t188 56l-47 -242q-114 -44 -194.5 -61t-179.5 -17 q-227 0 -347 108t-120 312zM434 616q211 13 282.5 45.5t71.5 114.5q0 59 -32 90t-92 31q-95 0 -148.5 -65t-81.5 -216zM444 1556h320l96 -333h-242z" />
<glyph unicode="&#xe9;" horiz-adv-x="1128" d="M70 387q0 158 48.5 304.5t131.5 240.5q168 192 457 192q183 0 287 -82.5t104 -228.5q0 -125 -75.5 -209.5t-221.5 -124.5q-84 -23 -160.5 -32t-234.5 -15q-3 -27 -3 -41q0 -94 51.5 -134t170.5 -40q78 0 145 14t188 56l-47 -242q-114 -44 -194.5 -61t-179.5 -17 q-227 0 -347 108t-120 312zM434 616q211 13 282.5 45.5t71.5 114.5q0 59 -32 90t-92 31q-95 0 -148.5 -65t-81.5 -216zM557 1223l164 333h326l-242 -333h-248z" />
<glyph unicode="&#xea;" horiz-adv-x="1128" d="M70 387q0 158 48.5 304.5t131.5 240.5q168 192 457 192q183 0 287 -82.5t104 -228.5q0 -125 -75.5 -209.5t-221.5 -124.5q-84 -23 -160.5 -32t-234.5 -15q-3 -27 -3 -41q0 -94 51.5 -134t170.5 -40q78 0 145 14t188 56l-47 -242q-114 -44 -194.5 -61t-179.5 -17 q-227 0 -347 108t-120 312zM344 1225l279 325h260l166 -325h-209l-111 139l-168 -139h-217zM434 616q211 13 282.5 45.5t71.5 114.5q0 59 -32 90t-92 31q-95 0 -148.5 -65t-81.5 -216z" />
<glyph unicode="&#xeb;" horiz-adv-x="1128" d="M70 387q0 158 48.5 304.5t131.5 240.5q168 192 457 192q183 0 287 -82.5t104 -228.5q0 -125 -75.5 -209.5t-221.5 -124.5q-84 -23 -160.5 -32t-234.5 -15q-3 -27 -3 -41q0 -94 51.5 -134t170.5 -40q78 0 145 14t188 56l-47 -242q-114 -44 -194.5 -61t-179.5 -17 q-227 0 -347 108t-120 312zM356 1382q0 74 48.5 122t123.5 48q66 0 110 -43.5t44 -109.5q0 -73 -48 -121.5t-120 -48.5q-69 0 -113.5 43t-44.5 110zM434 616q211 13 282.5 45.5t71.5 114.5q0 59 -32 90t-92 31q-95 0 -148.5 -65t-81.5 -216zM776 1384q0 72 48 120t120 48 q68 0 112 -43t44 -110q0 -73 -48 -121.5t-120 -48.5q-69 0 -112.5 43t-43.5 112z" />
<glyph unicode="&#xec;" horiz-adv-x="663" d="M92 0l164 840h-133l45 231h94q106 0 169 11.5t104 39.5l98 -20l-213 -1102h-328zM205 1556h319l97 -333h-242z" />
<glyph unicode="&#xed;" horiz-adv-x="663" d="M92 0l164 840h-133l45 231h94q106 0 169 11.5t104 39.5l98 -20l-213 -1102h-328zM330 1223l164 333h325l-241 -333h-248z" />
<glyph unicode="&#xee;" horiz-adv-x="663" d="M84 1225l278 325h261l165 -325h-208l-111 139l-168 -139h-217zM86 0l164 840h-135l45 231h96q106 0 168 11.5t102 39.5l101 -20l-215 -1102h-326z" />
<glyph unicode="&#xef;" horiz-adv-x="663" d="M92 0l164 840h-133l45 231h94q106 0 169 11.5t104 39.5l98 -20l-213 -1102h-328zM104 1382q0 74 48.5 122t123.5 48q66 0 110 -43.5t44 -109.5q0 -73 -48 -121.5t-120 -48.5q-69 0 -113.5 43t-44.5 110zM524 1384q0 72 48 120t120 48q68 0 112 -43t44 -110 q0 -73 -48 -121.5t-120 -48.5q-69 0 -112.5 43t-43.5 112z" />
<glyph unicode="&#xf0;" d="M72 397q0 147 42 286.5t113 227.5q72 91 176 139t228 48q64 0 109 -15.5t83 -50.5q-31 111 -94 211l-295 -84l33 166l176 51q-75 93 -170 172h334q65 -50 113 -98l294 84l-32 -166l-158 -47q154 -241 154 -510q0 -183 -56 -365t-145 -288q-78 -92 -191.5 -141.5 t-248.5 -49.5q-215 0 -340 115.5t-125 314.5zM401 375q0 -176 152 -176q48 0 82 15t70 54q30 30 46.5 74t43.5 162q30 132 30 221q0 168 -149 168q-79 0 -129.5 -45.5t-81.5 -145.5q-64 -206 -64 -327z" />
<glyph unicode="&#xf1;" horiz-adv-x="1236" d="M25 0l202 1053q192 6 262 67l80 -18l-43 -205q118 115 218.5 167t203.5 52q109 0 167.5 -58.5t58.5 -168.5q0 -48 -17 -129l-145 -760h-330l131 680q8 47 8 72q0 94 -92 94q-53 0 -106 -24t-125 -81l-146 -741h-327zM397 1368q61 86 119 122t135 36q54 0 133 -29 q73 -24 115 -24q35 0 61.5 11.5t71.5 45.5l94 -131q-57 -82 -117 -119t-135 -37q-54 0 -133 29q-73 24 -114 24q-34 0 -60 -11t-75 -48z" />
<glyph unicode="&#xf2;" horiz-adv-x="1224" d="M68 401q0 146 50 294.5t128 238.5q82 92 198 141t254 49q211 0 335 -113t124 -306q0 -119 -34.5 -253.5t-88.5 -218.5q-82 -131 -211.5 -198.5t-298.5 -67.5q-212 0 -334 116.5t-122 317.5zM399 377q0 -178 152 -178q77 0 127 40t82 128q23 66 43 180t20 180 q0 168 -151 168q-79 0 -127.5 -43t-83.5 -145q-23 -68 -42.5 -172.5t-19.5 -157.5zM479 1556h320l96 -333h-242z" />
<glyph unicode="&#xf3;" horiz-adv-x="1224" d="M68 401q0 146 50 294.5t128 238.5q82 92 198 141t254 49q211 0 335 -113t124 -306q0 -119 -34.5 -253.5t-88.5 -218.5q-82 -131 -211.5 -198.5t-298.5 -67.5q-212 0 -334 116.5t-122 317.5zM399 377q0 -178 152 -178q77 0 127 40t82 128q23 66 43 180t20 180 q0 168 -151 168q-79 0 -127.5 -43t-83.5 -145q-23 -68 -42.5 -172.5t-19.5 -157.5zM600 1223l164 333h326l-242 -333h-248z" />
<glyph unicode="&#xf4;" horiz-adv-x="1224" d="M68 401q0 146 50 294.5t128 238.5q82 92 198 141t254 49q211 0 335 -113t124 -306q0 -119 -34.5 -253.5t-88.5 -218.5q-82 -131 -211.5 -198.5t-298.5 -67.5q-212 0 -334 116.5t-122 317.5zM373 1225l278 325h260l166 -325h-209l-110 139l-168 -139h-217zM399 377 q0 -178 152 -178q77 0 127 40t82 128q23 66 43 180t20 180q0 168 -151 168q-79 0 -127.5 -43t-83.5 -145q-23 -68 -42.5 -172.5t-19.5 -157.5z" />
<glyph unicode="&#xf5;" horiz-adv-x="1224" d="M68 401q0 146 50 294.5t128 238.5q82 92 198 141t254 49q211 0 335 -113t124 -306q0 -119 -34.5 -253.5t-88.5 -218.5q-82 -131 -211.5 -198.5t-298.5 -67.5q-212 0 -334 116.5t-122 317.5zM391 1368q61 86 119 122t135 36q54 0 133 -29q73 -24 115 -24q35 0 61.5 11.5 t71.5 45.5l94 -131q-57 -82 -117 -119t-135 -37q-54 0 -133 29q-73 24 -114 24q-34 0 -60.5 -11.5t-75.5 -47.5zM399 377q0 -178 152 -178q77 0 127 40t82 128q23 66 43 180t20 180q0 168 -151 168q-79 0 -127.5 -43t-83.5 -145q-23 -68 -42.5 -172.5t-19.5 -157.5z" />
<glyph unicode="&#xf6;" horiz-adv-x="1226" d="M68 401q0 146 50 294.5t128 238.5q82 92 198 141t254 49q211 0 335 -113t124 -306q0 -119 -34.5 -253.5t-88.5 -218.5q-82 -131 -211.5 -198.5t-298.5 -67.5q-212 0 -334 116.5t-122 317.5zM391 1382q0 74 48.5 122t123.5 48q66 0 110 -43.5t44 -109.5q0 -73 -48 -121.5 t-120 -48.5q-69 0 -113.5 43t-44.5 110zM399 377q0 -178 152 -178q77 0 127 40t82 128q23 66 43 180t20 180q0 168 -151 168q-79 0 -127.5 -43t-83.5 -145q-23 -68 -42.5 -172.5t-19.5 -157.5zM811 1384q0 72 48 120t120 48q68 0 112 -43t44 -110q0 -73 -48 -121.5 t-120 -48.5q-69 0 -112.5 43t-43.5 112z" />
<glyph unicode="&#xf7;" d="M133 567l45 234h969l-45 -234h-969zM377 274q0 73 50.5 122.5t125.5 49.5t124.5 -50t49.5 -126q0 -75 -49.5 -124.5t-124.5 -49.5q-77 0 -126.5 50t-49.5 128zM553 1102q0 73 50.5 122.5t125.5 49.5t124.5 -49.5t49.5 -124.5q0 -76 -49.5 -126t-124.5 -50 q-77 0 -126.5 50t-49.5 128z" />
<glyph unicode="&#xf8;" horiz-adv-x="1224" d="M-55 -92l202 223q-79 109 -79 270q0 145 50 293.5t128 239.5q82 92 198 141t254 49q169 0 285 -73l94 104h195l-187 -205q72 -106 72 -245q0 -119 -34.5 -252.5t-88.5 -219.5q-82 -130 -211 -198t-295 -68q-159 0 -274 68l-115 -127h-194zM391 399l408 451 q-43 49 -127 49q-90 0 -143.5 -53.5t-88.5 -179.5q-43 -157 -49 -267zM434 233q43 -40 117 -40q123 0 187.5 110t92.5 367z" />
<glyph unicode="&#xf9;" d="M70 229q0 59 16 140l135 700l336 27l-133 -684q-10 -49 -10 -84q0 -48 25.5 -74.5t72.5 -26.5q46 0 91.5 19.5t117.5 70.5l147 752l334 27l-213 -1096h-221l-45 176q-114 -109 -210 -158t-196 -49q-118 0 -182.5 68.5t-64.5 191.5zM485 1556h320l96 -333h-242z" />
<glyph unicode="&#xfa;" d="M70 229q0 59 16 140l135 700l336 27l-133 -684q-10 -49 -10 -84q0 -48 25.5 -74.5t72.5 -26.5q46 0 91.5 19.5t117.5 70.5l147 752l334 27l-213 -1096h-221l-45 176q-114 -109 -210 -158t-196 -49q-118 0 -182.5 68.5t-64.5 191.5zM625 1223l163 333h326l-242 -333h-247z " />
<glyph unicode="&#xfb;" d="M70 229q0 59 16 140l135 700l336 27l-133 -684q-10 -49 -10 -84q0 -48 25.5 -74.5t72.5 -26.5q46 0 91.5 19.5t117.5 70.5l147 752l334 27l-213 -1096h-221l-45 176q-114 -109 -210 -158t-196 -49q-118 0 -182.5 68.5t-64.5 191.5zM389 1225l279 325h260l166 -325h-209 l-111 139l-168 -139h-217z" />
<glyph unicode="&#xfc;" d="M70 229q0 59 16 140l135 700l336 27l-133 -684q-10 -49 -10 -84q0 -48 25.5 -74.5t72.5 -26.5q46 0 91.5 19.5t117.5 70.5l147 752l334 27l-213 -1096h-221l-45 176q-114 -109 -210 -158t-196 -49q-118 0 -182.5 68.5t-64.5 191.5zM401 1382q0 74 48.5 122t123.5 48 q66 0 110 -43.5t44 -109.5q0 -73 -48 -121.5t-120 -48.5q-69 0 -113.5 43t-44.5 110zM821 1384q0 72 48 120t120 48q68 0 112 -43t44 -110q0 -73 -48 -121.5t-120 -48.5q-69 0 -112.5 43t-43.5 112z" />
<glyph unicode="&#xfd;" horiz-adv-x="1140" d="M12 -408l334 523l-215 975h330l108 -605l359 605h299l-916 -1498h-299zM578 1223l163 333h326l-242 -333h-247z" />
<glyph unicode="&#xfe;" horiz-adv-x="1261" d="M-53 -408l366 1891q194 3 262 65h80l-123 -635q195 201 383 201q138 0 214.5 -88t76.5 -246q0 -148 -44.5 -319.5t-108.5 -267.5q-82 -128 -201 -177q-115 -49 -217 -49q-153 0 -266 101l-95 -476h-327zM399 233q71 -43 168 -43q125 0 191 105q38 58 70 188t32 226 q0 70 -34 107.5t-97 37.5q-53 0 -102.5 -25t-128.5 -90z" />
<glyph unicode="&#xff;" horiz-adv-x="1140" d="M12 -408l334 523l-215 975h330l108 -605l359 605h299l-916 -1498h-299zM340 1382q0 74 48.5 122t123.5 48q66 0 110 -43.5t44 -109.5q0 -73 -48 -121.5t-120 -48.5q-69 0 -113.5 43t-44.5 110zM760 1384q0 72 48 120t120 48q68 0 111.5 -43t43.5 -110q0 -73 -48 -121.5 t-120 -48.5q-69 0 -112 43t-43 112z" />
<glyph unicode="&#x152;" horiz-adv-x="2277" d="M113 584q0 183 62.5 368.5t166.5 311.5q214 258 569 258q121 0 210 -31t159 -98l20 96h1027l-56 -279h-649l-63 -321h509l-51 -262h-508l-67 -348h708l-77 -279h-1022l18 90q-162 -119 -360 -119q-270 0 -433 167.5t-163 445.5zM477 526q0 -301 266 -301 q110 0 196.5 61.5t133.5 174.5q45 108 77 261.5t32 260.5q0 139 -68 212t-199 73q-116 0 -200.5 -61.5t-130.5 -178.5q-43 -105 -75 -256.5t-32 -245.5z" />
<glyph unicode="&#x153;" horiz-adv-x="1851" d="M72 391q0 184 65 347.5t174 254.5q155 131 389 131q121 0 201.5 -40t136.5 -128q82 88 176.5 128t223.5 40q185 0 285 -79.5t100 -227.5q0 -126 -75 -212t-216 -124q-157 -41 -402 -49q-2 -25 -2 -51q0 -85 55 -124.5t173 -39.5q133 0 327 70l-47 -242q-196 -78 -370 -78 q-133 0 -217 39t-138 125q-80 -86 -170 -125t-211 -39q-210 0 -334 115t-124 309zM403 371q0 -172 154 -172q75 0 125 39t82 124q22 58 43.5 176.5t21.5 176.5q0 94 -36.5 137t-114.5 43q-80 0 -129.5 -43t-81.5 -141q-23 -70 -43.5 -177t-20.5 -163zM1157 616 q203 10 281 45t78 115q0 121 -125 121q-97 0 -150 -64t-84 -217z" />
<glyph unicode="&#x178;" horiz-adv-x="1406" d="M219 1489h367l219 -635l422 635h327l-651 -942l-106 -547h-361l115 584zM559 1755q0 74 48.5 122t123.5 48q66 0 110 -43.5t44 -109.5q0 -74 -48.5 -122t-121.5 -48q-68 0 -112 43t-44 110zM979 1757q0 72 48 120t120 48q68 0 112 -43t44 -110q0 -73 -48 -121.5 t-120 -48.5q-69 0 -112.5 43t-43.5 112z" />
<glyph unicode="&#x2c6;" horiz-adv-x="1024" d="M291 1225l278 325h260l166 -325h-209l-110 139l-168 -139h-217z" />
<glyph unicode="&#x2dc;" horiz-adv-x="1024" d="M311 1368q61 86 119 122t135 36q54 0 133 -29q73 -24 115 -24q35 0 61.5 11.5t71.5 45.5l94 -131q-57 -82 -117 -119t-135 -37q-54 0 -133 29q-73 24 -114 24q-34 0 -60 -11t-75 -48z" />
<glyph unicode="&#x2000;" horiz-adv-x="1025" />
<glyph unicode="&#x2001;" horiz-adv-x="2050" />
<glyph unicode="&#x2002;" horiz-adv-x="1025" />
<glyph unicode="&#x2003;" horiz-adv-x="2050" />
<glyph unicode="&#x2004;" horiz-adv-x="683" />
<glyph unicode="&#x2005;" horiz-adv-x="512" />
<glyph unicode="&#x2006;" horiz-adv-x="341" />
<glyph unicode="&#x2007;" horiz-adv-x="341" />
<glyph unicode="&#x2008;" horiz-adv-x="256" />
<glyph unicode="&#x2009;" horiz-adv-x="410" />
<glyph unicode="&#x200a;" horiz-adv-x="113" />
<glyph unicode="&#x2010;" horiz-adv-x="614" d="M53 557l49 252h510l-47 -252h-512z" />
<glyph unicode="&#x2011;" horiz-adv-x="614" d="M53 557l49 252h510l-47 -252h-512z" />
<glyph unicode="&#x2012;" horiz-adv-x="614" d="M53 557l49 252h510l-47 -252h-512z" />
<glyph unicode="&#x2013;" d="M133 567l45 234h969l-45 -234h-969z" />
<glyph unicode="&#x2014;" d="M-125 567l45 234h1485l-45 -234h-1485z" />
<glyph unicode="&#x2018;" horiz-adv-x="528" d="M201 1141q0 152 104 262q63 66 142 101t210 55l-24 -117q-92 -25 -147 -71t-80 -118q72 -2 110.5 -37.5t38.5 -101.5q0 -72 -51 -120t-127 -48q-79 0 -127.5 53.5t-48.5 141.5z" />
<glyph unicode="&#x2019;" horiz-adv-x="526" d="M141 936l25 117q178 46 227 188q-72 2 -110.5 38t-38.5 103q0 72 50.5 119t127.5 47q80 0 128 -53t48 -141q0 -152 -104 -262q-63 -65 -143 -100.5t-210 -55.5z" />
<glyph unicode="&#x201a;" horiz-adv-x="526" d="M-88 -240l25 117q179 48 227 186q-72 2 -111 38.5t-39 103.5q0 72 51 119t128 47q79 0 127.5 -53.5t48.5 -141.5q0 -149 -105 -260q-63 -66 -142 -101t-210 -55z" />
<glyph unicode="&#x201c;" horiz-adv-x="1007" d="M203 1141q0 152 104 262q63 66 142 101t210 55l-24 -117q-92 -25 -147 -71t-80 -118q72 -2 110.5 -37.5t38.5 -101.5q0 -72 -51 -120t-127 -48q-79 0 -127.5 53.5t-48.5 141.5zM680 1141q0 152 104 262q62 65 142.5 100.5t210.5 55.5l-23 -117q-93 -25 -148.5 -71 t-80.5 -118q73 -1 112 -37t39 -102q0 -72 -51 -120t-129 -48q-79 0 -127.5 53.5t-48.5 141.5z" />
<glyph unicode="&#x201d;" horiz-adv-x="1007" d="M143 936l25 117q178 46 227 188q-72 2 -110.5 38t-38.5 103q0 72 50.5 119t127.5 47q80 0 128 -53t48 -141q0 -152 -104 -262q-63 -65 -143 -100.5t-210 -55.5zM621 936l24 117q180 46 229 188q-73 1 -112 37t-39 102q0 72 51 120t127 48q80 0 128 -53t48 -141 q0 -152 -104 -262q-63 -65 -142.5 -100.5t-209.5 -55.5z" />
<glyph unicode="&#x201e;" horiz-adv-x="1007" d="M-86 -240l25 117q179 48 227 186q-72 2 -111 38.5t-39 103.5q0 72 51 119t128 47q79 0 127.5 -53.5t48.5 -141.5q0 -149 -105 -260q-63 -66 -142 -101t-210 -55zM391 -240l25 117q93 25 148.5 70t80.5 116q-73 1 -112 37.5t-39 104.5q0 71 51 118.5t127 47.5 q79 0 127.5 -53.5t48.5 -141.5q0 -152 -105 -260q-63 -66 -142.5 -101.5t-209.5 -54.5z" />
<glyph unicode="&#x2022;" d="M336 711q0 127 89 215t218 88q131 0 219 -88t88 -219t-88.5 -219.5t-218.5 -88.5q-132 0 -219.5 89t-87.5 223z" />
<glyph unicode="&#x2026;" horiz-adv-x="1843" d="M84 154q0 83 56.5 138.5t140.5 55.5q78 0 130 -51t52 -129q0 -85 -56 -141t-141 -56q-79 0 -130.5 51.5t-51.5 131.5zM657 154q0 83 56.5 138.5t140.5 55.5q78 0 130 -51t52 -129q0 -85 -55.5 -141t-140.5 -56q-80 0 -131.5 51.5t-51.5 131.5zM1231 154q0 83 56.5 138.5 t139.5 55.5q78 0 130.5 -51t52.5 -129q0 -85 -56 -141t-141 -56q-79 0 -130.5 51.5t-51.5 131.5z" />
<glyph unicode="&#x202f;" horiz-adv-x="410" />
<glyph unicode="&#x2039;" horiz-adv-x="645" d="M74 475l28 141l312 361h231l-287 -447l121 -440h-209z" />
<glyph unicode="&#x203a;" horiz-adv-x="645" d="M-4 90l287 447l-121 440h209l196 -385l-28 -141l-312 -361h-231z" />
<glyph unicode="&#x205f;" horiz-adv-x="512" />
<glyph unicode="&#x20ac;" d="M66 489l30 173h133q6 32 15.5 77.5t11.5 57.5h-133l33 172h137q35 117 72.5 186.5t101.5 134.5q190 193 514 193q174 0 322 -60l-52 -262q-131 60 -262 60q-134 0 -206.5 -55.5t-123.5 -196.5h375l-33 -172h-380q-21 -93 -27 -135h381l-35 -173h-373v-34q0 -116 58 -169 t184 -53q116 0 285 50l-50 -250q-140 -64 -305 -64q-189 0 -314.5 69t-176.5 200q-22 53 -30 102.5t-9 148.5h-143z" />
<glyph unicode="&#x2122;" horiz-adv-x="1781" d="M184 1325l45 164h635l-30 -164h-216l-112 -580h-219l112 580h-215zM827 745l164 744h256l78 -391l240 391h266l-145 -744h-220l93 469l-250 -401h-115l-84 391l-100 -459h-183z" />
<glyph unicode="&#x25fc;" horiz-adv-x="1085" d="M0 0v1085h1085v-1085h-1085z" />
</font>
</defs>
</svg>
